<?xml version="1.0" encoding="UTF-8"?>
<svg id="Layer_1" data-name="Layer 1" xmlns="http://www.w3.org/2000/svg" viewBox="0 0 674.67 772.84">
  <defs>
    <style>
      .cls-1 {
        fill: #756763;
      }

      .cls-1, .cls-2, .cls-3, .cls-4, .cls-5, .cls-6, .cls-7, .cls-8 {
        stroke-width: 0px;
      }

      .cls-2 {
        fill: #a19087;
      }

      .cls-3 {
        fill: #bfb2a7;
      }

      .cls-4 {
        fill: #595757;
      }

      .cls-5 {
        fill: #b7a89e;
      }

      .cls-6 {
        fill: #b1a298;
      }

      .cls-7 {
        fill: #fff;
      }

      .cls-8 {
        fill: #857a72;
      }
    </style>
  </defs>
  <ellipse class="cls-7" cx="487.55" cy="110.97" rx="141.02" ry="62.26"/>
  <g>
    <path class="cls-7" d="M334.93,216.82c-11.68,0-19.33-4.85-23.7-8.92-6.18-5.76-9.66-13.91-9.55-22.35.11-8.44,3.81-16.5,10.14-22.09,2.14-1.89,3.96-3.75,5.46-5.6-22.77-32.25-20.01-70.79,7.15-98.43,16.89-17.19,37.6-30.1,61.57-38.39l2.46-.85c14.03-4.85,28.54-9.87,43.91-13.67,18.06-4.46,33.45-6.53,48.42-6.53,5.33,0,10.65.28,15.82.83,1.21.13,2.67.19,4.44.19,2.03,0,4.27-.08,6.63-.16,2.82-.1,5.71-.21,8.82-.21,3.47,0,6.62.13,9.62.41,30.43,2.8,66.08,8.08,99.75,25.98,28.15,14.96,45.29,39.68,48.26,69.59,3.57,35.94-10.71,66.58-40.22,86.26-16.21,10.81-33.52,16.56-46.79,20.36-22.43,6.42-43.74,10.06-65.12,11.13-8.94.45-17.69.67-26.02.67-16.22,0-31.32-.82-46.17-2.5-23.99-2.71-46.16-8.64-63.83-14.08-15.37,9.51-36.5,18.35-51.05,18.35ZM401.14,134.79c.45.14,1.34.38,1.96.55,1.52.41,3.37.91,5.4,1.59,23.3,7.77,48.88,11.96,78.19,12.82,1.66.05,3.36.07,5.19.07,6.1,0,12.32-.26,18.91-.54,3.14-.13,6.29-.27,9.44-.37,20.14-.68,40.42-4.92,62-12.97,6.87-2.56,12.24-4.84,16.12-7.65,8.14-5.89,11.28-12.58,10.86-23.09-.32-8.02-2.8-14.55-13.83-20.38-23.43-12.39-50.49-16.31-73.87-18.52-1.36-.13-2.9-.19-4.86-.19s-4.19.06-6.49.13c-2.67.08-5.38.16-8.27.16-4.38,0-8.13-.19-11.79-.59-2.72-.3-5.53-.44-8.59-.44-3.77,0-7.9.23-12.63.69-16.48,1.62-33.09,7.13-50.68,12.97-3.83,1.27-7.65,2.54-11.49,3.77-13.59,4.37-24.61,10.66-33.69,19.21l-1.03.96c-1.66,1.56-4.56,4.28-5.83,5.82-1.07,5.01.7,7.99,1.32,9.02,2.05,3.46,5.05,7.07,8.67,10.46.98.92,1.89,1.89,2.73,2.91,1.52-.17,3.06-.26,4.6-.26,5.96,0,11.89,1.3,17.63,3.88Z"/>
    <path class="cls-7" d="M301.46,772.84c-2.43,0-4.94-.13-7.47-.39-8.73-.9-16.4-1.36-23.46-1.41-7.8-.06-17.06-.26-26.64-1.26-8.35-.88-15.87-3.64-22.08-8.02-5.85,4.66-13.17,7.31-21.04,7.31-4.11,0-8.16-.74-12.05-2.21-4.44-1.68-10.34-2.67-16.59-3.72-9.65-1.63-21.64-3.65-33.55-9.16-16.94-7.84-30.33-17.57-40.93-29.73-8.91-10.23-11.97-22.57-8.62-34.76,3.68-13.94,12.77-22.14,19.29-27.09,5.96-4.53,13.03-6.93,20.45-6.93,5.29,0,9.76,1.22,13.22,2.63-3.98-17.78-5.31-33.48-4.16-48.66,1.07-14.17,4.48-28.51,10.41-43.83,1.11-2.86,1.99-5.99,2.71-9.19-8.18-4.85-12.46-11.23-14.69-16.24-4.15-9.35-4.01-19.51.41-30.22,3.67-8.89,7.35-18.03,10.9-26.87l.06-.16c5.98-14.87,12.17-30.25,18.7-45.39,5.07-11.76,6.52-18.69,5.19-24.72-2.18-9.82-4.4-18.29-6.8-25.89-.44-1.38-.87-2.76-1.3-4.14-3.15-4.94-5.1-10.67-5.73-16.86-6.87,6.19-15.37,13.31-27.87,17.47-5.86,1.95-11.28,2.9-16.56,2.9-16.56,0-30.52-9.44-38.3-25.89-4.2-8.88-7.06-17.46-9.82-25.76-1.33-3.99-2.57-7.7-3.88-11.23-9.39-25.22-19.04-50.85-28.37-75.63l-.58-1.55c-3.61-9.6-7.23-19.2-10.84-28.8-3.34-5.12-5.47-10.61-6.38-16.36-1.04-2.45-2.26-5.04-3.53-7.77-3.83-8.17-8.59-18.33-10.92-30.17-.15-.78-.28-1.59-.37-2.4-1.2-10.44,1.69-20.16,8.12-27.38,4.14-4.64,11.42-10.11,23.1-10.94,6.85-8.46,16.48-13.3,27.04-13.3.68,0,1.36.02,2.04.06,4.42-2.96,9.35-5.07,14.57-6.22,2.12-.47,4.29-.7,6.45-.7.26,0,.52,0,.78.01,6.85.18,14.99,2.61,21.56,8.42,1.81-.3,3.66-.45,5.53-.45,6.46,0,12.75,1.78,18.69,5.29,12.54,7.41,19.94,20.01,20.33,34.59.15,3.26.32,6.86.25,10.73,4.57.13,8.62.83,11.71,1.46,11.84,2.39,21.49,10.24,25.82,21,3.63,9.03,3.12,19.27-1.37,28.25-3.01,7.39-7.67,12.11-10.56,14.77-1.9,2.36-4.09,4.48-6.54,6.3-1.29,1.24-2.58,2.47-3.87,3.7l-.13.12c-2.44,2.33-4.81,4.59-7.11,6.83,6.61-5.31,13.92-9.98,22.21-14.17,4.03-2.04,7.84-4.3,11.35-6.73,7.31-6.02,15.12-9.31,22.09-11.21-7.15-12.56-8.94-25.9-9.35-36.54-.99-2.61-1.64-5.34-1.94-8.14-.92-8.83,1.67-17.13,7.7-24.7,7.63-12.4,18.21-18.58,24.6-22.31l.24-.14c.66-.39,1.29-.75,1.87-1.11,4.22-2.67,9.07-4.25,14.04-4.58,4.25-.28,8.03-.42,11.57-.42,10.59,0,42.41,0,61.82,29.96,5.42,5.46,8.68,12.64,9.28,20.33,5.07,13.97,5.11,27.88.1,41.41-2.92,10.93-10.14,17.55-14.79,20.99,21.63,8.9,38.77,24.28,51.03,45.8,2.92,5.13,5.96,9.45,9.3,13.2,14.2,15.99,22.73,34.18,30.26,50.23l.08.17c1.74,3.7,3.53,7.52,5.3,11.1,5.05,10.24,9.35,21.63,13.14,34.83.67,2.35,2.85,6.06,4.95,9.65,1.21,2.06,2.45,4.18,3.72,6.5,8.08,14.84,6.89,30.56-3.17,42.15-7.77,9.76-18.07,12.38-21.98,13.37l-.53.14c-26.22,6.84-53.47,11.76-80.98,14.62.14,1.14.28,2.29.4,3.46,1.96,18.87,5.25,37.75,9.59,60.31,1.67,8.7.29,17.63-3.89,25.25-4.05,8.82-11.04,15.23-19.78,18.49.62,3.27,1.29,6.6,1.98,10l.06.29c.53,2.62,1.05,5.24,1.56,7.86.54,2.78,1.11,5.56,1.68,8.34,1.35,6.62,2.75,13.46,3.86,20.6,2,12.91.38,24.64-4.83,34.88-2.31,6.57-5.28,12.3-7.7,16.95,0,0-.58,1.13-.8,1.55-.21.65-.48,1.53-.81,2.55,4.5.41,8.91.89,13.26,1.37,2.15.23,4.26.46,6.38.68l.2.02c3.34.34,13.56,1.4,22.46,10.1,3.47,3.39,6.09,7.62,7.58,12.24,3.77,11.67,1.65,20.89-1.12,26.92-1.25,3.95-2.94,7.45-5.13,10.61-10.24,20.79-29.13,32.67-52.05,32.67Z"/>
    <path class="cls-7" d="M508.5,134.61c-12.02,0-23.3-5.91-30.94-16.21-2.75-3.71-11.07-14.92-9.69-30.58,1.29-24.93,24.5-41.65,45.53-41.65,6.67,0,12.96,1.53,18.7,4.55,12.05,6.34,19.39,18.37,19.62,32.16.26,15.4-5.11,29.13-15.54,39.71-7.64,7.75-17.47,12.01-27.68,12.01h0Z"/>
    <path class="cls-7" d="M589.78,174.86c-4.08,0-8.01-.72-11.65-2.12-1.33.33-2.68.56-4.05.71-1.14.12-2.28.18-3.41.18-14.77,0-27.2-9.7-30.92-24.13-5.53-21.46,8.23-48.45,28.87-56.64,4.8-1.9,9.72-2.87,14.6-2.87,12.06,0,23.07,5.84,30.22,16.01,8.74,12.45,11.64,27.2,8.6,43.85-2.22,12.18-11.89,21.88-24.06,24.13-2.02.37-4.78.88-8.19.88h0Z"/>
    <path class="cls-7" d="M465.64,134.19c-3.04,0-6.04-.46-8.94-1.36-9.88-3.09-17.38-10.9-20.05-20.91-4.65-17.44-.04-54.99,25.35-64.57,3.4-1.28,6.96-1.93,10.59-1.93,10.9,0,20.96,5.92,26.24,15.46l15.33,27.66c4.56,8.21,4.98,18.24,1.14,26.81-3.84,8.57-11.6,14.93-20.76,17-2.84.64-5.71.97-8.54.97-3.22,0-6.34-.4-9.36-1.21-3.48,1.37-7.22,2.1-11.01,2.1Z"/>
    <path class="cls-7" d="M499.03,175.32c-13.98,0-26.35-7.79-33.08-20.82-4.17-8.07-4.81-15.82-4.87-21.14-.79-10.69,2.31-25.92,20.87-39.11,6.13-4.36,13.35-6.66,20.86-6.66,17.85,0,33.23,12.96,36.57,30.82,3.1,16.58-1.76,33.02-13.35,45.1-7.3,7.61-16.89,11.81-27,11.81h0Z"/>
    <path class="cls-7" d="M386.26,132.6c-5.36,0-10.63-1.44-15.24-4.16-7.64-4.51-12.87-12.1-14.34-20.85-1.39-8.23-.11-15.31,1.53-20.44-2.62-6.41-3.31-13.32-1.99-20.37,1.51-8.05,6.33-15.22,13.21-19.67,4.86-3.14,10.49-4.79,16.27-4.79,2.39,0,4.78.29,7.1.85.86.21,1.71.45,2.54.71.97-.18,1.95-.31,2.94-.4.95-.09,1.9-.13,2.83-.13,10.94,0,21.01,5.96,26.28,15.54,3.82,6.94,5.18,14.62,4.04,22.22,1.97,3.83,3.28,7.74,3.97,11.82,1.36,7.99-.62,16.32-5.43,22.84-4.81,6.52-12.18,10.87-20.22,11.93-1.68.22-3.38.33-5.04.33-.69,0-1.38-.02-2.06-.06-2.04,1.15-4.2,2.12-6.47,2.92-3.21,1.12-6.55,1.69-9.94,1.69Z"/>
    <path class="cls-7" d="M472.4,173.29c-3.58,0-7.18-.48-10.68-1.42-14.49-3.91-28.38-18.24-24.63-40.48.04-.23.08-.46.12-.68-1.13-2.43-2.01-4.95-2.62-7.52-2.04-8.54-.24-17.52,4.94-24.62,5.18-7.1,13.17-11.56,21.93-12.24.96-.07,1.94-.11,2.9-.11,4.21,0,8.25.68,12.08,2.04.78-.11,1.57-.2,2.36-.26.76-.06,1.51-.08,2.26-.08,10.39,0,19.9,5.26,25.42,14.07,5.47,8.73,6.83,18.51,3.99,28.04,1.96,12.71-2.2,24.85-11.63,33.24-7.3,6.48-16.68,10.05-26.43,10.05Z"/>
    <path class="cls-7" d="M541.77,176.35c-6.52,0-12.97-2.17-18.16-6.12-9.26-7.04-13.64-18.94-11.15-30.3.39-1.79.75-3.85,1.13-6.03,1.33-7.63,2.98-17.07,7.86-26.84,5.11-10.23,15.39-16.59,26.83-16.59,2.3,0,4.61.27,6.86.8,20.13,4.73,29.96,26.32,32.49,32.83,7.02,18.04,2.66,30.38-2.23,37.56-5.59,8.21-14.86,13.11-24.8,13.11-2.38,0-4.73-.28-7.01-.83-3.73,1.59-7.77,2.43-11.82,2.43Z"/>
    <path class="cls-7" d="M456.34,136.45c-4.54,0-9.02-1.06-13.07-3.01-1.58.26-3.19.39-4.79.39-2.17,0-4.35-.24-6.47-.7-10.07-2.22-18.19-9.33-21.72-19.01-1.92-5.27-3.93-14.25.82-31.34,1.98-7.11,5.5-17.02,11.06-23.9,5.72-7.08,14.22-11.14,23.33-11.14,2.37,0,4.74.28,7.04.84,14.49,3.5,21.34,15.69,23.59,19.7,2.55,4.53,14.94,28.11,8.79,47.33-3.31,10.34-11.98,18.1-22.63,20.26-1.95.39-3.95.6-5.94.6Z"/>
    <path class="cls-7" d="M426.77,133.44c-9.86,0-19.34-4.65-26-12.76-5.03-6.13-9.21-12.59-12.44-19.2-7.21-14.79-4.06-30.72,8.66-43.68,0,0,.38-.39.48-.49l.07-.08c7.52-8.45,16.39-12.72,26.38-12.72,5.28,0,13.21,1.29,21.01,7.44,6.45,5.08,10.52,12.65,11.29,20.74,3.13,5.84,4.25,12.59,3.11,19.25-.21,1.22-.49,2.43-.82,3.62.16.8.29,1.61.4,2.42,1.04,7.88-1.03,15.71-5.83,22.05-6.46,8.53-16.05,13.42-26.32,13.42Z"/>
    <path class="cls-7" d="M523.08,176.94c-5.4,0-10.71-1.46-15.35-4.23-16.62-9.9-17.02-29.49-17.15-35.92-.12-5.77.26-16.9,4.11-26.51,4.08-10.19,13.39-17.33,24.29-18.63,1.8-.21,3.63-.32,5.44-.32,18.58,0,34.03,10.94,38.45,27.21,2.2,8.12,3.6,23.24-9.88,37.12-3.07,8.1-8.79,14.35-16.75,18.23-4.08,1.99-8.63,3.04-13.16,3.04Z"/>
    <path class="cls-7" d="M602.46,167.97c-4.83,0-9.65-1.19-13.94-3.44-8.68-4.56-14.97-12.82-17.72-23.26-2.76-10.47-2.86-27.54,5.91-41.15,4.64-7.2,12.15-12.08,20.61-13.39,1.52-.24,3.07-.36,4.61-.36,6.95,0,13.73,2.44,19.09,6.86,11.63,9.6,13.93,24.12,14.26,31.92.35,8.13-.73,23.4-11.83,34.26-5.64,5.52-13.09,8.56-20.99,8.56Z"/>
    <path class="cls-7" d="M600.96,180.23c-10.88,0-20.61-4.97-26.69-13.64-6.2-8.83-7.54-20.08-3.65-30.84,2.18-6.03,6.32-11.3,11.67-14.84,5.73-3.79,12.24-5.8,18.82-5.8,5.71,0,14.18,1.48,22.12,8.54,3.2,2.84,5.7,6.26,7.45,10.16,4.66,10.4,3.95,22.14-1.9,31.39-5.79,9.16-15.89,14.77-27.02,15.02-.27,0-.53,0-.79,0h0Z"/>
  </g>
  <g>
    <path class="cls-6" d="M281.36,549.03c.62,16.98,4.46,33.47,7.68,50.05,1.8,9.27,3.9,18.49,5.34,27.81.97,6.24.69,12.57-2.8,18.26-.8.17-1.94.07-2.33.56-3.89,4.86-6.4,10.46-8.35,16.32-.51,1.53.69,2.02,1.95,2.24-1.8,5.7-3.6,11.4-5.4,17.1-1.01,3.18-1.8,6.37-1.84,9.75-.14,11.01,4.14,15.75,15.07,15.98,11.99.25,23.85,1.78,35.74,3.02,1.68.18,3.32.29,4.81,1.74.66,2.03,1.15,4.24-.56,6.32-1.13-.1-2.25-.19-3.17-.27-1.21-1.36-.56-3.27-2.71-4.52-7.06-1.77-14.79-1.33-22.58.16-3.68,5.61-2.76,12.5-5.25,18.31-6.96-.94-13.66.3-20.32.77-3.24.23-7.77-.59-9.94,3.62-3.8.09-7.67-.22-11.4.35-6.5,1-11.69-.6-15.49-5.94-.55-4.18-.27-8.05.97-11.93,1.51-4.71,2.68-9.52,2.9-14.5,1.91,2.35.89,5.12.88,7.66,0,4.78,1.79,7.96,6.51,9.23,1.41-.47,2.77-.92,4.21-1.4,2.46,4.2,3.14,9.76,9.04,10.38,2.43.25,3.98-1.25,4.18-3.8-8.37-4.49-7.05-13.03-8.39-20.11-2.92-1.79-4.83-.8-6.09,1.53-1.09,2.03-1.25,4.63-4,6.46-.81-5.91.44-11.48-2.1-16.48-2.07-.34-2.01,1.99-3.32,2.55,1.72-14.1,2.11-28.39,5.17-42.28,1.12-5.1.85-10.99,5.48-14.9,2.53,2.44,2.53,7.02,6.88,8.01,1.47-.17,2.75-.88,4.25-2.25.99-4.74,2.15-9.91,4.85-14.47,3.01-5.09,3.53-10.73,3.29-16.3-.22-5.06-2.5-9.65-5.87-14.47-.6,1.51-.84,2.09-1.07,2.67-3.33-1.6-2.97-5.32-3.98-7.95-3.43-9.05-6.15-18.38-8.83-27.69-.56-1.93.02-4.28.41-6.37.97-5.15.69-10.22-.78-15.18-.56-1.89-1.26-4.23-4.75-3.36,1.58,6.37,3.43,12.65-.95,18.44-1.07-9.55-5.05-14.75-13.65-16.44-5.94-1.17-12.87-1.39-15.04,4.68.35,1.36,1.45,1.66,2.64,1.83-.65,13.41-4.01,26.23-8.93,38.62-7.14,17.96-9.82,36.32-7.37,55.64,1.66,13.08-.47,26.18-2.03,39.22-1.21,10.1-1.46,20.16,1.05,30.18,1.43,5.74,2.87,11.68-.42,17.39-2.61-1.65-5.69.49-8.31-1.05,1.43-1.93,3.88-.3,5.5-1.58,2.39-2.64,3.66-5.44,1.57-8.68-16.78.57-33.28.71-48.94-4.99-1.25,2.05.16,3.2-.1,4.48-13.8-5.74-25.97-13.53-34.05-26.85-.75.21-1.68.48-2.62.75,1.24-4.89,4.72-8.18,8.48-11.04,2.52-1.92,5.04-.02,7.31,1.29,8.69,5.03,18.03,7.2,28.05,6.57,4.01-.25,7.79-1.05,10.9-3.81.18.87-.16,1.92.95,2.56,1.1.44,1.96-.45,2.94-.83.65,2.14-2.27,4.38.13,6.41,1.44,1.2,1.9-1.21,3.46-.63.35,3.51,4.71,3.28,5.63,5.48,1.71,1.39,3.19-.49,4.25,1.06,1.53,2.5,1.21,5.58,2.7,8.2,2.75-10.72,2.05-21.41,1.19-32.59-4.02.97-7.36-.13-9.68,2.52-.93-.69-.57-2.02-1.82-1.9-1.33.46-.54,2.73-2.59,2.76-.12-1.1-.24-2.21-.37-3.33-.06-6.64.58-13.31-.96-19.88,1.38-.21,3.08.52,4.03-1.58-.3-1.55-.65-3.31-.97-4.95.74-1.47,1.39-2.78,2.38-4.77-8.29-11.03-.52-23.75-3.26-34.98,1.61-1.63,2.76-2.79,3.52-3.57.61-3.95-.08-7.45,2.37-10.17,4.86,4.22,4.82,10.17,5.32,15.81,1.9,1.34,3.61,2.54,6.24,4.39-.34-8.35,3.76-14.51,6.59-21.1,1.55-3.6.52-6.36-1.62-8.41,6.09-9.16,9.75-18.46,8.76-30.4.31-1.48,2.88-3.79.87-7.17-5.05-.31-6.06,3.86-6.97,7.26-1,3.73-3.06,6.49-5.41,9.22-1.6.41-3.02-1.15-4.46-.11-2.83,5.67-1.89,9.76,3.42,13.94-.36,1.54,1.72,2.87.89,4.82-1.32.07-2.05-1.57-3.9-.45-1.78.71-2.36,3.17-3.83,5.24h-5.89c.11-2.81-.31-5.3-3.89-6.02-1.79.74-2.89,2.45-4.36,3.72-1.71,1.47-.79,4.78-3.81,5.25.15-.97.17-1.98.46-2.92,2.06-6.8,5.29-13.26,7.06-20.04,1.86-7.14,3.25-14.45,4.99-21.67,1.15-4.76,1.31-9.89-1.59-14.44,4.39.63,8.77,1.45,13.18,1.83,3.4.29,7.49,1.56,9.11-4.29-5.69-4.79-12.75-4.13-18.94-4.61-2.09-.58-2.71-2.72-4.65-2.5-2.13,1.02-2.76,2.78-2.61,4.94-4.09-3.23-10.02-2.79-13.83-6.52.54-4.02,2.25-7.1,4.69-9.83,1.3.95,2.6,1.91,3.91,2.86h4.43c3.54-2.08,5.04-5.55,7.79-7.81,1.01,3.88-2.2,7.66-.43,11.52,1.8.66,3.13.68,3.45-1.48,4.1-1.63,3-6.67,5.93-9.06h3.04c.2,1.1-.37,2.32.75,3.5,1.5-1.03,2.52-2.43,3.59-3.92,4.49-6.28,6.08-13.91,9.76-20.55,1.71,2.44.72,5.06.61,7.65-.4,9.15-2.43,17.95-5.82,25.98,1.26,2.21,2.49,3.51,4.03,4.18,3.23.54,6.15.11,9.03-.81,1.66,1.06,2.64-.02,3.72-1.09,1.24-1.23,2.23-2.89,4.31-2.92-1.35,5.03-1.2,10.08-.55,15.13,3.91,1.54,6.55,1.11,7.62-3.02,1.04-2.09,1.8-4.2,2.07-6.59.69-6.08,1.65-12.13,2.6-18.18,2.17-13.74,4.4-27.48,6.61-41.22,1.25-.39,2.18-.88.62-2.1.09-2.31.19-4.62.28-6.93,1.7-.37,1.79-1.66,1.79-3.04-.03-5.89.3-11.76-1.6-17.56-.86-2.62-2.5-5.57-.4-8.48,1.36.14,2.71.28,4.07.42.33,8.88-1.12,17.83.93,26.66-.31.77-.87,1.53-.89,2.31-.22,11.78,2.34,23.4,2.04,35.19-.02.93.93,1.27,1.8,1.4.38,4.14-.51,8.19-.9,12.28-.99,10.25,1.39,20.32,2.21,30.47.24,2.99.89,6.9,5.48,7.96.13-1.81.23-3.27.33-4.73h3.99c3.82-2.49,4.49-5.72,5.12-9.57,1.02-6.33.34-12.54-.33-18.69-.84-7.61-.06-15.28-1.02-22.79-2.47-19.32-1.38-38.93-4.94-58.14,3.01.64,6.24-.35,9.13,1.21.32,1.61,1.01,3.26.9,4.84-.47,6.32,1.01,12.51,1.07,18.78.01,1.48-.21,3.11,1.88,3.47-.02,6-.05,11.99-.07,17.99-3.11-3.5-2.86-8.06-3.75-12.23-1.74-8.09-2.54-16.32-2.52-24.63-.5,9.59-.92,19.15,1.25,28.61,2.41,10.52,4.34,21.17,3.14,31.98-1.01,9.1,1.31,17.61,3.3,26.22.65,2.82,2.21,5.31,5.84,5,.67,1.31,1.33,2.62,2,3.93.27,1.27.54,2.55.81,3.82-3.07.18-6.16.23-9.2.61-1.23.15-2.49.93-2.56,2.54-.09,1.9,1.25,1.98,2.62,1.99ZM287.49,625.75c0-1.19.19-2.38-.03-3.47-1.84-9-2.19-18.25-4.96-27.09-2.32-7.42-3.13-15.25-5.86-22.57-1-2.68-2.19-5.11-6.24-6.56-1.87,14.56,6.16,27.24,4.99,41.61-1.09,13.51,3.46,27.57,1.33,41.1,2.33,1.7,3.81,1.66,5.7-.1-.09-6.52,1.77-13.3,1.16-20.39,1.32-.85,2.52-1.63,3.9-2.52Z"/>
    <path class="cls-4" d="M379.19,166.51c-12.61,11.1-42.88,23.77-47.51,19.45,9.86-8.71,17.36-18.97,20.22-32.34-2.65-4.59-6.63-8.21-9.73-12.5-14.69-20.38-13.73-42.96,3.65-60.65,14.19-14.44,31.03-24.51,49.97-31.06,14.44-4.99,28.87-10.07,43.75-13.75,17.75-4.38,35.56-6.94,53.88-5,9.94,1.05,19.95-.65,29.94.27,30.69,2.83,60.9,7.97,88.42,22.6,18.2,9.68,30.35,24.49,32.49,46.07,2.47,24.84-6.44,44.61-27.02,58.34-11.62,7.75-24.91,12.61-38.4,16.48-19.08,5.46-38.42,9.01-58.36,10.01-22.53,1.12-44.9.87-67.32-1.67-22.63-2.56-44.41-8.42-65.99-15.33-3.53-1.13-3.5-1.21-8.01-.91ZM344.84,179.37c9.96-3.8,20.53-6,28.47-13.44,4.69-4.4,9.36-6.6,15.72-3.69,3.15,1.44,6.67,2.05,9.99,3.16,28.18,9.39,57.23,13.48,86.81,14.35,11.82.35,23.62-.45,35.42-.85,24.74-.83,48.46-6.26,71.48-14.84,8.06-3,16.22-6.39,23.23-11.46,16.44-11.9,24.07-28.16,23.25-48.6-.86-21.3-11.75-36.16-29.78-45.7-26.51-14.02-55.55-19.08-85.08-21.86-10.33-.97-20.68.69-30.95-.44-9.19-1.01-18.29-.68-27.42.21-23.78,2.34-45.94,10.8-68.42,18.04-16.88,5.43-32.09,13.71-45.06,25.92-5.98,5.63-12.66,11.57-14.83,19.16-3.23,11.29-2.22,23.23,4.06,33.81,3.9,6.56,8.94,12.34,13.99,17.05-1.24,11.03-5.49,20.12-10.86,29.18Z"/>
    <path class="cls-6" d="M286.7,212.21c-2.72,11.65,1.18,22.3,5.46,32.71,1.53,3.71,5.48,5.73,9.35,7.05,18.17,6.2,31.53,18.12,40.92,34.61,3.73,6.54,7.93,12.65,12.93,18.27,14.26,16.07,21.85,35.97,31.17,54.86,4.7,9.54,8.26,19.59,11.2,29.83,2.33,8.12,7.19,14.93,11.15,22.22,1.53,2.8,3.06,5.73.07,8.62-2-2.04-4.23-1.29-6.46-.56-4.24,1.39-8.45,2.89-12.92,3.42-.36-3.65-2.24-6.53-4.64-9.15-.15-2.71-.35-5.41-1.57-7.9,2.26-.42,4.3,1.52,6.61.62,2.73-.1,5.34,2.59,8.36.63-1.3-4-4.94-3.73-7.93-5.07-.27-2.95-3-4.18-4.87-6.14,2.26-3.49,1.82-7.25,1.08-11.03,1.83-1.81,1.49-4.39.84-6.1-1.77-4.66-2.6-9.54-3.95-14.28-2.4-8.46-8.44-15.25-10.33-24.07-1.75-8.18-6.17-15.26-12.46-21.09-2.65-2.46-4.94-5.38-6.98-8.38-8.79-12.94-18.25-25.42-26.6-38.68-2.41-3.83-6.03-6.98-8.96-9.03-2.82-.72-4.23,1.04-6.62.01-2.13-4.73-6.39-6.72-12.11-6.77-2.02-.02-5.07-.12-6.11-2.64-1.56-3.76-5.28-4.69-7.61-6.82-2.86-.5-4.92.69-7.06,1.38-1.71,3.22-3.91,6.16-2.42,10.21-2.59.18-4.71.32-7.01.48-.61,1.62-1.17,3.14-1.74,4.66-.22,1.83,2.83,2.44,1.4,4.85-12.29-1.38-24.79-.95-37.28.2,1.56-2.9,6.17-3.47,5.58-7.53,2.33-1.59,4.84-2.3,6.28-4.97-4.55-3.26-10.15.1-14.9-2.4,1.71-4.86,7.72-4.99,10.19-10.06-7.31.25-13.81-.22-20.42.46-3.3.34-6.13,3.56-9.72,1.53,7.36-6.51,16.58-7.2,25.71-8.19.51,1.33.07,3.12,2.32,3.97,2.86-1.16,6.05-.17,9.27.34,3.93.62,7.87,1.71,11.8,1.65,5.14-.07,10.14,2.25,15.33.63,2.45-.76,4.53-1.56,2.88-5.16-9.56-.87-19.27-1.75-29.28-2.66-1.09-.68-2.46-1.54-3.84-2.4.52-1.53,1.54-2.56,3.05-3.1,1,.61,1.35,2.49,3.86,1.25,2.02-4.46,3.4-9.73,4.14-15.2,2.4.51,4.78,1.29,7.2,1.47,5.04.37,10.35,1.82,14.62-2.48,1.09-.73,1.18-1.89,1.3-3.04,5.51-2.4,1.15-6.58,1.85-10.24,1.56-1.86,3.09-4.15,3.33-6.57,2.17-2.39,4.83-2.06,7.14-2.62,1.6-1.5,3.44-2.69,3.95-4.06.87-4.23-3.95-4.96-3.53-8.31.28-.13.57-.23.88-.29,2.26.12,4.14-.66,5.56-2.26,1.14-2.39-.25-5.03,1.13-7.27,1.74-.5,3.46-.98,5.17-1.47,4.02,8.53,4.84,17.19,1.04,26.03-6.38,1.03-10.71,5.57-15.48,9.26-1.82,1.41-4.23,2.85-4.09,5.69.74,1.23,1.82.99,2.78,1.11ZM236.81,250.31q4.1.74,4.08-2.78c-1.69.14-3.1.7-4.08,2.78Z"/>
    <path class="cls-2" d="M289.71,181.42c-.42,3.35,4.4,4.08,3.53,8.31-.51,1.37-2.35,2.56-3.95,4.06-2.31.55-4.97.22-7.14,2.62-.24,2.42-1.77,4.71-3.33,6.57-.7,3.66,3.65,7.84-1.86,10.24-4.67-2.99-10.05-3.77-15.29-4.99-.22-1.58.46-3.33-1.01-4.52-6.7-3.93-15.35-5.63-16.98-16.09,1.7-7.03,9.07-3.72,13.67-6.27.08-.65.18-1.45.27-2.25.9-.36.97-1.17,1.05-1.97,1.9.97,3.79,1.98,5.79-.01-.35-3.33-1.34-6.35-3.48-8.93-1.35-1.62-2.77-3.01-4.79-.82-5.67-.12-2.64,5.26-4.98,7.07,1.37,1.66,4.04-1.76,4.41,1.73-4.16,1.61-7.75,5.45-12.81,3.48-1.25-1.35-2.02-2.77-2.18-4.49.03-.64.06-1.28.08-1.92.33-.33.66-.66,1-.98.35-.32.7-.63,1.04-.95.14-.2.28-.4.53-.74-.36.23-.56.37-.76.51-.32.34-.64.69-.96,1.03-.33.33-.66.66-.99.99-.95.42-1.66,1.06-1.93,2.11h.02c-2.02-.27-1.99-1.77-2.01-3.28-.02-2.27-.09-4.55-.14-6.82-.12-3.4,3.41-2.36,5.02-4.02-1.3-4.55-5.02-2.27-7.67-2.79,4.49-7.91,12.46-11.41,17.63-14.68,20.97-1.4,38.6.59,48.48,19.85-.39,1.88.49,3.04,2.12,3.79.12.96.23,1.92.35,2.88-1.72.49-3.43.98-5.17,1.47-1.38,2.24.01,4.89-1.13,7.27-1.42,1.6-3.3,2.38-5.56,2.26-1.5-6.45-7.63-9.14-11.31-13.83-1.68-2.14-3.65-4.28-6.74-4.53.04-1.87.07-3.74.11-5.61,3.33-.13,7.39,3.16,9.94-2.27-4.68-3.64-12.61-1.32-14.42-9.01-3.55,2.25-2.2,4.92-2.38,7.2-2.42,1.27-6.03.18-7.6,3.79,1.82.26,3.39.48,5.1.71-.4,2.15-.84,4.09.45,5.84-.01,1.38.72,2.24,1.93,2.76-.21,1.78-.41,3.56-.64,5.52.79,1.03,1.68,2.2,2.54,3.32,0,2.1,0,4.08,0,6.05-2.26.85-5.88-.32-5.85,3.94-4.81-.13-8.89,3.27-13.82,2.7,5.89-.32,11.65,3.22,17.51.43,1.42-.33,2.83-.66,4.25-.99.33,0,.67.01,1,.04.94,4.59,10.15,6.63,14.67,3.19-1.45-4.42-6.12-2.1-8.69-4.13.19-.86,1.17-1.59.52-2.5-1.23-.9-2.35-1.73-3.48-2.55.37-1.05.73-2.09,1.1-3.14,1.27.78,2.52,1.66,4.5.6,1.17-.21-.44-2.62,1.46-2.81,2.65.85,3.77,3.12,5.12,5.19-1.62.29-3.67,0-3.83,2.85,2.41.24,4.09-.12,4.6-2.63,1.03.07,2.06.14,3.1.21ZM251.61,165.13c-.84-.01-1.57.18-2.01.98-2.1-.06-3.8.45-4.13,2.91-.12.2-.25.41-.43.71.3-.18.51-.3.72-.42,1.31-1.02,3.17-1.36,3.94-3.08.82-.03,1.57-.2,1.97-1.04.17-.11.33-.22-.17.11.33-.49.22-.33.11-.16ZM258.02,198.14c5.57.95,10.36,1.77,15.76,2.69-.36-5.96-5.39-4.87-8.07-6.81-2.29,1.27-5.19.41-7.69,4.13ZM251.63,146.97c-3.37,1.43-6.7,2.99-6.84,7.36-.06,1.9,1.15,3,3.39,2.45.7-1.89.37-4.4,3.58-5.45,1.04-.05,2.72,1.76,4.65.08-.63-2.36-2.32-3.64-4.78-4.44ZM293.61,169.89c-2.58-4.04-4.46-6.88-9.37-7.92,2.35,3.99,3.59,7.46,9.37,7.92Z"/>
    <path class="cls-8" d="M176.63,692.06c-.98.38-1.84,1.27-2.94.83-1.11-.65-.77-1.69-.95-2.56,3.67-9.15,3.87-18.47,1.27-27.89-4.59-16.61-7.57-33.41-6.26-50.74.92-12.21,4.04-23.83,8.47-35.27,3.71-9.58,5.45-19.82,6.89-29.97.86-6.04-3.61-11.15-9.9-13.4-1.41-.5-2.91-.75-4.31-1.25-5.65-2.03-6.8-4.8-4.49-10.41,9.9-23.97,19.21-48.17,29.48-71.99,5.9-13.67,10.33-27.71,6.93-43.09-2.13-9.59-4.53-19.07-7.48-28.43-1-3.17-1.98-6.34-2.97-9.52-.13-3.11-1.09-5.96-2.84-8.53-4.04-11.27-7.23-22.73-9.01-34.61-.78-5.19-2.25-10.44-8.79-13.05-5.36,9.44-13.8,15.83-22.03,22.42.7-4.21,4.96-6.33,6.02-10.33,5.26-4.2,9.94-8.94,13.21-15.11,2.46,0,4.59,0,6.73,0,.93.38,1.85.76,2.78,1.14,2.13,2.35,3.65,4.98,4.77,8.02,2.35,6.42,2.41,13.27,4.25,19.78,3.47,12.23,6.55,24.59,11.99,36.16.25,1.79.43,3.6.75,5.38,1.38,7.73,6.3,14.44,6.45,22.52.8,6.68,2.25,13.29,1.96,20.07,0,1.29,0,2.57,0,3.86-.67,1.68-1.53,3.3-1.97,5.03-3.59,14.25-9.79,27.5-15.48,40.96-5.16,12.22-11.14,24.14-14.45,37.08.27,2.63-1.61,4.57-2.19,6.93-2.44,2.73-4.15,5.81-4.69,9.83,3.82,3.73,9.74,3.29,13.83,6.52,1.3,1.54,2.6,3.09,3.9,4.63,2.9,4.55,2.74,9.68,1.59,14.44-1.74,7.22-3.13,14.53-4.99,21.67-1.77,6.78-5,13.24-7.06,20.04-.28.93-.31,1.94-.46,2.92-5.88,21.78-3.33,43.05,3.95,64.02,1.54,6.57.9,13.24.96,19.88-3.95,3.28-2.55,7.86-2.9,12.01Z"/>
    <path class="cls-6" d="M117.49,173.2c-.45,9.9-1.79,19.72-2.99,29.25,3.83,3.21,6.5,1.99,9.21-.62,3.68-3.55,7.15-7.61,12.97-7.55-3.75,6.43-9.06,11.72-13.72,17.39-5.55,6.76-11.31,13.59-18.95,18.6-4.29,2.82-9.69,3.15-13.33,6.93-.86-1.97-1.19-4.95-2.68-5.75-7.08-3.79-8.61-11.57-13.36-17.44,0-4.86.19-10.02-.07-15.17-.18-3.56,1.19-7.29-.92-10.69.25-1.7-.7-3.65,1.07-5.02,7.42,2.05,8.75,1.05,8.95-6.62.04-1.66-.8-3.83,1.88-4.43.38,3.95,2.72,7.49,2.25,11.4,1.44,1.69,2.42,3.54,4.76,3.61.27,1.76-.37,3.67.9,5.26.99,1.25,2.23,2.1,3.85,1.66,2.78-.75,3.88-3.05,4.22-5.56.52-3.89.95-7.78,2.19-11.87,3.79.69,4.37-3.2,6.83-4.5-1.27,6.11-4.16,12.05-2.16,19.25,3.89-4.91,5.43-10.11,7.08-15.25.39-1.22.13-2.77,2.02-2.89Z"/>
    <path class="cls-5" d="M208.62,246.14c3.59,2.03,6.42-1.19,9.72-1.53,6.61-.68,13.12-.21,20.42-.46-2.47,5.07-8.48,5.2-10.19,10.06,4.76,2.5,10.35-.86,14.9,2.4-1.44,2.67-3.95,3.38-6.28,4.97.59,4.05-4.02,4.63-5.58,7.53-7.73.36-15.48.48-23.18,1.19-4.02.37-8.26.52-11.87,2.86-2.14,0-4.29,0-5.94,0-3.81,2.49-4.11,6.6-6.48,9.42h-9.24c-5.23,3.91-5.47,9.68-5.28,15.6-3.32.64-6.39,2.76-9.74,1.37-2.9,2.77-5.53,5.28-9.76,5.38-1.35-3.9.85-7.23.92-10.97,7.72-6.12,13.31-14.26,20.33-21.05.89-.86,1.66-1.79.14-2.81,6.29-5.75,13.36-10.37,20.94-14.19,5.65-2.85,11.04-6.08,16.18-9.75Z"/>
    <path class="cls-8" d="M255.23,643.03c-4.63,3.92-4.35,9.8-5.48,14.9-3.06,13.9-3.44,28.18-5.17,42.28-.31,1.33-.61,2.66-.92,3.99-.22,4.98-1.39,9.8-2.9,14.5-1.25,3.88-1.53,7.75-.97,11.93,3.8,5.35,8.99,6.94,15.49,5.94,3.73-.57,7.59-.26,11.4-.35,9.78-.33,19.34,1.53,28.98,2.79,8.75,1.14,16.87-.36,23.07-7.38,2.67-3.02,5.15-6.2,8.01-9.67.51,1.2.76,1.78,1.01,2.37-5.71,13.9-15.85,19.79-30.71,18.26-8.73-.9-17.45-1.5-26.28-1.57-7.85-.06-15.87-.28-23.75-1.1-9.11-.95-14.28-7.05-11.89-15.41,5.81-20.32,6.26-41.37,9.44-62.03,1.2-7.76,2.56-15.53,6.07-22.56,6.95-13.92,7.18-28.12,2.8-42.68-3.54-11.77-7.16-23.5-9.79-35.53-1.55-7.1-6.19-10.39-13.11-10.82-3.27-.21-5.85.75-7.89,3.27-1.19-.16-2.28-.46-2.64-1.83,2.17-6.07,9.09-5.84,15.04-4.68,8.6,1.69,12.58,6.89,13.65,16.44-.01,2.49-.05,4.99-.03,7.48.02,2.3-.82,5.34,1.24,6.58,3.87,2.34,4.15,6.09,5.08,9.68,1.7,6.55,3.22,13.17,6.61,19.14-1.65,1.67-.94,3.78-.94,5.69-.03,6.13.16,12.24-1.89,18.19-1.37,3.99-4.21,7.58-3.52,12.17Z"/>
    <path class="cls-2" d="M90.68,237.21c3.65-3.77,9.04-4.11,13.33-6.93,7.64-5.01,13.4-11.84,18.95-18.6,4.65-5.67,9.97-10.96,13.72-17.39.67-.33,1.33-.66,2-.99,3.83,1.14,7.74-1.34,11.72.37,1.76,1.3,3.58,2.77,3.24,5.54-.92,2.33-2.16,4.57-1.95,7.2-.64,1.24-1.59,2.16-2.82,2.8-2.05-.37-3.33.85-4.82,2.02-9.22,7.21-16.53,16.31-24.51,24.74-2.52,2.67-5.19,5.71-4.72,9.99-5.42.35-10.92,1.51-16.35-1.65-1.3,2.33-3.94.73-5.83,1.85-.98-1.01-1.97-2.02-2.95-3.02.33-1.98.66-3.95,1-5.93Z"/>
    <path class="cls-6" d="M171.5,270.08c1.52,1.01.75,1.95-.14,2.81-7.01,6.8-12.6,14.93-20.33,21.05-.06,3.74-2.27,7.08-.92,10.97,4.23-.1,6.86-2.61,9.76-5.38,3.36,1.4,6.43-.73,9.74-1.37-.1,4.19,2.79,7.28,4.02,10.99h-6.73c-3.27,6.17-7.95,10.91-13.21,15.11-3.44-3.62-3.2-8.41-4.07-12.84-.57-2.94-.11-6.3-3.22-8.32-3.53,1.17-4.56,3.78-4.79,6.95-.29,4.02.49,7.88,1.3,11.81.81,3.93,3.03,7.88.75,12.04-1.77.29-2.72,1.77-4.03,2.75-6.04,4.54-10.71,10.91-18.16,13.55,3.22-9.36,6.33-18.75,9.68-28.06,2.12-5.88,4.35-11.72,5.61-17.86.59-.39,1.05-.81.23-1.59-.18.5-.33.94-.49,1.37-1.3,1.7-2.6,3.4-3.9,5.1-2.77-.45-2.22-2.58-1.73-4.16.59-1.92.75-3.8.71-5.75,10.31-2.42,16.55-10.72,24.24-16.89,5.18-4.15,9.98-8.75,15.65-12.28Z"/>
    <path class="cls-3" d="M295.62,443.14c.02,10.5,2.44,20.73,3.52,31.11,2.2,21.13,5.96,42.02,9.97,62.87.43,2.22.05,4.23-1.31,6.04-4-.52-7.84,1.96-11.88.64-.25-2.14,2.18-2.77,2.76-5.41-.13-4.09-1.15-8.68-4.77-12.37-.04-.96-.07-1.92-.11-2.88.91-2.23,2.12-4.5-.97-6.08,0-.63-.02-1.25-.03-1.88,1.65-9.71,1.26-19.48.22-29.16-1.1-10.19-2.92-20.29-3.48-30.57-.34-6.24-1.51-12.48-3.9-18.37,2.98.07,5.96.15,8.94.22.02.31.07.61.15.91-1.41,1.95-1.51,3.66.9,4.92Z"/>
    <path class="cls-8" d="M121.49,350.2c7.45-2.64,12.12-9.01,18.16-13.55,1.31-.98,2.26-2.46,4.03-2.75,0,1.43-.01,2.87-.02,4.3-7.28,6.26-13.75,13.53-23.32,16.72-9.01,3-14.18,1.26-18.26-7.36-5.27-11.15-8.42-23.11-12.71-34.63-13.23-35.52-26.63-70.97-39.97-106.45-.41-1.09-.79-2.19-1.18-3.29,1.75.02,3.49.05,5.23.07,1,2.66,1.31,5.59,3.13,7.92,5.36,15.42,10.59,30.89,16.19,46.23,1.25,3.42,1.19,7.59,4.61,10.06.16,1.31-.11,2.77,1.24,3.68-.02.33-.01.66.02.98.28,3.46.2,7.07,3.77,9.19-.3,2.61,1.21,4.65,2.16,6.87,1.46,5.54,2.55,11.22,4.51,16.58,1.49,4.08,1.08,8.94,4.64,12.23,2.01.18,2.48,1.68,3.03,3.3,1.13,3.35,2.44,6.64,3.68,9.95.72,5.57,3.26,10.41,6.08,15.14,1.6,6.92,4.15,8.76,9.26,6.69,2.31.6,4.05-.52,5.71-1.88Z"/>
    <path class="cls-2" d="M327.76,724.34c-.25-.58-.5-1.17-1.01-2.37-2.86,3.47-5.34,6.65-8.01,9.67-6.2,7.02-14.33,8.52-23.07,7.38-9.63-1.25-19.2-3.12-28.98-2.79,2.17-4.2,6.7-3.39,9.94-3.62,6.65-.47,13.35-1.71,20.32-.77,2.49-5.81,1.56-12.7,5.25-18.31,7.79-1.49,15.52-1.92,22.58-.16,2.15,1.25,1.51,3.16,2.71,4.52.92.08,2.05.18,3.17.27-.54,2.26-1.07,4.52-2.9,6.17Z"/>
    <path class="cls-2" d="M115.78,352.08c-5.11,2.07-7.66.23-9.26-6.69,1.69-3.56,7.42-3.35,7.65-8.3.45-9.68,4.53-18.93,3.41-28.79.75-.27,1.69-.32,1.72-1.43-3.3-4.08-5.19-5.24-9.73-6.01.58-.95,1.15-1.9,1.67-2.75-.21-1.38-.4-2.67-.59-3.95,3.95,1.61,7.89,3.84,11.84,0,2.52.82,4.53,2.97,7.41,2.87.57.74,1.15,1.48,1.72,2.22.03,1.95-.12,3.83-.71,5.75-.48,1.58-1.04,3.7,1.73,4.16-6.44,9.54-10.62,20.11-14.07,31-1.23,3.89-3.53,7.56-2.79,11.92Z"/>
    <path class="cls-6" d="M129.89,297.03c-2.88.09-4.88-2.06-7.4-2.87.03-.64.06-1.28.09-1.91-.38-2.19,1.4-3.62,1.98-5.43-.66-3.41-2.59-5.32-6.05-5.56-.99-.98-1.98-1.97-2.97-2.95.98-1.31,1.96-2.62,2.89-3.87-1.98-14.49,1.74-16.39-15.69-21.13-1.82.83-4.28,1.12-3.81,4.17-.07.89-.13,1.78-.2,2.67-2.23,1.33-4.69,1.01-7.1.99-.18-1.93,2.2-2.87,1.8-5.28-3.27-2.69-1.06-6.27-.78-9.69,1.9-1.12,4.53.48,5.83-1.85,5.43,3.16,10.92,2,16.34,1.65.5.02.99.04,1.49.05-1.08,3.69-.11,7.15,1.03,10.65,3.81,11.67,7.56,23.36,11.29,35.06.55,1.73.85,3.54,1.27,5.31Z"/>
    <path class="cls-2" d="M110.55,172.09c-2.46,1.31-3.04,5.19-6.83,4.5-1.24,4.09-1.67,7.98-2.19,11.87-.34,2.51-1.44,4.81-4.22,5.56-1.63.44-2.86-.41-3.85-1.66-1.27-1.59-.63-3.5-.9-5.26.68-5,1.35-10.01,2.03-15.01.66-8.41,3.71-15.92,8.49-22.8-.73,7.16-2.72,13.99-5.34,20.67-.68,1.73-2.2,3.56,1.08,5.67,6.21-9.69,7.36-20.79,9.8-31.45.66.34,1.32.68,1.99,1.02-.39,3.07.76,5.96,1.07,8.95-1.48,5.26-1.63,10.62-1.09,16.02,0,.64-.02,1.28-.03,1.92Z"/>
    <path class="cls-8" d="M196.62,734.17c2.62,1.54,5.7-.6,8.31,1.05-.74,2.98-3.13,4.51-5.62,3.57-15.59-5.89-32.83-4.96-48.13-12.04-11.77-5.45-22.35-12.38-30.92-22.22-1.85-2.12-3.12-4.3-2.27-7.22.94-.27,1.87-.54,2.62-.75,8.08,13.32,20.25,21.1,34.05,26.85,4.88,3.42,10.63,4.4,16.24,5.79,8.49,2.1,17.46,1.67,25.72,4.97Z"/>
    <path class="cls-8" d="M295.62,443.14c-2.41-1.25-2.31-2.96-.9-4.92,9.69-1.03,19.41-1.84,29.06-3.16,8.31-1.14,16.73-1.68,24.89-3.79,1.16-.08,2.37.01,3.22-1.03,9.68-.94,19.42-1.5,28.66-4.98.74-.04,1.48-.07,2.22-.11,2.54.33,4.43-1.67,6.82-1.92,4.47-.52,8.68-2.03,12.92-3.42,2.24-.73,4.47-1.48,6.46.56-1.62,2.48-4.39,2.99-6.89,3.64-26.28,6.85-52.94,11.54-79.97,14.17-6.79.66-13.58,1.35-20.38,1.95-2.46.22-4.45,1.23-6.1,3.01Z"/>
    <path class="cls-2" d="M51.65,169.16c-4.11-8.69-2.3-17.2,1.54-25.25,3.12-6.53,7.46-6.28,11.68.09-5.29,4.75-3.85,10.74-2.23,16.17,2.74,9.17,4.53,18.35,3.92,27.93-1.62-.07-3.3.4-5.26-.85-.83-2.02-1.94-4.37-1.68-7.11.81-1.32,1.25-2.63.44-4.18-4.28-8.2-5.07-16.93-3.88-25.96.23-1.71-.19-3.21-2.37-4.51-1.12,6.02-3.05,11.58-1.76,17.56.44,2.07,1.21,4.17-.42,6.1Z"/>
    <path class="cls-2" d="M85.54,172.09c-2.68.6-1.84,2.77-1.88,4.43-.2,7.66-1.53,8.67-8.95,6.62-.15-3.55-.29-7.1-.43-10.64-.87-7.55-2.15-15.04-3.35-22.54-1.34-8.41,3.64-16.16,10.67-17.7.3,1.27,1.07,2.64.83,3.8-2.55,12.34,1.43,24.09,3.12,36.04ZM79.87,174.08c2.03-11.99-.1-23.18-3.9-34.2-1.59.68-1.43,2.1-1.46,3.4-.21,8.68,3.54,17.06,1.77,25.93-.31,1.57.36,4.4,3.59,4.86Z"/>
    <path class="cls-2" d="M53.47,203.27c-1.74-.02-3.49-.05-5.23-.07-2.18-2.62-3.83-5.45-3.61-9.03,3.86-.05,3.23-2.53,2.51-4.85-2.85-9.14-8.24-17.31-9.82-27-.51-3.16-3.68-4.97-7.25-5-.79-6.89,4.5-4.31,7.61-5.26,3.76,4.16,5.12,9.2,7.11,13.92-.03,4.86,4.39,7.76,5.45,11.94,2.1,8.28,3.32,16.76,3.23,25.36Z"/>
    <path class="cls-8" d="M236.52,165.09c.05,2.27.12,4.55.14,6.82.01,1.51-.02,3.01,2.01,3.27-2.34,4.51.01,8.69,1.07,12.87,2.57,10.1,12.12,15.43,16.88,24.07.02.65.04,1.31.06,1.96-.9-.07-1.81-.13-2.99-.22.06,1.25.11,2.32.16,3.39-.75,5.47-2.12,10.74-4.14,15.2-2.51,1.24-2.85-.64-3.86-1.25,1.85-5.48,3.56-11,4.17-16.8.33-3.14-.21-6.16-2.77-8.11-11.98-9.14-14.18-22.1-14.35-35.91-.02-1.48-.12-2.97-.19-4.45.62-.61,1.25-1.21,1.87-1.82.38.35.77.7,1.15,1.04.26-.04.53-.06.79-.08Z"/>
    <path class="cls-3" d="M74.28,172.5c.14,3.55.29,7.1.43,10.64-1.77,1.37-.81,3.33-1.07,5.02-1.82.71-2.17,2.54-3.02,3.99-2.69,0-3.01-2.39-4.06-4.04.61-9.58-1.18-18.76-3.92-27.93-1.62-5.43-3.06-11.42,2.23-16.17,3.32,6.34,3.59,13.54,5.75,20.21.93,2.88.91,6.2,3.66,8.29Z"/>
    <path class="cls-3" d="M85.54,172.09c-1.69-11.95-5.67-23.7-3.12-36.04.24-1.16-.53-2.53-.83-3.8,3.07.08,3.62,2.26,4.1,4.68,2.02,10.23,2.16,20.8,5.66,30.74.61,1.72.48,4.18,3.24,4.41-.68,5-1.35,10.01-2.03,15.01-2.33-.07-3.32-1.92-4.76-3.61.46-3.92-1.87-7.45-2.25-11.4Z"/>
    <path class="cls-3" d="M53.47,203.27c.09-8.6-1.13-17.09-3.23-25.36-1.06-4.18-5.48-7.08-5.45-11.94,3.64,1.21,3.15,6.79,7.58,7.17,0,0,.29-.01.29-.01l.28.03c.84,2.87.55,6.46,4.64,7.24,2.68,7.35,2.9,15.15,4.05,22.78-1.87,1.5-.37,3.85-1.88,6.35-.36.57-1.87.95-3.15,1.68-1.82-2.33-2.13-5.26-3.13-7.92Z"/>
    <path class="cls-1" d="M242.8,234.32c1.38.86,2.76,1.72,3.84,2.4,10.01.91,19.72,1.79,29.28,2.66,1.64,3.61-.44,4.4-2.88,5.16-5.19,1.62-10.19-.71-15.33-.63-3.92.06-7.87-1.03-11.8-1.65-3.22-.51-6.41-1.5-9.27-.34-2.24-.85-1.81-2.64-2.32-3.97,2.44-2.11,5.83-1.99,8.47-3.63Z"/>
    <path class="cls-3" d="M111.67,154.14c-.31-2.99-1.46-5.88-1.07-8.95,2.46-2,2.66.59,3.39,1.77,1.13,1.84,1.89,3.98,4.51,4.17.3,6.38.63,12.77-.93,19.06-.12.08-.36.21-.34.25.07.23.21.45.32.67-.02.7-.03,1.39-.05,2.09-1.9.12-1.63,1.68-2.02,2.89-1.65,5.13-3.19,10.33-7.08,15.25-2-7.21.89-13.14,2.16-19.25,0-.64.02-1.28.03-1.93,2.21-3.94,2.46-8.36,3.03-12.69.19-1.47.18-3.08-1.93-3.33Z"/>
    <path class="cls-2" d="M143.67,338.21c0-1.43,0-2.86.02-4.3,2.28-4.16.07-8.11-.75-12.05-.81-3.92-1.59-7.79-1.3-11.81.23-3.18,1.26-5.78,4.79-6.95,3.11,2.02,2.64,5.38,3.22,8.32.87,4.43.62,9.22,4.07,12.84-1.06,4-5.32,6.12-6.02,10.33-1.13,1.44-2.34,2.79-4.02,3.61Z"/>
    <path class="cls-1" d="M30.07,157.31c3.56.03,6.73,1.84,7.25,5,1.57,9.69,6.97,17.86,9.82,27,.72,2.32,1.36,4.81-2.51,4.85-4.54-12.41-11.95-23.68-14.55-36.86Z"/>
    <path class="cls-1" d="M57.58,180.39c-4.1-.78-3.81-4.37-4.64-7.24.9-1.27.31-1.86-.98-2.11-.1-.63-.21-1.25-.31-1.88,1.62-1.93.86-4.04.42-6.1-1.28-5.99.64-11.55,1.76-17.56,2.18,1.3,2.6,2.8,2.37,4.51-1.19,9.03-.4,17.76,3.88,25.96.81,1.55.37,2.86-.44,4.18-.68.08-1.37.16-2.05.24Z"/>
    <path class="cls-1" d="M108.61,144.18c-2.44,10.66-3.59,21.77-9.8,31.45-3.28-2.11-1.76-3.94-1.08-5.67,2.62-6.67,4.61-13.51,5.34-20.67.6-1.32,1.2-2.64,1.8-3.96,1.25-.39,2.49-.77,3.74-1.16Z"/>
    <path class="cls-8" d="M116.3,246.01c-.5-.02-.99-.03-1.49-.05-.46-4.29,2.2-7.32,4.73-9.99,7.97-8.43,15.29-17.53,24.51-24.74,1.49-1.17,2.77-2.39,4.82-2.02-6.33,6.12-12.8,12.12-18.96,18.41-5.36,5.48-9.88,11.66-13.6,18.39Z"/>
    <path class="cls-8" d="M295.92,543.8c4.04,1.32,7.88-1.16,11.88-.63-1.31,4.72-5.17,4.57-8.82,4.4-3.63-.17-7.24-1.02-10.86-1.06-2.41-.03-5.01.37-6.76,2.53-1.37,0-2.71-.09-2.62-1.99.08-1.6,1.34-2.38,2.56-2.54,3.05-.38,6.13-.43,9.21-.61,1.8-.03,3.61-.07,5.41-.1Z"/>
    <path class="cls-8" d="M286.7,212.21c-.96-.12-2.04.12-2.78-1.11-.15-2.83,2.27-4.28,4.09-5.69,4.76-3.69,9.1-8.23,15.48-9.26-.46,3.79-3.47,5.43-6.2,7.24-3.85,2.57-7.83,4.94-10.59,8.81Z"/>
    <path class="cls-2" d="M282.84,664.27c-1.26-.22-2.45-.71-1.95-2.24,1.95-5.86,4.46-11.46,8.35-16.32.39-.49,1.54-.39,2.33-.56-2.04,6.77-5.59,12.85-8.74,19.12Z"/>
    <path class="cls-6" d="M153.64,199.2c.34-2.77-1.47-4.24-3.24-5.54-3.98-1.71-7.89.77-11.72-.37,4.98-3.37,10.58-2.64,15.83-1.58,3.41.69,5.7,3.48,2.94,7.44-1.27.02-2.55.03-3.82.05Z"/>
    <path class="cls-5" d="M108.61,144.18c-1.25.39-2.49.77-3.74,1.16,1.21-4.91,4-6.36,8.01-3.98,3.67,2.17,5.56,5.48,5.61,9.78-2.62-.2-3.38-2.33-4.51-4.17-.73-1.18-.93-3.77-3.39-1.77-.66-.34-1.32-.68-1.99-1.02Z"/>
    <path class="cls-1" d="M236.52,165.09c-.26.02-.53.05-.79.08-.38-.35-.77-.7-1.15-1.04-.62.61-1.25,1.21-1.87,1.82-4.18-3.24-.03-5.23,1.16-7.67,2.65.52,6.37-1.76,7.67,2.79-1.6,1.66-5.14.63-5.02,4.02Z"/>
    <path class="cls-8" d="M153.64,199.2c1.27-.02,2.55-.03,3.82-.05-.78,3.33-3.58,5.04-5.77,7.25-.21-2.63,1.03-4.87,1.95-7.2Z"/>
    <path class="cls-3" d="M187.52,359.84c1.76,2.57,2.71,5.42,2.84,8.53-2.9-2.2-3-5.32-2.84-8.53Z"/>
    <path class="cls-6" d="M302.09,167.24c-1.63-.75-2.51-1.91-2.12-3.79,1.96.56,2.67,1.82,2.12,3.79Z"/>
    <path class="cls-2" d="M51.96,171.04c1.29.26,1.88.84.98,2.11,0,0-.28-.03-.28-.03,0,0-.29.01-.29.01-.14-.7-.28-1.4-.41-2.1Z"/>
    <path class="cls-6" d="M117.54,171.11c-.11-.22-.25-.43-.32-.67-.01-.04.22-.16.34-.25.07.31.06.61-.02.92Z"/>
    <path class="cls-2" d="M348.67,431.27c-8.17,2.11-16.58,2.65-24.89,3.79-9.65,1.32-19.37,2.13-29.06,3.16-.08-.3-.13-.6-.15-.91,1.26-.99,2.98-1.66,2.67-3.75-7.45-4.59-75.15-11.43-88.31-8.44,4.32.87,7.25,1.61,10.22,2.04,7.15,1.04,14.32,1.94,21.47,2.9-.56,2.07-3,2.53-3.99,4.72,2.5,1.97,1.65,4.91,2.08,7.62.56,3.54-2.06,6.04-2.22,9.47-.69,15.05-3.36,29.84-7.04,44.44-2.65,10.54-7.81,20.53-6.88,31.84-2.88.92-5.8,1.34-9.03.81-1.55-.67-2.78-1.97-4.03-4.18,3.38-8.03,5.42-16.83,5.82-25.98.11-2.6,1.1-5.22-.61-7.65,3.85-15.47,7.01-31.05,7.31-47.17-6.78,22.85-11.81,46.23-21.41,68.16-1.01,0-2.03,0-3.04,0,3.06-9.06,6.28-18.06,9.12-27.19,3.38-10.83,7.98-21.34,9.1-32.8,3.34-3.81.96-8.96,3.05-13.07,1.89.1,1.93,2.62,3.79,2.86,2.04-.23,2.73-1.73,3.48-3.48.72-1.68.99-3.94,3.45-4.32-.74,30.21-7.98,59.5-13.45,90.3,4.39-3.3,4.79-7.05,5.43-10.45,3.57-19.01,8.31-37.83,9.69-57.19.58-8.21,1.66-16.5-1.48-24.51-2.73-3.79-6.31-1.75-9.09-1.76-2.1,1.87,1.96,4.61-1.72,5.63-3.82,4.71-2.46,10.8-4.25,16.04-5.44,20.82-13.62,40.67-21.33,60.68-1.03,2.67-3.39,5.08-1.72,8.31-.32,2.16-1.65,2.14-3.45,1.48-1.77-3.86,1.44-7.64.43-11.52,1.65-4.9,5.01-8.88,7.18-13.54,4.71-10.1,7.73-20.79,11.55-31.2,3.68-10.06,7.56-20.18,8.26-31.04.41-6.47-.52-7.18-6.97-7.2-.36-1.01-1.09-1.67-2.06-2.08,0-1.29,0-2.57,0-3.86,4.24-1.45,8.62-1.48,13.04-1.64,7.41-.26,14.64,1.59,22.01,1.58,4.5,2.42,9.42.69,14.13,1.32,7.77,1.05,15.62,1.49,23.18,3.67,2.03-4.64-3.78-7.49-1.56-11.96,5.46,3.09,8,7.49,7.46,13.57,4.38.62,8.51-.11,11.98,2.35,1.4-1.09,3.49-1.06,3.5-3.33-.9-2.03-3.29-1.46-4.59-2.67-1.73-1.6-5.33-2.29-3.22-5.98,1.09.34,2.17.93,3.26.98,6.77.26,13.24,1.2,19.02,5.32,2.5,1.78,4.59.35,5.71-2.58-2.49-2.9-5.51-4.75-8.93-6.01v-12.91c4.79-2.32,9.14-4.65,11.11-9.61.65-.08,1.3-.16,1.95-.23.02.44.05.89.07,1.33-1.91,6.61-7.12,11.01-11.12,15.75.7,3.42,3.13,4.04,5.34,4.55,4.82,1.12,9.1,3.11,12.53,6.74,2.25,2.37,5.07,3.04,8.21,2.74,1.46,4.31,6.02,4.01,9.01,6.05Z"/>
    <path class="cls-3" d="M208.64,428.18c6.44.02,7.38.73,6.97,7.2-.69,10.85-4.57,20.98-8.26,31.04-3.81,10.4-6.83,21.09-11.55,31.2-2.17,4.66-5.53,8.65-7.18,13.54-2.75,2.26-4.26,5.74-7.79,7.81h-4.43c-1.3-.95-2.6-1.9-3.91-2.86.58-2.36,2.46-4.31,2.19-6.93,6.52-5.3,9.99-12.73,12.74-20.22,7.38-20.15,15.32-40.11,21.22-60.78Z"/>
    <path class="cls-3" d="M222.57,528.15c-.93-11.31,4.23-21.3,6.88-31.84,3.67-14.6,6.35-29.4,7.04-44.44.16-3.43,2.78-5.93,2.22-9.47-.43-2.71.42-5.65-2.08-7.62.99-2.19,3.43-2.65,3.99-4.72,1.65.4,3.3.8,4.95,1.19.07,1.71.14,3.42.21,5.14.25,5.57.5,11.14.75,16.71-2.45.88-3.78,2.88-3.8,5.22-.03,4.15-.83,8.21-1,12.31-.45,10.95-2.95,21.5-5.38,32.1-1.66,7.21-5.27,13.89-5.76,21.4-2.07.03-3.07,1.69-4.31,2.92-1.08,1.08-2.06,2.15-3.72,1.09Z"/>
    <path class="cls-2" d="M186.67,593.21h5.89c1.48-2.07,2.05-4.53,3.83-5.24,1.85-1.12,2.58.52,3.9.45.84-1.95-1.25-3.28-.89-4.82-5.32-4.18-6.25-8.28-3.42-13.94,1.44-1.04,2.86.52,4.46.11,2.35-2.73,4.42-5.49,5.41-9.22.91-3.41,1.92-7.57,6.97-7.26,2.01,3.38-.56,5.69-.87,7.17.99,11.93-2.68,21.24-8.76,30.4,2.14,2.05,3.17,4.81,1.62,8.41-2.84,6.59-6.93,12.75-6.59,21.1-2.63-1.85-4.34-3.05-6.24-4.39-.5-5.64-.47-11.59-5.32-15.81-.51-2.32-1.79-4.64.02-6.95Z"/>
    <path class="cls-5" d="M186.67,593.21c-1.81,2.31-.53,4.63-.02,6.95-2.44,2.72-1.76,6.22-2.37,10.17-.76.77-1.92,1.94-3.52,3.57,2.74,11.23-5.04,23.96,3.26,34.98-.99,1.99-1.65,3.29-2.38,4.77.32,1.64.66,3.39.97,4.95-.95,2.1-2.65,1.37-4.03,1.58-7.28-20.97-9.83-42.23-3.95-64.02,3.01-.47,2.1-3.78,3.81-5.25,1.47-1.27,2.57-2.98,4.36-3.72,3.58.72,4,3.2,3.89,6.02Z"/>
    <path class="cls-2" d="M287.49,625.75c-1.38.89-2.59,1.67-3.9,2.52.6,7.09-1.25,13.87-1.16,20.39-1.89,1.76-3.37,1.79-5.7.1,2.13-13.53-2.42-27.59-1.33-41.1,1.16-14.36-6.86-27.05-4.99-41.61,4.05,1.45,5.24,3.88,6.24,6.56,2.73,7.33,3.54,15.15,5.86,22.57,2.76,8.84,3.12,18.1,4.96,27.09.22,1.1.03,2.28.03,3.47Z"/>
    <path class="cls-2" d="M267.53,434.91c3.56,19.21,2.47,38.82,4.94,58.14.96,7.51.18,15.17,1.02,22.79.68,6.14,1.36,12.35.33,18.69-.62,3.85-1.3,7.09-5.12,9.57-1.04,0-2.52,0-3.99,0-.06-1.9-.12-3.81-.18-5.71,3.82-2.58,2.77-6.81,2.9-10.25.36-9.41-.11-18.83-.61-28.27-.96-18.19-.87-36.43-1.2-54.65-.04-2.44-.18-4.81-2.17-7.09-.44.96-.7,1.54-.96,2.11-2.46-2.03-2.91-5.39-5.04-7.63,3.57-.15,6.97.41,10.07,2.31Z"/>
    <path class="cls-2" d="M285.63,437.09c2.38,5.89,3.55,12.12,3.9,18.37.56,10.28,2.38,20.38,3.48,30.57,1.04,9.68,1.43,19.45-.22,29.16-4.9-12.3-9.14-24.78-9.09-38.21.04-10.76-.31-21.43-3.88-32.71-.76,6.96,1.76,12.91.69,18.95-2.1-.36-1.87-1.98-1.88-3.47-.05-6.27-1.53-12.46-1.07-18.78.12-1.58-.58-3.22-.9-4.84,2.98.41,6.15-.91,8.97.97Z"/>
    <path class="cls-3" d="M255.23,643.03c-.69-4.59,2.15-8.19,3.52-12.17,2.05-5.95,1.87-12.06,1.89-18.19,0-1.91-.7-4.02.95-5.69.75,5.91-1.54,12.19,1.96,19.14,3.6-7.12,2.42-13.8,4-19.9.23-.58.46-1.16,1.07-2.67,3.37,4.82,5.65,9.41,5.87,14.47.24,5.57-.28,11.21-3.29,16.3-2.7,4.56-3.86,9.73-4.85,14.47-1.51,1.37-2.78,2.08-4.25,2.25-4.34-.98-4.35-5.57-6.88-8.01Z"/>
    <path class="cls-1" d="M285.63,437.09c-2.82-1.87-5.99-.56-8.97-.97-2.89-1.56-6.12-.57-9.13-1.21-3.1-1.9-6.51-2.46-10.07-2.31-1.25-.01-2.5-.02-3.75-.03-1.36-.14-2.71-.28-4.07-.42-1.13-1.34-2.63-.97-4.07-.89-1.65-.4-3.3-.8-4.95-1.19-7.16-.96-14.33-1.86-21.47-2.9-2.97-.43-5.9-1.17-10.22-2.04,13.16-2.99,80.87,3.85,88.31,8.44.31,2.09-1.41,2.76-2.67,3.75-2.98-.07-5.96-.15-8.94-.22Z"/>
    <path class="cls-2" d="M230.6,524.13c.48-7.52,4.1-14.19,5.76-21.4,2.43-10.6,4.93-21.15,5.38-32.1.17-4.1.97-8.16,1-12.31.02-2.34,1.35-4.34,3.8-5.22.82,6.09.68,12.16-.42,18.19-3.43,18.86-7.04,37.68-10.23,56.58-.44,2.62-2.2,6.34,1.78,8.37-1.07,4.13-3.71,4.55-7.62,3.02-.65-5.05-.81-10.09.55-15.13Z"/>
    <path class="cls-2" d="M267.56,606.22c-1.59,6.11-.4,12.78-4,19.9-3.5-6.95-1.22-13.22-1.96-19.14-3.39-5.97-4.9-12.59-6.61-19.14-.93-3.59-1.21-7.34-5.08-9.68-2.06-1.24-1.22-4.28-1.24-6.58-.02-2.49.01-4.98.03-7.48,4.37-5.79,2.53-12.07.95-18.44,3.49-.87,4.19,1.47,4.75,3.36,1.47,4.97,1.75,10.04.78,15.18-.39,2.09-.97,4.44-.41,6.37,2.68,9.31,5.4,18.64,8.83,27.69,1,2.64.64,6.36,3.98,7.95Z"/>
    <path class="cls-2" d="M176.63,692.06c.35-4.15-1.05-8.73,2.9-12.01.12,1.11.24,2.23.37,3.33,2.05-.03,1.27-2.3,2.59-2.76,1.26-.12.89,1.21,1.82,1.9,2.32-2.65,5.66-1.55,9.68-2.52.86,11.18,1.55,21.87-1.19,32.59-1.5-2.62-1.17-5.7-2.7-8.2-1.06-1.54-2.54.34-4.25-1.06-.91-2.21-5.28-1.98-5.63-5.48-1.56-.58-2.02,1.83-3.46.63-2.4-2.03.52-4.27-.13-6.41ZM179.3,685.64c-.29.49-.55.74-.54.98,0,.35.02,1.13.67.46.18-.19-.06-.79-.13-1.44Z"/>
    <path class="cls-1" d="M280.51,463.21c1.07-6.04-1.45-11.99-.69-18.95,3.57,11.28,3.92,21.94,3.88,32.71-.05,13.43,4.19,25.92,9.09,38.21.01.63.02,1.25.03,1.88-.01,2.08-.95,4.31.98,6.08.04.96.07,1.92.11,2.88-.56,3.78-.19,7.53.57,11.1-.97,2.25-2.51,3.21-4.77,2.95-.67-1.31-1.33-2.62-2-3.93.11-3.32.18-6.64-.55-9.92-.34-10.3-3.15-20.13-5.62-30.02.06-3,.29-6.02-.48-8.98.49-1.43.97-2.86-.55-4.02-.02-.67-.03-1.34-.05-2.02.02-6,.05-11.99.07-17.99Z"/>
    <path class="cls-2" d="M196.62,734.17c-8.25-3.31-17.23-2.87-25.72-4.97-5.61-1.39-11.36-2.38-16.24-5.79.25-1.28-1.15-2.43.1-4.48,15.66,5.7,32.15,5.56,48.94,4.99,2.08,3.24.82,6.04-1.57,8.68-1.62,1.28-4.07-.36-5.5,1.58Z"/>
    <path class="cls-3" d="M200.61,512.13c9.59-21.93,14.62-45.31,21.41-68.16-.3,16.11-3.45,31.7-7.31,47.17-3.68,6.65-5.27,14.27-9.76,20.55-1.07,1.5-2.1,2.89-3.59,3.92-1.12-1.18-.55-2.4-.75-3.49Z"/>
    <path class="cls-2" d="M243.67,704.21c.31-1.33.61-2.66.92-3.99,1.31-.55,1.25-2.89,3.32-2.55,2.53,5.01,1.28,10.58,2.1,16.48,2.75-1.83,2.91-4.42,4-6.46,1.26-2.34,3.17-3.33,6.09-1.53,1.34,7.08.02,15.62,8.39,20.11-.2,2.56-1.75,4.05-4.18,3.8-5.9-.61-6.59-6.18-9.04-10.38-1.43.48-2.79.93-4.21,1.4-4.72-1.27-6.52-4.46-6.51-9.23,0-2.54,1.03-5.31-.88-7.66Z"/>
    <path class="cls-1" d="M237.67,536.24c-3.98-2.03-2.22-5.75-1.78-8.37,3.19-18.9,6.8-37.72,10.23-56.58,1.1-6.03,1.24-12.11.42-18.19-.25-5.57-.5-11.14-.75-16.71,1.3,1.17,1.63,2.72,1.93,4.37,1.23,6.77,1.6,13.62,2.13,20.46-.09,2.31-.19,4.62-.28,6.93-.78.53-.88,1.26-.62,2.1-2.21,13.74-4.44,27.47-6.61,41.22-.95,6.05-1.91,12.1-2.6,18.18-.27,2.39-1.04,4.51-2.07,6.59Z"/>
    <path class="cls-3" d="M264.53,538.39c.06,1.9.12,3.81.19,5.71-.1,1.46-.2,2.92-.33,4.73-4.59-1.06-5.24-4.97-5.48-7.96-.83-10.15-3.21-20.22-2.21-30.47.4-4.09,1.29-8.13.9-12.28.55-2.72-.63-6.42,3.9-6.88.59,13.54,1.57,27.08,1.15,40.65-.07,2.37.2,4.63,1.87,6.5Z"/>
    <path class="cls-3" d="M280.43,481.2c.02.67.03,1.34.05,2.02-1.25,1.53-1.4,2.92.55,4.02.78,2.96.54,5.97.48,8.98-2.2,10.77,2.23,20.3,5.62,30.02.73,3.28.66,6.6.55,9.92-3.63.31-5.19-2.19-5.84-5-1.98-8.61-4.31-17.12-3.3-26.22,1.2-10.81-.73-21.46-3.14-31.98-2.17-9.46-1.75-19.02-1.25-28.61-.02,8.31.79,16.53,2.52,24.63.89,4.16.65,8.73,3.75,12.23Z"/>
    <path class="cls-2" d="M261.5,491.24c-4.53.46-3.35,4.16-3.9,6.88-.87-.13-1.82-.47-1.8-1.4.3-11.79-2.26-23.41-2.04-35.19.01-.77.58-1.54.89-2.31,1.19.36,1.81,1.84,2.98,1.7,1.92-.43,1.96-2.83,3.87-2.84,0,11.05,0,22.11,0,33.16Z"/>
    <path class="cls-3" d="M261.5,458.08c-1.91.02-1.96,2.41-3.87,2.84-1.17.15-1.8-1.34-2.98-1.7-2.05-8.83-.6-17.78-.93-26.66,1.25.01,2.5.02,3.75.04,2.13,2.25,2.58,5.61,5.04,7.64-.06,2.92-.12,5.85-.18,8.77-2.64,1.83-2.04,3.95-.55,6.16-.09.97-.17,1.94-.26,2.91Z"/>
    <path class="cls-2" d="M185.53,537.1c-1.3-1.55-2.6-3.09-3.9-4.63-.15-2.16.48-3.92,2.61-4.94,1.93-.22,2.55,1.93,4.65,2.5,6.19.48,13.24-.18,18.94,4.61-1.62,5.85-5.71,4.58-9.11,4.29-4.41-.38-8.79-1.2-13.18-1.83Z"/>
    <path class="cls-1" d="M191.64,521.19c-1.67-3.23.69-5.64,1.72-8.31,7.72-20.01,15.9-39.86,21.33-60.68.37-.02.74-.04,1.11-.06-1.12,11.46-5.72,21.96-9.1,32.8-2.84,9.12-6.07,18.13-9.12,27.19-2.93,2.4-1.84,7.43-5.93,9.06Z"/>
    <path class="cls-2" d="M289.69,540.08c2.27.26,3.8-.71,4.77-2.95-.76-3.58-1.13-7.32-.57-11.1,3.63,3.68,4.64,8.27,4.78,12.37-.58,2.64-3.01,3.27-2.76,5.41-1.8.03-3.6.07-5.41.1-.27-1.28-.54-2.55-.82-3.82Z"/>
    <path class="cls-2" d="M249.85,461.22c-.53-6.84-.9-13.69-2.13-20.46-.3-1.65-.64-3.2-1.93-4.37-.07-1.71-.14-3.42-.21-5.14,1.44-.08,2.94-.45,4.06.89-2.1,2.91-.46,5.86.4,8.48,1.91,5.79,1.57,11.66,1.6,17.56,0,1.38-.09,2.67-1.79,3.04Z"/>
    <path class="cls-2" d="M248.95,470.25c-.25-.84-.16-1.57.62-2.1,1.56,1.22.63,1.71-.62,2.1Z"/>
    <path class="cls-2" d="M196.56,273.16c3.62-2.33,7.86-2.48,11.87-2.86,7.7-.71,15.45-.83,23.18-1.19,12.49-1.15,24.99-1.58,37.28-.2,1.43-2.41-1.62-3.02-1.4-4.85.57-1.52,1.14-3.04,1.74-4.66,2.3-.16,4.42-.3,7.01-.48-1.49-4.05.71-6.99,2.42-10.21,2.14-.69,4.21-1.87,7.06-1.38,2.33,2.13,6.05,3.06,7.61,6.82,1.04,2.52,4.09,2.62,6.11,2.64,5.72.05,9.98,2.04,12.11,6.77,2.39,1.03,3.8-.73,6.62-.01,2.93,2.05,6.55,5.21,8.96,9.03,8.35,13.26,17.81,25.74,26.6,38.68,2.04,3,4.33,5.92,6.98,8.38,6.29,5.83,10.71,12.92,12.46,21.09,1.89,8.82,7.93,15.61,10.33,24.07,1.35,4.75,2.18,9.62,3.95,14.28.65,1.72.99,4.29-.84,6.1-5.29-12.46-15.86-21.7-20.89-34.33-.4-1.01-1.43-1.77-2.17-2.65-.77-4.42-4.78-6.6-6.96-10.04,3.29-2.36.3-4.44-.71-5.97-4.2-6.31-8.59-12.52-13.32-18.45-4.44-5.58-6.05-13.4-13.28-16.8-3.22,1.92-2.62,5.22-2.71,8.27-1.96.09-3.36-2.13-5.69-1.36-.2,1.61.34,2.87,1.65,4.2,1.53-.62,4.93,1.76,4.04-2.85,1.43-.37,2.86-.74,4.24-1.09,2.63.89,5.43,1.46,4.55,5.09-2.52,3.26-6.45,1-9.75,2.77.52,2.85-.66,5.63-.76,8.56,2.31.55,3.68-.94,5.24-1.66,2-.92,3.49-.84,4.52,1.28-4.2,2.51-5.83,7.52-9.81,10.18-2.3,1.54-3.17,3.61-3.5,6.13-3.17.02-6.46-1.23-9.7.75,1.3,4.3,5.16,3.67,7.94,4.92,1.11-.72,2.07-1.35,3.03-1.98.83.68,1.65,1.37,2.48,2.05-.72,2.79-2.78,4.74-4.4,6.96-2.99-.13-4.95,2.17-7.11,2.84-2.22,2.76.91,4.08.96,5.61-.53,2.75-1.6,4.75-2.88,6.65-1.87,5.5-5.85,9.77-8.55,14.8-.76,1.41-2.35,2.58-.35,4.16-.91,3.2-2.85,6.29-.98,9.76-2.78,3.9-5.91,6.82-11.13,4.12,1.99-5.04-1.73-4.99-4.71-4.87-12.08.47-24.19,2.18-36.2-.12-6.75-1.29-13.11-.31-19.59,1.18-2.41.55-4.91.69-7.37,1.02-.33-3.03,1.1-4.52,4.03-5.21,7.88-1.87,15.54-4.62,23.29-5.22,3.81-2.67,4.15-7.12,6.57-10.07,1.87.12,3.55.48,5.16.26,1.9-.26,3.33.85,4.96,1.39.76-1.49,2.11-2.41,1.91-4.29-14.23-1.42-28.42-2.84-41.47-4.14-5.58,8.98,2.69,10.44,7.3,14.91-5.54-.05-8.97-1.11-10.89-3.33-2.39-4.59.79-8.11-.34-11.73-4.02-2.6-8.43-1.55-12.68-1.66-1.98-.06-3.95-.11-5.93-.17-.45-.97-.9-1.95-1.47-3.16.82-.28,1.57-.54,2.31-.8,1.33,1.57,2.99.96,4.61.72,6.42-.93,12.66-1.15,19.12.83,7.81,2.4,15.98,3.37,24.79,2.14-2.98-1.2-5.54-1.44-8.17-1.74-6.19-.7-12.52-.9-18.23-3.9,3.36-2.16,7.93.17,11.03-2.97,2.59-.51,5.52,1.01,8.11-1.34-.91-2.56-2.92-3.97-4.24-5.1-3.2-1.57-7.06,1.18-8.79-2.76.14-2.06,1.43-3.02,2.89-3.86,2.67-1.42,5.36-2.75,9-1.44,3.25,3.75,8.08,6.47,11.16,10.87,1.56-.94.1-2.74,1.51-3.48,1.93,1.72.93,4.13,1.77,6.59,2.31-5.77,7.8-8.7,10.97-14.82-15.18-2.25-29.81-2.22-44.41-2.68-1.66-.01-3.33-.03-4.99-.04-7.53-2.23-15.45.06-22.99-2.01-.32-.98-.64-1.95-.96-2.93,3.76,1.05,4.58-3.2,7.36-4.06,7.46-2.3,15.09-3.94,22.82-2.76,4.63.71,9.17.59,13.76.77.67,0,1.33,0,2,0,2.32,0,4.64,0,7.18,0,1.88-3.7,5.6-3.64,9.04-4.32-.75-1.3-1.63-2.4-.68-4.1,3.89-.06,2.38-4.99,6-6.06-2.62-1.76-4.63-3.11-6.34-4.26-10.96-.58-21.54-1.76-32.19-1.27.02-.44.03-.88.05-1.33,3.35-1.36,6.85-.55,10.28-.7,4.2-.19,8.44.07,12.54-1.89-1.35-2.53-3.53-3.25-5.59-2.86-4.77.89-9.59.5-14.35.98-2.24.22-4.69.49-6.02,2.86-3.24-.93-6.97,2.74-9.91-1.06.49-1.46,2.44-.38,3.03-1.67-1.81-1.54-4.02-1.12-6.07-1.42.35-.96.69-1.93,1.04-2.89,0,0,0,0,0,0,7.72-2.29,15.78.04,23.83-1.51-.23-6.29-4.79-11.11-4.17-16.86-6.48-1.79-12.44-3.18-18.65-2.66-3.53-2.96-7.65-2.33-11.59-1.53-2.03.41-3.47.53-4.5-1.44ZM306.64,334.9c1.4-6.76-2.63-12.98.52-18.87,2.82.56,2.86,3.19,4.95,3.03,4.98-3.96,5.91-9.36,2.25-14.66-2.22-3.22-4.76-6.22-7.05-9.18-2.33-.13-2.9.93-2.52,2.77,7.36,7.32,8.35,9.3,6.99,13.91-4.24-1.29-13.67-12.87-13.91-17.22,6.71-5.56,13.49-11.17,20.53-17-5.19-3.36-9.4-6.35-14.29-3.02-3.88,2.64-8.03,5.21-10.23,9.88,6.23-.51,9.18-9.13,17.5-6.65-4.61,6.61-10.78,10.09-16.22,14.73-7.99-5.73-11.96-14.8-18.96-20.69-9.72,11.1.8,16.8,4.78,24.01,2.11.38,3.22-.17,3.26-2.14-7.14-7.79-10.74-10.52-7.19-15.99,5.53,5.28,10.1,11.07,14.16,17.79-6.49,6.89-14.5,11.56-21.21,18.32,2.83,1.63,5.31,2.44,6.28,4.88,1.98,4.6-2.17,8.56-1.33,13.97,10.72.08,21.21,3.22,31.67,2.14ZM243.45,285.07c.17,3.5-.09,7.15,3.63,9.75,2.29.02,4.63.98,6.33,3.33,1.89-.85,3.54-1.6,5.31-2.4,1.67-.04,3.45.97,5.62-.06,1.08-.67,2.26-1.81,3.03-3.27.78-8.7-.37-12.2-3.99-12.28-.1,9.96-3.7,15.06-10.27,14.34.51-4.18,1.02-8.36,1.58-12.93-3.19-.05-5.34-1.42-7.02-3.34-4.32-.11-8.56-.68-10.84,3.87,1.3,3.28,4.41,1.25,6.61,2.98ZM202.74,333.94c17.29,1.37,33.54,3.16,50.04.88-.73-4.07-3.18-3.55-5.21-3.55-14.64,0-29.29-.26-44.82,2.67ZM260.89,364.53c9.37,5.38,33.79,7.59,38.34,3.68-2.39-3.27-32-6.3-38.34-3.68ZM270,305.89c2.99-1.34,4.63-3.02,6.65-5.85-7.53.52-14.24-.88-21.9,1.35,5.19,5.24,10.79,2.92,15.25,4.5ZM240.68,273.08c8.94.66,17.51,3.36,26.56,4.06-.95-4.86-9.08-6.12-26.56-4.06ZM271.36,337.76c-2.59-4.11-6.96-4.86-13.16-2.12,4.56,2.01,8.54,3.03,13.16,2.12ZM316.84,286.5c3.33,3.56,5.61,3.67,8.63.36-1.06-1.63-2.66-2.32-4.57-2.66-1.33.76-3.25.52-4.06,2.29ZM289.93,279.19c.93-2.23,4.4-1.19,5.57-4.72-3.37-.33-6.32-.6-9.75.16.78,2.2,1.99,3.39,4.19,4.56Z"/>
    <path class="cls-2" d="M380.55,425.25c-9.23,3.49-18.98,4.05-28.66,4.98-1.68-2.1.36-4.89-1.28-7,1.4-.3,2.79,1.41,4.48-.25,1.12-1.16.16-2.42-.59-3.7,1.66-1.72,3.89-.26,5.84-.75-.55-3.75-6-3.46-5.56-7.57,2.24.36,4.51,2.45,6.67.15.22-2.91-2.97-3.14-3.5-4.93,1.04-4.43,4.17-8.48.31-13.75-1.58,4.04-2.44,7.43-4.16,10.3-1.56,2.61-1.94,4.81-.35,7.35-1.62,0-3.34.43-4.75-1.42-.39-1.75-.84-3.8-1.19-5.36.94-2.57,3.29-2.91,4.45-4.55.82-3.84,4.07-7.17,2.37-11.54.81.09,1.76-.05,2.42.31,5.85,3.24,11.61,6.63,17.46,9.86,5.29,2.92,11.33,4.62,15.48,9.41-2.31.9-4.35-1.03-6.61-.62-1.36-.44-1.68-2.54-3.83-2.23,1.04,5.01,1.82,10.04.56,15.05-.55,2.2-.41,4.22.44,6.25ZM373.3,419.15c.82-.2,1.64-.4,2.47-.6.21-7.49-4.35-13.43-8.29-19.58-.15,7.36,2.16,13.97,5.83,20.17Z"/>
    <path class="cls-3" d="M363.56,348.2c.74.88,1.77,1.64,2.17,2.65,5.02,12.63,15.6,21.87,20.89,34.33.73,3.79,1.17,7.54-1.08,11.03-6.92-3.71-13.84-7.43-20.77-11.14-.11-.27-.17-.54-.18-.83-.51-2.67,1.98-3.99,2.88-6.22-1.68-2.73-.07-6.14-1.87-9-3.16-5.01-3.26-10.98-4.82-16.49-.55-1.95-.76-4.58,2.78-4.33Z"/>
    <path class="cls-1" d="M364.77,385.07c6.92,3.71,13.85,7.43,20.77,11.14,1.86,1.96,4.6,3.2,4.87,6.14,2.99,1.34,6.62,1.07,7.93,5.07-3.01,1.96-5.63-.73-8.36-.63-4.15-4.8-10.18-6.49-15.48-9.42-5.85-3.23-11.62-6.62-17.46-9.86-.66-.37-1.6-.22-2.42-.31-.74-.71-1.49-1.42-2.23-2.13.53-.62,1.05-1.24,1.58-1.86,3.84-.78,7.05,2.15,10.81,1.84Z"/>
    <path class="cls-1" d="M272.53,162.77c3.09.25,5.07,2.4,6.75,4.53,3.68,4.69,9.81,7.38,11.31,13.83-.3.07-.59.16-.88.29-1.03-.07-2.06-.14-3.1-.2-.25-.1-.51-.17-.77-.23-1.35-2.06-2.48-4.34-5.12-5.19-1.9.2-.29,2.6-1.46,2.81-1.97,1.06-3.23.18-4.5-.6-.92-2.71.77-5.09,1.03-7.49-2.11-4.8-6.15-4.53-10.15-4.36-1.21-.52-1.94-1.38-1.93-2.76,2.9-.8,5.81-1.38,8.82-.64Z"/>
    <path class="cls-1" d="M256.68,214.09c-.02-.65-.04-1.31-.06-1.96,2.54-.19,3.7-2.17,5.06-3.9,5.24,1.23,10.63,2,15.29,4.99-.12,1.15-.21,2.31-1.3,3.04-4.54-.15-9.28.66-12.89-2.87-2.16.83-4.12.82-6.1.71Z"/>
    <path class="cls-1" d="M380.55,425.25c-.85-2.04-.99-4.06-.44-6.25,1.26-5.01.48-10.04-.56-15.05,2.14-.31,2.46,1.79,3.83,2.23,1.22,2.5,1.42,5.19,1.57,7.9-.29,3.77-.82,7.5-2.17,11.07-.74.04-1.48.07-2.22.11Z"/>
    <path class="cls-2" d="M256.68,214.09c1.98.11,3.94.12,6.1-.71,3.61,3.54,8.35,2.72,12.89,2.87-4.28,4.3-9.58,2.85-14.62,2.48-2.42-.18-4.8-.96-7.2-1.47-.05-1.07-.1-2.14-.15-3.39,1.18.09,2.08.15,2.99.22Z"/>
    <path class="cls-2" d="M382.76,425.15c1.36-3.56,1.89-7.29,2.17-11.07,2.4,2.62,4.28,5.5,4.64,9.15-2.38.24-4.27,2.24-6.82,1.92Z"/>
    <path class="cls-5" d="M236.81,250.31c.98-2.08,2.39-2.64,4.08-2.78q.02,3.52-4.08,2.78Z"/>
    <path class="cls-6" d="M261.68,208.23c-1.35,1.73-2.52,3.71-5.06,3.9-4.76-8.65-14.31-13.97-16.88-24.08-1.06-4.17-3.42-8.36-1.07-12.87,0,0-.02,0-.02,0,.66-.02,1.33-.03,1.99-.05.16,1.72.93,3.14,2.18,4.49,5.06,1.97,8.64-1.87,12.81-3.48.67.98,1.34,1.96,2.01,2.93-.1.8-.19,1.61-.27,2.26-4.61,2.55-11.98-.76-13.67,6.27,1.62,10.46,10.28,12.17,16.98,16.09,1.48,1.19.8,2.94,1.01,4.52Z"/>
    <path class="cls-5" d="M265.64,166.17c4-.17,8.04-.45,10.15,4.36-.26,2.4-1.96,4.79-1.03,7.49-.37,1.05-.73,2.09-1.1,3.14-1.71,1.41-.78,3.36-1.02,5.07l-2.01.93c-.33-.03-.66-.04-1-.04-.7-2.02-1.4-4.04-2.1-6.07v-6.05c-.86-1.12-1.75-2.28-2.54-3.32.23-1.96.43-3.74.64-5.52Z"/>
    <path class="cls-1" d="M265.77,153.07c.19-2.28-1.17-4.95,2.38-7.2,1.81,7.69,9.74,5.38,14.42,9.01-2.55,5.44-6.61,2.14-9.94,2.27-2.36-1.25-4.9-2.19-6.87-4.09Z"/>
    <path class="cls-6" d="M265.77,153.07c1.97,1.9,4.51,2.84,6.87,4.09-.04,1.87-.07,3.74-.11,5.61-3.01-.75-5.92-.16-8.82.64-1.29-1.75-.85-3.69-.45-5.84-1.71-.24-3.28-.46-5.1-.71,1.58-3.6,5.18-2.52,7.6-3.79Z"/>
    <path class="cls-1" d="M270.64,187.16c.67-.31,1.34-.62,2.01-.93,1.32,0,2.65,0,3.97-.01,2.57,2.03,7.24-.29,8.69,4.13-4.52,3.44-13.73,1.4-14.67-3.19Z"/>
    <path class="cls-1" d="M256.19,167.36c2.02-2.18,3.44-.8,4.79.82,2.14,2.58,3.13,5.6,3.48,8.93-1.99,1.99-3.89.99-5.79.01-1.15-3.17-2.15-6.38-2.48-9.76Z"/>
    <path class="cls-1" d="M258.02,198.14c2.5-3.71,5.41-2.86,7.69-4.13,2.68,1.94,7.71.85,8.07,6.81-5.4-.92-10.19-1.74-15.76-2.69Z"/>
    <path class="cls-1" d="M251.63,146.97c2.46.79,4.14,2.07,4.78,4.44-1.93,1.68-3.61-.13-4.65-.08-3.21,1.05-2.89,3.57-3.58,5.45-2.24.55-3.45-.55-3.39-2.45.14-4.36,3.47-5.92,6.84-7.36Z"/>
    <path class="cls-1" d="M265.39,188.12c-5.86,2.79-11.62-.75-17.51-.43,4.93.57,9.01-2.82,13.82-2.69,1.82.35,3.91.36,3.69,3.12Z"/>
    <path class="cls-3" d="M256.19,167.36c.33,3.38,1.33,6.59,2.48,9.76-.08.8-.14,1.61-1.05,1.97-.67-.98-1.34-1.96-2.01-2.93-.36-3.49-3.04-.07-4.41-1.73,2.34-1.8-.69-7.19,4.98-7.07Z"/>
    <path class="cls-6" d="M265.39,188.12c.22-2.76-1.88-2.77-3.69-3.12-.03-4.25,3.58-3.09,5.85-3.94.7,2.02,1.4,4.04,2.1,6.07-1.42.33-2.83.66-4.25.99Z"/>
    <path class="cls-1" d="M293.61,169.89c-5.78-.45-7.02-3.93-9.37-7.92,4.91,1.04,6.79,3.87,9.37,7.92Z"/>
    <path class="cls-6" d="M276.62,186.22c-1.32,0-2.65,0-3.97.01.23-1.71-.7-3.66,1.02-5.07,1.13.83,2.25,1.65,3.48,2.55.64.91-.33,1.64-.52,2.5Z"/>
    <path class="cls-6" d="M285.84,180.99c.26.05.52.13.77.23-.51,2.5-2.19,2.87-4.6,2.63.16-2.86,2.21-2.57,3.83-2.85Z"/>
    <path class="cls-8" d="M245.47,169.02c.33-2.45,2.03-2.96,4.13-2.9,0,0,.09.11.09.11-.77,1.72-2.62,2.05-3.94,3.08l-.29-.29Z"/>
    <path class="cls-8" d="M240.64,175.15c-.66.02-1.33.03-1.99.05.26-1.05.98-1.68,1.93-2.11l.15.15c-.03.64-.06,1.28-.08,1.91Z"/>
    <path class="cls-8" d="M251.67,165.18c-.4.83-1.15,1-1.97,1.04,0,0-.09-.11-.09-.11.44-.8,1.17-1,2.01-.98l.05.05Z"/>
    <path class="cls-8" d="M242.52,171.06c.2-.14.41-.27.76-.51-.25.34-.39.54-.53.74,0,0-.23-.23-.23-.23Z"/>
    <path class="cls-8" d="M241.56,172.09c.32-.34.64-.69.97-1.03,0,0,.23.23.23.23-.35.32-.69.64-1.04.95,0,0-.15-.15-.15-.15Z"/>
    <path class="cls-8" d="M240.57,173.09c.33-.33.66-.66.99-.99,0,0,.15.15.15.15-.33.33-.66.66-.99.99,0,0-.15-.15-.15-.15Z"/>
    <path class="cls-8" d="M251.61,165.13c.11-.16.22-.33-.11.16.5-.33.33-.22.17-.11,0,0-.05-.05-.05-.05Z"/>
    <path class="cls-8" d="M245.76,169.3c-.21.12-.41.24-.72.42.18-.3.31-.5.43-.71,0,0,.29.28.29.28Z"/>
    <path class="cls-3" d="M213.64,303.15c2.94,3.8,6.67.13,9.91,1.06.77,1.08,1.78,1.71,3.15,1.62-.02.44-.03.88-.05,1.33,0,.67-.02,1.33-.02,2-2.54,4.18-6.33,5.61-11.04,5.05-2.14-1.4-4.57-1-6.92-1.12-.19-2-1.48-2.46-3.27-2.98-5.57-1.64-9.86.57-13.36,3.75-5.06,1.25-7.23-2.61-10.3-4.59-1.81.36-3.56.71-5.32,1.05-.93-.38-1.85-.76-2.78-1.14-1.23-3.7-4.12-6.8-4.02-10.99-.19-5.92.06-11.69,5.28-15.6h9.24c2.37-2.82,2.67-6.93,6.48-9.42,1.65,0,3.8,0,5.94,0,1.03,1.98,2.47,1.85,4.5,1.44,3.94-.79,8.06-1.42,11.59,1.53.68,1.86,1.35,3.72,2.08,5.71-2.35,4.83-3.74,9.88-3.09,15.32,0,0,0,0,0,0-1.81,0-3.62,0-4.95,0-1.91-1.22-3.11-2.32-3.75-3.87-1.56-3.21,1.29-6.38.06-10.06-1.73,1.1-3.19,2.03-4.42,2.82-1.95.13-3.58.24-5.36.35-1.47,3.74-2.11,8.1-7.02,8.63-1.75.55-3.18-1.37-5.8.14,2.18,5.08,3.3,10.74,9.49,13.86,1.75-2.39,5.95-1.83,6.79-5.65,5.65-.08,11.3-.16,16.96-.23Z"/>
    <path class="cls-5" d="M176.42,310.3c1.76-.35,3.51-.69,5.32-1.05,3.07,1.99,5.24,5.85,10.3,4.59,3.5-3.18,7.79-5.39,13.36-3.75,1.78.53,3.08.99,3.27,2.98-2.8,3.84,1.75,2.49,2.23,3.17,1.5,2.35,2.64,4.13,3.78,5.91-8.09,3.41-16.27,3.79-24.22-.36-.95,2.73-1.11,4.31-.22,5.81,1.49.98,3.47.08,5.7,2.59.1.17.93,1.6,1.75,3.02.32.98.64,1.95.96,2.93.42,2.66-1.01,5.55.99,8.02-.46,2.91-2.44,5.92.43,8.65,6.68-2.64,13.67-.35,16.57,5.35-3.55,1.58-7.81.45-11.12,2.95-.74.26-1.48.51-2.31.8.56,1.21,1.01,2.18,1.47,3.16-1.58,2.2-4.57.07-6.58,2.45-2.19,1.65,1.57,4.62-.67,6.74-5.44-11.58-8.52-23.93-11.99-36.16-1.84-6.51-1.89-13.36-4.25-19.78-1.11-3.04-2.64-5.67-4.77-8.02Z"/>
    <path class="cls-3" d="M197.42,374.26c2.24-2.12-1.52-5.09.67-6.74,2.01-2.38,5-.25,6.58-2.45,1.98.05,3.96.11,5.93.17.57,4.4,4.54,2.11,6.69,3.4,3.24,2.59,1.98,6.37,2.53,9.8,1.66,2.1,3.54,4.22,3.43,7.17-1.84,2.98-4.07,5.25-7.71,5.57-1.99.18-2.97,1.26-2.7,3.32l-.04.32c.01,2.02-.82,4.14.85,6.28,2.49-1,5.16-1.6,6-4.71,1.98-.01,3.96-.03,5.93-.04.19,1.53-.53,3.55,2.03,3.83.43,2.77-1.77,4.03-3.22,5.76-2.09,2.51-5.38,4.08-6.79,8.76,7.32-3.78,13.75-8.98,21.02-2.53.43.81,1.18.97,2,.98.29,1.23,2.05,1.86,1.37,3.69-4.47,1.01-6.56-3.93-10.64-4.4-7.27,1.75-14.02,9.68-22.44,2.82-1.01-3.92.42-7.61.53-11.58-1.74-.54-3.29-1.02-4.84-1.51-.15-8.08-5.07-14.8-6.45-22.52-.32-1.78-.5-3.58-.75-5.38Z"/>
    <path class="cls-5" d="M204.63,402.16c1.55.48,3.1.97,4.84,1.51-.11,3.97-1.55,7.67-.53,11.58,8.43,6.86,15.18-1.07,22.44-2.82,4.07.48,6.16,5.41,10.64,4.4.67-1.83-1.09-2.46-1.37-3.69,1.05-2.47,3.85-4.13,5.5-3.4,4.1,1.82,6.78-.77,10.06-1.76,2.52-.76,5.12-2.68,8.28-.81-4.42,3.07-9.72,3.62-13.57,6.76.2.45.39.89.59,1.34l16.37-6.93c.22.47.43.94.65,1.41-8.23,5.59-17.7,8.73-26.89,12.43-7.37,0-14.6-1.84-22.01-1.58-4.42.15-8.8.19-13.04,1.64.29-6.78-1.16-13.4-1.96-20.07Z"/>
    <path class="cls-6" d="M208.64,428.18c-5.9,20.67-13.84,40.63-21.22,60.78-2.74,7.49-6.22,14.92-12.74,20.22,3.31-12.95,9.29-24.86,14.46-37.08,5.69-13.46,11.89-26.71,15.48-40.96.44-1.73,1.3-3.36,1.97-5.03.97.41,1.69,1.07,2.06,2.08Z"/>
    <path class="cls-5" d="M56.6,211.19c1.28-.73,2.79-1.11,3.15-1.68,1.51-2.5.01-4.85,1.88-6.35,3.48,2.41,4.17,7.98,10.07,8.54-.67-6.66,1.18-13.16-1.07-19.56.85-1.45,1.2-3.27,3.02-3.99,2.11,3.4.74,7.13.92,10.69.26,5.14.07,10.31.07,15.17,4.76,5.87,6.28,13.65,13.36,17.44,1.49.8,1.82,3.78,2.68,5.75-.33,1.98-.66,3.95-1,5.93-3.24-.35-4.55,1.92-5.99,5.35-2.77-7.28-5.79-13.44-9.86-19.04-1.86-2.56-3.47-4.52-7.13-1.82-.59,7.34,5.82,12.19,7.33,18.92,1.57,6.94,1.96,14.01,3.37,20.94-3.42-2.47-3.37-6.64-4.61-10.06-5.59-15.34-10.82-30.81-16.19-46.23Z"/>
    <path class="cls-3" d="M77.4,267.48c-1.41-6.93-1.81-14-3.37-20.94-1.52-6.72-7.93-11.58-7.33-18.92,3.66-2.7,5.28-.74,7.13,1.82,4.07,5.61,7.09,11.76,9.86,19.04,1.44-3.43,2.75-5.71,5.99-5.35.99,1.01,1.97,2.02,2.95,3.02-.28,3.42-2.49,7,.78,9.69.39,2.41-1.98,3.36-1.8,5.28-3.45,1.76-6.61,3.76-6.73,8.24-.34.28-.68.56-1.02.84-1.77.17-3.73-.74-5.23.94-1.35-.91-1.08-2.37-1.24-3.68Z"/>
    <path class="cls-1" d="M115.78,352.08c-.74-4.36,1.55-8.03,2.79-11.92,3.45-10.89,7.63-21.46,14.07-31,1.3-1.7,2.6-3.4,3.9-5.1,0,0,.26.22.26.22-1.26,6.15-3.5,11.98-5.62,17.86-3.35,9.31-6.46,18.7-9.68,28.06-1.67,1.35-3.41,2.48-5.72,1.88Z"/>
    <path class="cls-1" d="M136.53,304.06c.15-.44.31-.87.49-1.37.81.78.35,1.2-.23,1.59,0,0-.25-.22-.25-.22Z"/>
    <path class="cls-2" d="M293.79,523.14c-1.93-1.77-.99-4-.98-6.08,3.09,1.58,1.89,3.86.98,6.08Z"/>
    <path class="cls-6" d="M110.65,294.15c.19,1.29.38,2.57.59,3.95-.52.85-1.09,1.8-1.67,2.76-1.33.39-2.87.1-4.22,1.41-.74.61-.64,1.75-.67,2.84-.02.6-.03,1.19-.05,1.79-3.06,3.05-4.13,7-4.92,11.06-1.67,2.68-.03,4.51,1.59,6.38,1.96,2.27,2.04,4.32-.85,5.91-1.24-3.31-2.55-6.6-3.68-9.95-.55-1.62-1.01-3.11-3.03-3.29-.04-.59-.07-1.18-.11-1.76.31-.35.61-.7.92-1.06.27-.39.85-.91.76-1.14-2.98-7.1-5.46-14.35-7.24-21.85-.39-1.65-1.41-3.05-3.48-2.99-.95-2.22-2.45-4.26-2.16-6.87.09-.62.18-1.23.26-1.85,4.28-3.8,8.55-7.6,12.83-11.39,2.68-.83,6.39,2.27,8.15-2.11.48.58.95,1.17,1.43,1.75-.14,3.13-1.65,5.46-3.97,7.5-2.99,2.63-5.39,5.69-5.45,9.96h0c-2.91.56-3.02,2.74-2.92,5.04v.05c-3.93.86-.12,3.82-2.06,5.32,5.51.62,7.79-1.46,8.89-7.5.31-.34.61-.68.92-1.02,2.2.06,2.13-1.46,2.08-2.98.17-1.32.86-2.3,1.99-2.98.88.04,1.64-.15,2.06-1.03.68.33,1.36.65,2.04.98-.49,2.22.77,4.19.94,6.31-1.56-.23-3-.2-3.61,1.65.08,3.03,2.3,4.11,4.63,5.1ZM98.17,303.66c3.04-2.63,3.88-6.31,4.78-9.96-4.01,2.17-4.99,5.78-4.78,9.96Z"/>
    <path class="cls-5" d="M100.44,330.25c2.88-1.6,2.8-3.65.85-5.91-1.62-1.87-3.26-3.71-1.59-6.38,2.43-1.2,2.52-3.95,3.87-5.87,3.86-.36,5.95-3.13,8.06-5.88,1.98.7,3.96,1.4,5.94,2.1,1.12,9.86-2.95,19.12-3.41,28.79-.23,4.95-5.96,4.74-7.65,8.3-2.81-4.73-5.36-9.57-6.08-15.13Z"/>
    <path class="cls-2" d="M84.59,288.2c2.07-.06,3.09,1.34,3.48,2.99,1.78,7.5,4.25,14.75,7.24,21.85.1.23-.49.75-.75,1.14-.31.35-.61.7-.92,1.06.04.59.07,1.18.11,1.76-3.56-3.29-3.14-8.15-4.64-12.23-1.96-5.36-3.05-11.04-4.51-16.58Z"/>
    <path class="cls-2" d="M82.7,279.49c-.09.61-.17,1.23-.26,1.85-3.57-2.11-3.49-5.73-3.77-9.19,1.29.32,2.59.64,3.88.96-.65,2.14-2.03,4.31.16,6.38Z"/>
    <path class="cls-5" d="M82.54,273.1c-1.29-.32-2.59-.64-3.88-.96-.03-.33-.04-.66-.02-.99,1.5-1.68,3.46-.77,5.23-.94-.11,1.11-.25,2.22-1.33,2.89Z"/>
    <path class="cls-1" d="M110.65,294.15c-2.32-.99-4.55-2.08-4.63-5.1.62-1.85,2.06-1.88,3.61-1.65,3.71,3.23,8.73,2.96,12.95,4.85-.03.64-.06,1.28-.09,1.91-3.95,3.83-7.9,1.6-11.85,0Z"/>
    <path class="cls-1" d="M117.58,308.3c-1.98-.7-3.96-1.4-5.94-2.1-2.01-2.34-5,1.54-6.96-1.09.03-1.1-.07-2.23.67-2.84,1.35-1.31,2.88-1.02,4.22-1.41,4.54.77,6.43,1.94,9.73,6.01-.03,1.12-.97,1.16-1.72,1.43Z"/>
    <path class="cls-2" d="M95.68,285.2c.07-4.28,2.47-7.34,5.45-9.96,2.32-2.04,3.83-4.37,3.96-7.5,2.23.94,3.68,3.44,6.46,3.24,2.19-2.38,2.33-2.69,1.86-4.01-1.43-4.03-9.78-9.5-14.5-9.49-.47-3.05,1.99-3.34,3.81-4.17,17.43,4.74,13.71,6.63,15.69,21.13-.93,1.25-1.91,2.56-2.89,3.87-.89-.4-1.77-.86-2.69-1.19-4.11-1.47-7.71-3.31-11.61,1.65-1.62,2.06-2.79,5.13-5.54,6.44Z"/>
    <path class="cls-1" d="M95.68,285.2c2.75-1.31,3.92-4.38,5.54-6.44,3.9-4.96,7.5-3.12,11.61-1.65.92.33,1.79.79,2.69,1.19.99.98,1.98,1.97,2.97,2.95.34,2.14-.31,3.55-2.88,3.75-2.47-.82-3.61-4.38-6.93-3.92-.68-.33-1.36-.65-2.04-.98-.34-.57-.82-.81-1.68-.54-.11.45-.25,1.01-.38,1.56-1.13.68-1.81,1.66-1.99,2.98-1.29.57-1.93,1.6-2.08,2.98-.31.34-.61.68-.92,1.02-2.44,1.08-3.29,4.42-6.69,4.76-.06-1.02-.1-1.8-.15-2.57,0,0,0-.05,0-.05,1.95-1.11,3.06-2.72,2.93-5.04h0Z"/>
    <path class="cls-2" d="M108.69,281.08c3.32-.45,4.46,3.1,6.93,3.92,2.58-.2,3.22-1.62,2.88-3.75,3.46.24,5.39,2.15,6.05,5.56-.58,1.81-2.35,3.24-1.98,5.43-4.21-1.89-9.24-1.62-12.95-4.85-.17-2.12-1.43-4.09-.94-6.31Z"/>
    <path class="cls-1" d="M98.92,257.47c4.72,0,13.07,5.46,14.5,9.49.47,1.32.33,1.63-1.86,4.01-2.77.21-4.23-2.3-6.46-3.24-.47-.59-.95-1.17-1.42-1.76-.33-3.07-3.61-3.63-4.96-5.84.07-.89.13-1.78.2-2.67Z"/>
    <path class="cls-2" d="M98.72,260.15c1.34,2.21,4.63,2.77,4.96,5.84-1.77,4.37-5.47,1.27-8.15,2.11.13-1.54.14-3.03-.82-3.3-5.01-.68-6.49,3.63-9.82,4.58.12-4.48,3.28-6.48,6.73-8.24,2.42.02,4.88.35,7.1-.99Z"/>
    <path class="cls-6" d="M111.67,154.14c2.12.25,2.13,1.86,1.93,3.33-.57,4.33-.81,8.75-3.03,12.69-.53-5.4-.39-10.75,1.09-16.02Z"/>
    <path class="cls-6" d="M350.61,423.24c1.65,2.11-.4,4.89,1.28,7-.85,1.05-2.06.96-3.22,1.03-2.99-2.04-7.55-1.73-9.01-6.05,1.59-1.38.65-2.68-.11-3.99.77-1.29,2.15-.99,3.31-1.25l7.74,3.25Z"/>
    <path class="cls-6" d="M70.63,192.15c2.26,6.4.4,12.89,1.07,19.56-5.9-.57-6.59-6.14-10.07-8.54-1.15-7.63-1.37-15.42-4.05-22.78.68-.08,1.37-.16,2.05-.24-.27,2.74.84,5.09,1.68,7.11,1.96,1.25,3.64.79,5.26.85,1.05,1.65,1.37,4.04,4.06,4.04Z"/>
    <path class="cls-1" d="M79.87,174.08c-3.24-.46-3.91-3.29-3.59-4.86,1.78-8.86-1.98-17.25-1.77-25.93.03-1.3-.13-2.72,1.46-3.4,3.79,11.01,5.92,22.2,3.9,34.2Z"/>
    <path class="cls-2" d="M234.58,164.13c.38.35.77.7,1.15,1.04-.38-.35-.77-.7-1.15-1.04Z"/>
    <path class="cls-6" d="M301.76,393c6.87,2.01,13.88,1.8,20.91,1.35-1.97,4.96-6.32,7.3-11.11,9.61,0,4.33,0,8.62,0,12.92-3.13-.6-6.52-.57-8.8-3.35q6.92-10.99,4.88-14.14c-1.83.22-2.45,2.07-3.79,2.94-5.98,1.43-11.7,8.09-11.06,12.88-.1,1.32-.19,2.64-.29,3.96-2.11,3.7,1.49,4.38,3.22,5.98,1.3,1.21,3.69.64,4.59,2.67,0,2.27-2.09,2.24-3.5,3.33-3.47-2.47-7.6-1.74-11.98-2.35.54-6.08-2-10.48-7.46-13.57-2.22,4.47,3.6,7.32,1.56,11.96-7.56-2.18-15.41-2.62-23.18-3.67-4.72-.64-9.64,1.1-14.13-1.32,9.19-3.69,18.66-6.83,26.89-12.43-.22-.47-.43-.94-.65-1.41l-16.37,6.93c-.2-.45-.39-.89-.59-1.34,3.85-3.14,9.15-3.69,13.57-6.76-3.16-1.87-5.76.05-8.28.81-3.28.99-5.96,3.58-10.06,1.76-1.65-.73-4.45.93-5.5,3.4-.82,0-1.57-.18-2-.98,1.77-4.39,7.21-3.64,9.97-7.25-.53-1.45-.51-3.32-2.06-4.58-6.35.69-12.61-2.4-18.92-.16-2.55-.28-1.83-2.3-2.03-3.83,9.8-.59,19.49.21,29.23,1.46,11.9,1.53,23.87-.11,35.81-.68,5.22,2.7,8.35-.22,11.13-4.12Z"/>
    <path class="cls-1" d="M229.75,432.28c3.14,8.01,2.07,16.31,1.48,24.51-1.38,19.37-6.12,38.19-9.69,57.19-.64,3.4-1.04,7.15-5.43,10.45,5.47-30.8,12.71-60.09,13.45-90.3.06-.62.12-1.24.19-1.86Z"/>
    <path class="cls-1" d="M292.51,419.16c.1-1.32.19-2.64.29-3.96,4.44-3.64,7.93-8.1,11.06-12.88,1.34-.87,1.96-2.72,3.79-2.94q2.04,3.15-4.88,14.14c2.28,2.78,5.67,2.75,8.8,3.35,3.43,1.26,6.45,3.1,8.93,6-1.12,2.93-3.21,4.36-5.71,2.58-5.78-4.12-12.25-5.06-19.02-5.32-1.1-.04-2.18-.64-3.26-.98Z"/>
    <path class="cls-6" d="M324.63,394.12c6.59-2.23,13-5.09,20.04-5.76-2.09,5.56-6.19,9.51-10.43,13.04-2.29,4.11-1.77,8.78-3.64,12.8-2.98-1.52-6.57-1.95-8.97-4.77,2.3-4.46,5.61-8.3,6.02-13.02-1.02-1.5-2-1.18-2.96-.96-.02-.44-.05-.89-.07-1.33Z"/>
    <path class="cls-1" d="M324.7,395.45c.96-.22,1.94-.55,2.96.96-.41,4.72-3.72,8.56-6.02,13.02,2.4,2.83,5.99,3.25,8.97,4.77.77,1.09,1.87,1.15,3.04.98l-.03-.03c.46,3.51,3.51,4.48,5.93,6.09.76,1.31,1.7,2.61.11,3.99-3.14.3-5.96-.36-8.21-2.74-3.44-3.63-7.71-5.62-12.53-6.74-2.21-.51-4.64-1.13-5.34-4.55,4-4.73,9.21-9.13,11.12-15.75Z"/>
    <path class="cls-6" d="M229.75,432.28c-.06.62-.12,1.24-.19,1.86-2.46.37-2.74,2.64-3.45,4.32-.75,1.75-1.44,3.25-3.48,3.48-1.87-.23-1.9-2.76-3.8-2.86.03-.97.06-1.95.1-2.92,3.69-1.03-.37-3.77,1.72-5.63,2.78,0,6.35-2.03,9.09,1.76ZM223.14,437.9c-.57.51-.58,1.01,0,1.53.58-.51.57-1.01,0-1.53Z"/>
    <path class="cls-8" d="M218.94,436.15c-.03.97-.07,1.95-.1,2.92-2.09,4.11.29,9.26-3.05,13.07-.37.02-.74.04-1.1.06,1.8-5.25.44-11.33,4.25-16.04Z"/>
    <path class="cls-1" d="M261.5,458.08c.09-.97.17-1.94.26-2.91,1.53-1.93.78-4.07.55-6.16.06-2.92.12-5.85.18-8.77.26-.58.52-1.15.96-2.11,1.99,2.27,2.12,4.65,2.17,7.09.33,18.22.24,36.46,1.2,54.65.5,9.44.96,18.86.61,28.27-.13,3.44.92,7.67-2.9,10.25-1.68-1.86-1.95-4.13-1.87-6.5.42-13.57-.56-27.11-1.15-40.65,0-11.05,0-22.11,0-33.16Z"/>
    <path class="cls-6" d="M179.3,685.64c.07.65.31,1.25.13,1.44-.65.67-.66-.11-.67-.46,0-.24.26-.49.54-.98Z"/>
    <path class="cls-6" d="M287.13,526.23c-3.39-9.72-7.82-19.25-5.62-30.02,2.47,9.9,5.28,19.73,5.62,30.02Z"/>
    <path class="cls-6" d="M281.03,487.23c-1.94-1.1-1.8-2.48-.55-4.02,1.51,1.16,1.03,2.59.55,4.02Z"/>
    <path class="cls-2" d="M262.32,449.01c.23,2.09.97,4.22-.55,6.16-1.49-2.2-2.09-4.32.55-6.16Z"/>
    <path class="cls-4" d="M497.81,89.93c.03-9.06,12.68-16.68,20.31-12.66,2.47,1.3,3.56,3.48,3.6,6.12.12,6.94-1.99,13.16-6.9,18.13-4.4,4.46-9.43,4.03-13.17-1.01-2.4-3.23-4.39-6.72-3.84-10.59ZM508.34,99.37c5.84-2.92,9.16-10.49,7.49-16.95-3.36-.96-6.74.61-9.93.04-4.93,5.81-4.01,12.02,2.45,16.9Z"/>
    <path class="cls-4" d="M574.44,137.56c-2.1,2.11-1.01,5.04-3.49,6.05-1.21.13-1.88-.56-2.15-1.61-1.79-6.96,4.24-18.62,10.88-21.25,3.76-1.49,6.86-.84,9.21,2.5,4.6,6.56,5,13.78,3.64,21.23q-4.45.82-5.6-5.2c-3.96-2.1-8.55.48-12.48-1.72ZM586.97,132.88c-.3-3.24-.96-6.02-3.57-8.16-4.74.6-6.84,3.69-8.06,8.05,4.05.73,7.77.24,11.64.11Z"/>
    <path class="cls-4" d="M487.92,103.07c-5.83,1.32-7.54-3.37-10.2-5.91-3-2.86-3.24-7.47-5.53-11.28-3.09,5.94-.76,13.37-6.56,18.3-2.26-8.48,2.09-26.94,6.95-28.78,4.94,8.91,9.92,17.9,15.34,27.66Z"/>
    <path class="cls-4" d="M491.08,131.9c-.8-5.69,3.41-9.75,8.24-13.19,3.94-2.8,9.58-.08,10.57,5.23,1.32,7.07-.49,13.57-5.52,18.81-3.99,4.16-9.12,3.13-11.78-2.02-1.25-2.43-1.56-5.04-1.52-8.83ZM503.46,122.97c-3.56.24-6.22,1.59-6.93,4.93-.92,4.31-1.75,8.82,2.05,12.43,6.17-3.42,8.44-11.45,4.89-17.36Z"/>
    <path class="cls-4" d="M391.86,84.43c-.79-4.6-7.27-6.16-6.15-12.11,4.31,1.05,5.88,4.94,9.06,6.44,2.64-1.18,2.82-5.08,6.36-5.41,2.51,4.56-2.23,7.34-2.43,11.06.87,5.1,6.21,7.99,7.16,13.57-6.01.79-6.92-4.75-10.14-7.17-3.42,3.49-3.01,9.54-9.45,11.81-1.25-7.4,4.43-12.07,5.6-18.18Z"/>
    <path class="cls-4" d="M478.26,127.87c.72,1.59,1.54,3.05,2.04,4.62.95,2.98,1.12,6.08-1.41,8.33-2.62,2.33-6.04,2.98-9.36,2.08-3.27-.88-3.33-3.76-2.86-6.54.57-3.36,2.9-5.9,4.42-8.81-1.59-4.22-6.16-6.47-7.32-11.33,5.56-.43,6.71,5.25,10.49,6.78,2.75-1,3.26-4.84,6.8-5.1,2.65,4.24-1.79,6.44-2.79,9.97ZM475.04,131.84c-2.55,1.25-3.41,3.22-3.22,5.8,1.78.89,3.08.5,4.23-.66.85-1.68.55-3.19-1.01-5.14Z"/>
    <path class="cls-4" d="M560.61,144.76c-5.82-3.64-5.56-10.72-9.93-15.45-2.61,6.08-2.08,13.44-8.91,17.05,1.92-8.75,2.48-17.79,6.52-25.88,6.36,1.49,15.59,19.49,12.32,24.29Z"/>
    <path class="cls-4" d="M456.34,106.45c-5.47-6.37-6.27-14.02-9.98-20.71-2.93,6.1-2.82,13-7.89,18.08-1.61-4.42,3.39-21.59,7.02-26.09,4.16,1.01,12.94,22.17,10.85,28.71Z"/>
    <path class="cls-4" d="M421.25,83.85q6.38.99,8.52,2.99c-.7,4.05-4.47,2.38-6.96,3.66.79,4.46,5.74,6.71,6.37,11.41-1.88,2.49-3.67,1.63-5.22-.27-3.37-4.11-6.34-8.55-8.66-13.31-2.47-5.06,1.76-7.91,4.54-11.02,1.67-1.87,3.55-4.14,6.53-1.8-.1,3.9-4.56,4.92-5.11,8.34Z"/>
    <path class="cls-4" d="M522.54,121.44c5.17-.62,10.41,1.37,11.38,4.96,1.87,6.87-4.06,9.43-7.89,13.08-1.05,2.46.29,5.88-2.95,7.46-3.09-1.84-3.41-18.35-.54-25.5ZM529.91,127.37c-1-1.33-1.85-2.52-3.87-1.81-.59,2.13-.7,4.26.13,6.55,2.37-.84,3.16-2.39,3.74-4.73Z"/>
    <path class="cls-4" d="M601.93,116.38c4.35,3.59,4.54,17.68.54,21.59-4.08-2.14-4.55-15.36-.54-21.59Z"/>
    <path class="cls-1" d="M598.84,145.93c1.78-1.18,3.12-1.05,4.46.14,1.02,2.29.31,4.1-2.21,4.16-2.68.06-3.11-1.9-2.24-4.3Z"/>
    <path class="cls-1" d="M306.64,334.9c-10.46,1.08-20.95-2.06-31.67-2.14-.84-5.4,3.31-9.37,1.33-13.97-.97-2.44-3.45-3.25-6.28-4.88,6.71-6.76,14.72-11.43,21.21-18.32-4.06-6.72-8.62-12.5-14.16-17.79-3.56,5.47.05,8.2,7.19,15.99-.05,1.96-1.16,2.52-3.26,2.14-3.97-7.22-14.49-12.91-4.78-24.01,7,5.89,10.97,14.96,18.96,20.69,5.44-4.64,11.61-8.12,16.22-14.73-8.32-2.48-11.27,6.14-17.5,6.65,2.2-4.67,6.35-7.23,10.23-9.88,4.89-3.33,9.1-.35,14.29,3.02-7.04,5.83-13.82,11.44-20.53,17,.24,4.35,9.67,15.92,13.91,17.22,1.36-4.61.37-6.59-6.99-13.91-.39-1.83.19-2.89,2.52-2.77,2.29,2.97,4.83,5.97,7.05,9.18,3.66,5.3,2.73,10.7-2.25,14.66-2.09.16-2.13-2.47-4.95-3.03-3.15,5.89.88,12.11-.52,18.87ZM294.46,306.88c-3.42,5-8.22,8.37-13.51,11.59.21,3.35-1.99,6.37-2.15,10.54,2.35-.31,4.24,1.58,6.72.63,1.71-1.8,1.24-4.95,4.01-6.28,6.26-1.47,5.88,3.73,6.74,7.46,2.55.29,4.81.96,7.19-.5-.5-4.72-.99-9.44-1.5-14.26.63-1.55,3.01-1.29,3.68-3.54-3.03-4.94-6.98-9.42-11.59-14.1-6.5,4.45-12.46,8.8-17.69,14.98,8.62,2.99,11.38-6.33,18.12-6.53Z"/>
    <path class="cls-5" d="M326.51,338.08c.1,1.58-.63,2.87-1.44,4.14-.82-.68-1.65-1.37-2.47-2.05-.42-1.23-.85-2.46-1.27-3.69.33-2.52,1.2-4.6,3.5-6.13,3.98-2.66,5.61-7.67,9.81-10.18,7.56-.47,11.51,4.51,15.48,9.84,2.06,2.77,3.33,6.24,6.49,8.16,2.18,3.44,6.19,5.62,6.96,10.04-3.54-.25-3.34,2.38-2.78,4.33,1.57,5.51,1.66,11.48,4.82,16.49,1.8,2.86.19,6.28,1.87,9-.9,2.23-3.4,3.55-2.88,6.22-5.26-1.45-8.31-4.6-8.04-10.36.09-1.92-.93-3.5-1.78-5.11-3.82-7.19-7.26-14.58-9.88-22.27-1.95-5.73-5.59-9.65-10.48-12.76-3.94-2.5-7.41-1.76-10.52,1.11-.2,2.3.9,3.04,2.62,3.22Z"/>
    <path class="cls-5" d="M212.85,394.5c-.27-2.06.71-3.14,2.7-3.32,3.65-.32,5.87-2.59,7.71-5.57.11-2.95-1.77-5.08-3.43-7.17-.55-3.43.71-7.21-2.53-9.8-2.15-1.29-6.12,1-6.69-3.4,4.25.11,8.66-.94,12.68,1.66,1.13,3.62-2.05,7.14.34,11.73,1.92,2.22,5.35,3.28,10.89,3.33-4.61-4.47-12.88-5.93-7.3-14.91,13.05,1.3,27.24,2.72,41.47,4.14.19,1.88-1.15,2.8-1.91,4.29-1.63-.54-3.06-1.65-4.96-1.39-1.6.22-3.28-.14-5.16-.26-2.42,2.95-2.76,7.4-6.57,10.07-7.75.6-15.41,3.35-23.29,5.22-2.93.7-4.36,2.18-4.03,5.21-3.31.06-6.61.12-9.91.18Z"/>
    <path class="cls-6" d="M211.64,297.17c-.65-5.44.74-10.49,3.09-15.32-.72-1.99-1.4-3.85-2.08-5.71,6.21-.52,12.17.87,18.65,2.66-.63,5.75,3.94,10.58,4.17,16.86-8.05,1.55-16.11-.78-23.83,1.51Z"/>
    <path class="cls-5" d="M215.58,314.2c4.71.57,8.5-.87,11.04-5.05,1.82,1.81,4.2,1.26,6.12.85,3.46-.74,6.87-.97,10.34-.71.38.03.73.53,1.04.78-.21,1.47-2.8,1.69-1.61,3.91,5.06-2.39,10.31-2.53,16.55-2.4-3.94,5.07-10.19.69-13.11,4.99.07,2.68,1.52,4.57,2.45,6.8-1.55,1.41-4.55.97-4.76,3.81-.67,0-1.33,0-2,0-.27-1.89-.55-3.78-.86-5.91-6.73.09-13.42-1.63-20.17-.09.19-3.67-4.91-3.52-5.03-6.96Z"/>
    <path class="cls-1" d="M212.85,394.5c3.3-.06,6.61-.12,9.91-.18,2.46-.33,4.97-.46,7.37-1.02,6.47-1.49,12.84-2.47,19.59-1.18,12.01,2.3,24.12.59,36.2.12,2.98-.12,6.7-.17,4.71,4.87-11.93.57-23.91,2.2-35.81.68-9.74-1.25-19.43-2.05-29.23-1.46-1.98.01-3.96.03-5.93.04-2.25-.69-4.87.27-6.85-1.57l.04-.32Z"/>
    <path class="cls-6" d="M356.61,338.16c-3.15-1.92-4.42-5.38-6.49-8.16-3.97-5.33-7.92-10.31-15.48-9.84-1.03-2.12-2.51-2.2-4.52-1.28-1.57.72-2.93,2.22-5.24,1.66.1-2.93,1.27-5.71.76-8.56,3.3-1.77,7.23.49,9.75-2.77.88-3.63-1.92-4.21-4.55-5.09-1.38.36-2.81.73-4.24,1.09h0c.09-3.05-.51-6.35,2.71-8.27,7.23,3.4,8.83,11.22,13.28,16.8,4.72,5.93,9.12,12.14,13.32,18.45,1.01,1.52,4.01,3.6.71,5.97Z"/>
    <path class="cls-3" d="M216.64,358.17c-2.9-5.7-9.89-8-16.57-5.35-2.87-2.74-.88-5.74-.43-8.65,1.32-.98,2.64-1.97,4.04-3.01h5.97c3.34,6.05,7.92,10.51,15.32,11.78,3.94-3.93,8.52-2.83,13.43-1.04.09,1.38.18,2.84.27,4.3-3.1,3.14-7.67.82-11.03,2.97-3.67-.34-7.33-.67-11-1.01Z"/>
    <path class="cls-5" d="M238.67,356.2c-.09-1.46-.19-2.92-.27-4.3-4.91-1.79-9.5-2.89-13.43,1.04-7.4-1.28-11.98-5.73-15.32-11.78,3.65-2.38,8.25-1,12-3,1.66.01,3.33.03,4.99.04.97,3.4,3.77,1.64,5.76,1.91,2.08.28,4.51-.35,4.25,3.05-1.46.84-2.75,1.81-2.89,3.86,1.73,3.94,5.59,1.18,8.79,2.76,1.33,1.13,3.33,2.54,4.24,5.1-2.59,2.34-5.52.83-8.11,1.34Z"/>
    <path class="cls-3" d="M243.45,285.07c-2.2-1.73-5.31.3-6.61-2.98,2.28-4.55,6.52-3.98,10.84-3.87,1.68,1.92,3.82,3.29,7.02,3.34-.56,4.57-1.07,8.75-1.58,12.93,6.57.72,10.18-4.38,10.27-14.34,3.62.08,4.77,3.59,3.99,12.28-.77,1.46-1.95,2.6-3.03,3.27-2.18,1.03-3.95.02-5.62.06-1.77.8-3.43,1.55-5.31,2.4-1.7-2.35-4.04-3.31-6.33-3.33-3.71-2.61-3.45-6.25-3.63-9.75Z"/>
    <path class="cls-6" d="M196.68,303.38c-.84,3.83-5.04,3.27-6.79,5.65-6.2-3.12-7.31-8.78-9.49-13.86,2.62-1.51,4.05.41,5.8-.14,4.91-.54,5.56-4.89,7.02-8.63,1.78-.12,3.41-.23,5.36-.35,1.23-.78,2.7-1.72,4.42-2.82,1.22,3.68-1.62,6.85-.06,10.06.63,1.55,1.84,2.65,3.75,3.87,1.33,0,3.14,0,4.95,0-.35.96-.69,1.93-1.04,2.9-8.28-1.14-16.54-1.04-25.7-.42,3.71,5.1,8.19,2.72,11.78,3.74Z"/>
    <path class="cls-6" d="M220.61,321.16c6.74-1.54,13.43.18,20.17.09.31,2.14.59,4.02.86,5.91-4.59-.18-9.14-.06-13.76-.77-7.73-1.18-15.36.47-22.82,2.76-2.78.86-3.6,5.11-7.36,4.06-.83-1.42-1.65-2.85-1.75-3.02-2.23-2.51-4.21-1.61-5.7-2.59-.89-1.49-.73-3.08.22-5.81,7.95,4.14,16.13,3.77,24.22.36,1.24.31,2.48.62,3.84.96.71-.66,1.41-1.31,2.1-1.95Z"/>
    <path class="cls-6" d="M243.64,327.16c.21-2.84,3.21-2.4,4.76-3.81-.93-2.23-2.38-4.12-2.45-6.8,2.93-4.3,9.18.08,13.11-4.99-6.24-.13-11.49.01-16.55,2.4-1.19-2.23,1.4-2.45,1.61-3.91-.31-.24-.66-.75-1.04-.78-3.48-.26-6.89-.03-10.34.71-1.93.41-4.31.96-6.12-.85,0-.67.02-1.33.02-2,10.64-.48,21.23.7,32.19,1.27,1.71,1.15,3.72,2.5,6.34,4.26-3.63,1.07-2.12,6-6,6.06-.94,1.7-.07,2.81.68,4.1-3.44.68-7.16.62-9.04,4.32h-7.18Z"/>
    <path class="cls-6" d="M236.63,343.14c.27-3.39-2.17-2.77-4.25-3.05-1.99-.27-4.78,1.5-5.76-1.91,14.6.46,29.23.43,44.41,2.68-3.17,6.12-8.66,9.04-10.97,14.82-.84-2.47.16-4.87-1.77-6.59-1.41.74.05,2.54-1.51,3.48-3.08-4.4-7.91-7.12-11.16-10.87-3.63-1.32-6.32.02-9,1.44Z"/>
    <path class="cls-1" d="M202.74,333.94c15.53-2.92,30.19-2.66,44.82-2.67,2.04,0,4.48-.52,5.21,3.55-16.5,2.28-32.75.49-50.04-.88Z"/>
    <path class="cls-1" d="M260.89,364.53c6.34-2.62,35.96.41,38.34,3.68-4.55,3.91-28.97,1.7-38.34-3.68Z"/>
    <path class="cls-1" d="M196.68,303.38c-3.6-1.03-8.08,1.35-11.78-3.74,9.16-.62,17.42-.72,25.7.42,2.05.29,4.26-.13,6.07,1.42-.6,1.29-2.54.21-3.03,1.67-5.65.08-11.3.16-16.96.23Z"/>
    <path class="cls-1" d="M216.64,358.17c3.67.34,7.33.67,11,1.01,5.71,2.99,12.05,3.19,18.23,3.9,2.62.3,5.18.54,8.17,1.74-8.8,1.23-16.97.26-24.79-2.14-6.46-1.98-12.7-1.76-19.12-.83-1.63.24-3.28.85-4.61-.72,3.3-2.5,7.57-1.37,11.12-2.95Z"/>
    <path class="cls-1" d="M226.7,305.83c-1.37.09-2.38-.54-3.15-1.62,1.33-2.36,3.79-2.63,6.02-2.86,4.76-.48,9.58-.09,14.35-.98,2.07-.38,4.24.34,5.59,2.86-4.09,1.96-8.33,1.71-12.54,1.89-3.43.15-6.93-.66-10.28.7Z"/>
    <path class="cls-1" d="M270,305.89c-4.46-1.58-10.06.73-15.25-4.5,7.66-2.23,14.36-.82,21.9-1.35-2.02,2.83-3.66,4.52-6.65,5.85Z"/>
    <path class="cls-6" d="M221.64,338.15c-3.75,2-8.35.62-12,3-1.99,0-3.98,0-5.97,0-1.4,1.04-2.72,2.02-4.04,3.01-2-2.47-.57-5.36-.99-8.02,7.54,2.07,15.46-.22,22.99,2.01Z"/>
    <path class="cls-1" d="M240.68,273.08c17.47-2.06,25.6-.81,26.56,4.06-9.05-.7-17.61-3.4-26.56-4.06Z"/>
    <path class="cls-5" d="M320.67,349.17c-1.12,5.21-2.49,10.34-5.23,14.98-1.27.04-2.53.08-3.8.12,1.29-1.9,2.35-3.9,2.88-6.65-.05-1.53-3.18-2.85-.96-5.61,2.15-.68,4.11-2.97,7.11-2.84Z"/>
    <path class="cls-8" d="M311.65,364.28c1.27-.04,2.53-.08,3.8-.12-2.76,7.34-8.21,12.89-12.7,19.08-2-1.58-.4-2.75.35-4.16,2.69-5.02,6.68-9.3,8.55-14.8Z"/>
    <path class="cls-1" d="M321.33,336.48c.42,1.23.85,2.46,1.27,3.69-.96.63-1.92,1.26-3.03,1.98-2.78-1.25-6.64-.62-7.94-4.92,3.24-1.98,6.53-.73,9.7-.75Z"/>
    <path class="cls-1" d="M271.36,337.76c-4.63.91-8.6-.11-13.16-2.12,6.21-2.74,10.57-1.99,13.16,2.12Z"/>
    <path class="cls-1" d="M316.84,286.5c.81-1.77,2.73-1.53,4.06-2.29,1.91.33,3.51,1.03,4.57,2.66-3.02,3.31-5.3,3.2-8.63-.36Z"/>
    <path class="cls-8" d="M289.93,279.19c-2.2-1.17-3.41-2.36-4.19-4.56,3.43-.75,6.38-.49,9.75-.16-1.17,3.53-4.64,2.48-5.57,4.72Z"/>
    <path class="cls-1" d="M326.59,305.21c.88,4.6-2.51,2.23-4.04,2.85-1.31-1.33-1.85-2.59-1.65-4.2,2.33-.77,3.74,1.44,5.69,1.36,0,0,0,0,0,0Z"/>
    <path class="cls-6" d="M349.63,387.14c.61-.69,1.22-1.38,1.84-2.06,0,0,.46.02.46.02h.46c.74.7,1.49,1.41,2.23,2.12,1.71,4.37-1.55,7.71-2.37,11.54-1.16,1.64-3.51,1.98-4.45,4.55.35,1.56.8,3.61,1.19,5.36,1.41,1.85,3.14,1.43,4.75,1.42.34.3.69.59,1.03.88-.44,4.11,5.01,3.82,5.56,7.57-1.95.49-4.19-.97-5.84.75-4.98-2.14-9.73-4.65-13.92-8.33,2.43-6.53,6.45-12.16,8.33-18.72,3.54-1.22.31-3.42.73-5.09Z"/>
    <path class="cls-1" d="M348.9,392.23c-1.88,6.56-5.9,12.19-8.33,18.72,4.2,3.68,8.95,6.19,13.92,8.33.75,1.28,1.71,2.53.59,3.7-1.69,1.66-3.08-.04-4.48.25-2.58-1.08-5.16-2.17-7.74-3.25-1.86-3.95-5.42-4.63-9.24-4.84l.03.03c.22-5.95,4.67-9.89,7.34-14.59,1.95-3.45,2.45-8.24,6.97-10.36.4.85.67,1.43.95,2.01Z"/>
    <path class="cls-1" d="M354.78,410.96c-.34-.29-.69-.59-1.03-.88-1.58-2.54-1.2-4.74.35-7.35,1.72-2.88,2.58-6.26,4.16-10.3,3.86,5.27.72,9.32-.31,13.75.53,1.79,3.72,2.02,3.5,4.93-2.15,2.3-4.43.21-6.67-.15Z"/>
    <path class="cls-1" d="M373.3,419.15c-3.67-6.2-5.98-12.81-5.83-20.17,3.95,6.15,8.51,12.08,8.29,19.58-.82.2-1.64.4-2.47.6Z"/>
    <path class="cls-8" d="M326.51,338.08c-1.71-.18-2.82-.92-2.62-3.22,3.12-2.87,6.59-3.61,10.52-1.11,4.89,3.1,8.53,7.03,10.48,12.76,2.62,7.68,6.06,15.08,9.88,22.27.85,1.61,1.87,3.19,1.78,5.11-.27,5.75,2.77,8.91,8.04,10.36.01.29.07.57.18.83-3.76.31-6.96-2.63-10.81-1.84-.17-1.74-.33-3.48-.5-5.22-.3-3.94-2.49-7.17-4.11-10.58-2.92-6.14-5.73-12.31-7.9-18.76-1.58-4.69-4.26-8.54-8.53-11.28-2.47-1.58-4.53-1.96-6.4.69Z"/>
    <path class="cls-3" d="M353.46,378.01c.17,1.74.33,3.48.5,5.22-.52.62-1.05,1.24-1.58,1.86,0,0-.46.01-.46.01,0,0-.46-.02-.46-.02-2.85-4.96-2.65-5.68,1.99-7.06Z"/>
    <path class="cls-2" d="M220.61,321.16c-.7.65-1.39,1.29-2.1,1.95-1.35-.34-2.59-.65-3.84-.96-1.14-1.78-2.27-3.56-3.78-5.91-.48-.68-5.04.68-2.23-3.17,2.35.12,4.78-.27,6.92,1.12.12,3.45,5.21,3.3,5.03,6.96Z"/>
    <path class="cls-5" d="M227.63,400.17c6.31-2.24,12.57.85,18.92.16,1.55,1.27,1.53,3.13,2.06,4.58-2.75,3.6-8.2,2.86-9.97,7.25-7.27-6.45-13.7-1.25-21.02,2.53,1.41-4.67,4.7-6.25,6.79-8.76,1.45-1.74,3.65-3,3.22-5.76Z"/>
    <path class="cls-5" d="M212.81,394.82c1.98,1.84,4.6.88,6.85,1.57-.84,3.12-3.51,3.71-6,4.71-1.67-2.14-.83-4.26-.85-6.28Z"/>
    <path class="cls-1" d="M84.89,269.38c3.32-.95,4.81-5.26,9.82-4.58.96.27.95,1.76.82,3.3-4.28,3.8-8.55,7.59-12.83,11.39-2.19-2.07-.81-4.23-.16-6.38,1.08-.67,1.22-1.77,1.33-2.89.34-.28.68-.56,1.02-.84Z"/>
    <path class="cls-2" d="M92.76,290.29c.04.78.09,1.56.15,2.57,3.4-.34,4.25-3.68,6.69-4.76-1.1,6.05-3.38,8.13-8.89,7.5,1.93-1.49-1.87-4.46,2.06-5.32Z"/>
    <path class="cls-2" d="M104.68,305.11c1.96,2.63,4.95-1.25,6.96,1.09-2.11,2.75-4.2,5.53-8.06,5.89.25-1.75,1.46-3.31,1.06-5.19.02-.6.03-1.19.05-1.79Z"/>
    <path class="cls-1" d="M98.17,303.66c-.21-4.18.76-7.8,4.78-9.96-.9,3.65-1.73,7.33-4.78,9.96Z"/>
    <path class="cls-8" d="M104.63,306.9c.4,1.88-.8,3.44-1.06,5.19-1.35,1.92-1.44,4.67-3.87,5.87.79-4.07,1.86-8.01,4.93-11.06Z"/>
    <path class="cls-2" d="M95.69,285.2c.14,2.33-.97,3.93-2.93,5.04-.09-2.3.02-4.48,2.93-5.04Z"/>
    <path class="cls-2" d="M100.52,287.08c.15-1.37.79-2.4,2.08-2.98.05,1.51.12,3.04-2.08,2.98Z"/>
    <path class="cls-2" d="M104.59,281.13c.14-.56.27-1.11.38-1.56.86-.27,1.34-.04,1.68.54-.42.88-1.19,1.06-2.06,1.03Z"/>
    <path class="cls-8" d="M93.63,315.24c.31-.35.62-.71.92-1.06-.31.35-.62.7-.92,1.06Z"/>
    <path class="cls-2" d="M333.62,415.15c3.82.21,7.39.89,9.24,4.84-1.16.25-2.54-.05-3.31,1.25-2.41-1.6-5.47-2.58-5.93-6.09Z"/>
    <path class="cls-2" d="M348.9,392.23c-.27-.58-.54-1.15-.95-2.01-4.52,2.12-5.01,6.91-6.97,10.36-2.66,4.7-7.11,8.64-7.34,14.59-1.18.18-2.27.11-3.04-.98,1.87-4.02,1.35-8.68,3.64-12.8,4.24-3.53,8.34-7.48,10.43-13.04,1.65-.41,3.3-.81,4.96-1.22-.43,1.67,2.81,3.87-.73,5.09Z"/>
    <path class="cls-2" d="M303.86,402.32c-3.13,4.77-6.62,9.23-11.06,12.88-.64-4.78,5.08-11.44,11.06-12.88Z"/>
    <path class="cls-3" d="M223.14,437.9c.57.51.57,1.01,0,1.53-.58-.51-.57-1.01,0-1.53Z"/>
    <path class="cls-2" d="M294.46,306.88c-6.75.2-9.5,9.53-18.12,6.53,5.23-6.18,11.19-10.53,17.69-14.98,4.61,4.68,8.56,9.16,11.59,14.1-.67,2.25-3.05,2-3.68,3.54.51,4.81,1,9.54,1.5,14.26-2.37,1.46-4.64.78-7.19.5-.86-3.73-.48-8.93-6.74-7.46-2.77,1.33-2.3,4.47-4.01,6.28-2.48.95-4.36-.95-6.72-.63.17-4.17,2.36-7.19,2.15-10.54,5.3-3.22,10.09-6.59,13.51-11.59Z"/>
  </g>
</svg>