<?xml version="1.0" encoding="UTF-8"?>
<svg id="Layer_1" data-name="Layer 1" xmlns="http://www.w3.org/2000/svg" viewBox="0 0 559.33 624.86">
  <defs>
    <style>
      .cls-1 {
        fill: #e34d25;
      }

      .cls-1, .cls-2, .cls-3 {
        stroke-width: 0px;
      }

      .cls-2 {
        fill: #211d21;
      }

      .cls-3 {
        fill: #fdfdfd;
      }
    </style>
  </defs>
  <path class="cls-2" d="M279.73,436.55c14.25-14.82,28.17-29.32,42.13-43.8,1.54-1.6,1.69-3.46,1.67-5.52-.25-27.15-.52-54.31-.6-81.46-.01-3.23-.83-4.16-4.12-4.16-49.82.1-99.63.09-149.45.01-2.63,0-4.24,1-5.91,2.86-19.87,22.04-48.2,25.21-72.2,7.94-2.83-2.04-4.4-1.33-6.84.4-17.39,12.38-36.21,14.42-55.1,4.77-19.09-9.75-28.64-26.4-28.47-47.93.1-13.59,5.79-25.18,15.35-34.7,2.54-2.53,2.17-3.8,0-6.29C-1.05,208.92-4.62,186.65,5.96,162.8c10.13-22.82,33.84-36.61,58.8-35.49,29.17,1.31,54.07,24.31,57.97,53.27.34,2.49-1.28,6.82,3.27,7.15,4.51.33,9.69,2.02,12.55-3.94,2.1-4.38,5.89-7.57,9.25-11.34-11.21-6.37-21.3-13.82-29.77-25.16h51.15c-9.42-4.84-17.64-10.8-25.02-19.66,6.06,0,10.98.02,15.91,0,10.83-.06,21.65-.25,32.48-.18,3.44.02,4.55-.52,3.54-4.43-5.63-21.64-6.05-43.41-.58-65.19,5.34-21.26,15.94-39.66,30.36-56.01,2.09-2.37,3.19-2.65,4.88.52,15.2,28.42,30.63,56.72,45.78,85.17,2.12,3.99,3.99,5.77,9.05,4.89,25.97-4.51,52.03-4.62,78.02,0,3.23.58,4.5-.79,5.8-3.18,15.33-28.36,30.71-56.69,46.06-85.04,2.72-5.03,2.8-5.15,6.4-.95,29.14,33.9,38.38,72.85,29.27,116.37-1.62,7.74-1.77,7.6,6.47,7.55,14.48-.09,28.97-.02,43.51-.02-1.73,5.07-4.53,7.36-24.64,20,3.87,0,6.39,0,8.91,0,16.66-.02,33.32-.06,49.98-.04,1.39,0,3.28-.8,4.09.77.81,1.58-.9,2.65-1.75,3.8-7.02,9.47-15.66,17.22-25.52,23.63-1.48.96-2.91,2-4.22,3.95,8.72,0,17.43-.02,26.15,0,7.33.02,14.66.2,21.99.08,3.59-.06,3.85,1.09,2.48,4.07-8.36,18.24-20.82,32.72-38.36,42.73-35.95,20.52-71.86,41.11-107.78,61.68-2.12,1.21-4.19,2.53-6.48,3.92,1.94,1.73,3.83,1.02,5.52,1.02,19.83.06,39.65.04,59.48.04q6.67,0,6.67,6.92c0,9.16.26,18.34-.11,27.49-.17,4.21,1.34,4.88,5.05,4.81,12.33-.21,24.66.02,36.98-.14,3.22-.04,4.67.45,4.65,4.24-.17,25.82-.15,51.65-.02,77.47.02,3.29-.88,4.25-4.2,4.23-26.16-.13-52.31-.13-78.47,0-3.34.02-4.18-.99-4.11-4.24.21-10.33-.01-20.66.14-30.99.04-2.76-.65-3.71-3.55-3.66-10.33.17-20.66.18-30.99,0-2.98-.05-3.34,1.04-3.51,3.68-.34,5.14,1.06,8.98,4.97,12.68,11.45,10.85,16.74,24.62,17,40.26.23,13.82.21,27.66,0,41.48-.05,3.39.96,4.94,4.11,6.18,24.27,9.53,48.47,19.26,72.69,28.94,2.62,1.05,5.29,2.03,7.77,3.35,7.76,4.14,10.74,12.1,7.6,19.85-3.04,7.48-11.25,11.54-19.32,9.03-6.56-2.05-12.92-4.74-19.56-7.21,1,12.83-.84,15.87-12.21,21.06-1,.46-1.84,1.36-2.65,2.16-7.2,7.11-17.61,6.96-24.14-.92-4.76-5.75-8.78-12.12-13.15-18.19-3.5-4.86-6.86-9.84-10.6-14.51-3.09-3.85-4.4-8.03-4.38-12.9.07-24.32.07-48.65.03-72.97-.01-9.77-1.57-19.18-6.94-27.65-1.88.59-.96,2.01-.96,2.92-.04,23.99-.25,47.98.13,71.97.23,14.19-4.31,25.75-15.95,34.15-2.01,1.45-2.5,3.14-2.48,5.48.12,16.66.24,33.32.06,49.98-.04,3.52,1.18,4.06,4.26,4.05,22.16-.04,44.32-.24,66.47.26,15.14.34,26.34,8.25,34.49,20.69,2.55,3.89,3.83,8.17,2.26,12.8-1.85,5.48-6.87,9.08-13.02,9.1-31.49.06-62.98.09-94.47,0-9.13-.03-14.68-6.14-14.7-15.91-.06-24.66-.02-49.32-.02-73.97,0-4.81-4.52-7.6-8.67-5.31-1.94,1.07-1.06,2.99-1.06,4.52-.06,23.82-.04,47.65-.04,71.47,0,1.33.03,2.67-.01,4-.29,10.59-5.17,15.41-15.89,15.43-26.66.05-53.31.01-79.97.02-13.16,0-26.32.24-39.38-1.85-40.27-6.46-67.04-52.74-52.41-90.65.48-1.24.87-2.51,2.35-3.66.42,3.14.64,6.08,1.23,8.94,3.36,16.22,17.31,29.28,33.5,31.49,17.47,2.38,34.05-5.72,42.04-20.63,1.41-2.63,2.66-5.36,3.79-8.12,12.26-29.86,35.05-45.41,66.6-49.05,2.23-.26,4.15-.01,4.13-3.29-.09-24.63-.05-49.26-.05-73.9-1.77-.59-2.37.95-3.22,1.8-17.96,17.84-36.2,35.42-53.72,53.69-10.77,11.23-26.91,12.42-36.75,3.71-1.39-1.23-2.64-1.2-4.49-.6-10.16,3.29-18.26-.67-21.72-10.83-2.89-8.48-5.48-17.09-7.8-25.75-3.78-14.1,5.59-23.78,19.92-20.57,2.31.52,2.57-.31,2.89-1.89,1.35-6.67,2.72-13.35,4.01-20.03.3-1.56-.62-2.85-1.28-4.19-1.77-3.57-3.63-7.11-5.15-10.79-3.68-8.87.36-17.84,9.48-20.79,2.7-.87,4.38-1.96,5.57-4.75,2.83-6.65,10.47-10.22,17.34-8.66,7.54,1.7,12.72,7.73,12.55,15.27-.19,8.36-3.27,16.26-4.53,24.48-.38,2.46-.26,4.5.85,6.68,7.38,14.63,14.7,29.3,22.89,45.66ZM172.1,293.14h6.16c34.98,0,69.96,0,104.94,0,14.66,0,29.32.01,43.98-.01,2.2,0,3.95-.31,4.32,3.06,1.81,16.31,14.66,27.33,30.96,26.95,15.31-.36,28.07-12.9,28.95-28.81.16-2.86,1.44-4.05,3.58-5.27,10.84-6.15,21.61-12.43,32.44-18.6,20.94-11.93,42.25-23.26,62.52-36.29,15.57-10,20.46-27.34,13.43-43.14-6.85-15.41-25.32-23.31-41.18-19.37-32.24,8.03-64.68,15.27-97.07,22.67-16.3,3.72-29.94-.57-40.09-14.35-.55-.74-.96-1.75-2.11-1.85-13.09,15.43-18.59,17.93-39.19,17.96-51.8.08-103.61.25-155.41.18-4.29,0-5.8,1.34-6.83,5.4-10.42,41.26-56.43,60.05-92.44,37.76-3.09-1.91-4.75-1.53-7.17.81-18.93,18.31-17.47,48.72,3.27,65.61,17.43,14.2,42.9,13.07,59.1-2.9,2.97-2.92,4.72-4.05,7.89-.25,3.08,3.69,7.27,6.29,11.69,8.37,19.46,9.12,42.41,3.64,55.1-14.33,12.75-18.06,29.6-26.01,51.52-25.7,34.47.49,68.96.35,103.44.03,33.42-.31,57.39-23.15,59.98-56.41.26-3.34.68-6.71,3.66-8.93,1.35-1.01,2.99-1.97,4.61-1.4,1.84.65,1,2.61,1,3.98.05,18.82.09,37.65-.01,56.47-.02,3.98-.17,8.06-1.05,11.91-2.1,9.21-10.04,15.34-19.95,15.96-9.37.59-17.54-4.77-21.14-13.64-.6-1.49-.07-4.85-3.37-3.57-13.18,5.12-26.93,3.54-40.52,3.61-30.98.15-61.97.09-92.95.06-12.28-.01-22.63,4.29-32.07,14.01ZM174.38,560.3c.61,7.84,2.18,14.28,5.17,20.28,10.47,21,27.27,32.97,50.79,35.22,2.96.28,5.24.46,4.4-3.9-.87-4.54,1.32-8.45,3.97-11.98,8.04-10.72,18.87-16.59,32.12-17.93,12.46-1.26,24.97-.47,37.46-.65,1.99-.03,3.78,0,5.46-1.65,7.6-7.49,14.69-15.37,20.96-24.06,6.1-8.47,9.24-17.45,8.03-27.94-.25-2.19-.73-3.66-2.61-4.88-7.51-4.9-12.71-11.67-15.44-20.21-.76-2.37-1.91-3.04-4.34-2.87-9.4.68-18.43,2.73-26.87,6.94-17.05,8.51-28.25,21.96-34.91,39.85-7.46,20.04-25.08,31.53-46.43,31.43-14.81-.07-26.84-6.41-37.75-17.64ZM480.35,409.08c10.49,0,20.98-.09,31.47.06,2.83.04,3.7-.83,3.69-3.67-.1-20.65-.1-41.29,0-61.94.01-2.67-.93-3.39-3.48-3.38-20.98.08-41.96.08-62.94,0-2.59,0-3.46.81-3.45,3.43.08,20.65.1,41.29,0,61.94-.01,2.91,1,3.66,3.76,3.62,10.32-.14,20.65-.05,30.97-.05ZM391.53,317.44c-20.12,18.5-39.95,18.31-60.16.72,0,20.92.04,41.21-.05,61.5-.01,2.78,1.19,3.29,3.61,3.27,17.63-.11,35.26-.16,52.89-.12,2.71,0,3.78-.69,3.77-3.63-.12-20.29-.06-40.57-.06-61.74ZM467.69,301.19c-22.68,0-44.23.01-65.79-.02-2.62,0-2.34,1.76-2.34,3.42,0,20.64.05,41.28-.07,61.91-.02,3.05,1.23,3.54,3.85,3.52,9.98-.11,19.97-.16,29.96.02,3.2.06,4.37-.78,4.27-4.16-.24-7.82.39-15.68-.21-23.45-.54-7.05,1.53-12.15,6.79-16.99,8.01-7.37,15.23-15.6,23.55-24.26ZM315.28,150c.91-2.37-.39-3.79-1.35-5.32-3.94-6.32-9.96-9.75-16.9-11.45-9.99-2.45-20.12-4.31-30.12-6.69-3.24-.77-4.04,0-3.96,3.21.28,10.31.14,20.63.48,30.93.61,17.98,15.71,29.82,33.4,26.39,9.48-1.84,17.79-9.16,19.05-16.78-8.51,5.78-16.54,5.46-21.82-.86-4.71-5.64-4.55-13.36.4-18.61,5.58-5.91,13.55-6.3,20.81-.84ZM382.69,153.15c0-8.66,0-16.48,0-24.29,0-1.53.19-3.17-2.23-2.62-12.12,2.77-24.64,3.88-36.28,8.58-11.27,4.55-17.42,14.82-16.71,27.35.61,10.79,8.77,20.79,19.54,23.96,11.12,3.27,23.51-.87,30.12-10.21,1.14-1.61,2.87-3.21,2.14-5.73-8.59,5.66-16.49,4.76-21.72-2.32-4.65-6.3-3.68-14.11,2.39-19.13,6.82-5.65,14.9-4.29,22.75,4.41ZM146.11,187.52h99.11c-1.57-1.93-3.97-1.53-5.94-2.02-19.35-4.74-38.66-9.66-58.13-13.81-13.81-2.95-28.86,4.11-35.03,15.83ZM415.54,488.53c0,9.4-.14,18.03.05,26.65.12,5.28,2.02,6.97,7.5,7.07,6.31.11,12.63-.04,18.94-.07,6.65-.03,13.3.04,19.94-.13,4.26-.11,6.78-2.54,7.19-6.79.38-3.97-2.42-7.05-6.84-7.67-1.63-.23-3.31-.19-4.97-.18-10.14.06-20.27.17-30.41.21-2.86.01-5.47-.58-5.47-4.24,0-3.65,2.59-4.24,5.46-4.28,4.43-.05,8.87-.01,13.3-.01.06-.27.12-.54.18-.82-8.05-3.15-16.1-6.31-24.88-9.74ZM244.99,429.47c0,.12,0,.25,0,.37-5.65,0-11.31-.23-16.95.06-6.65.34-9.75,3.12-9.47,7.81.28,4.68,3.6,7.12,10.12,7.24,5.32.1,10.65.23,15.96,0,3.95-.17,6.45.03,6.38,5.28-.07,5.15,4.85,8.81,9.83,8.55,4.81-.25,8.46-3.87,8.83-9.1.27-3.81.38-7.65.28-11.46-.16-6.13-2.82-8.65-9.02-8.74-5.32-.08-10.64-.02-15.96-.02ZM252.67,421.38c2.23,0,3.73-.09,5.22.02,3.54.26,4.78-.33,2.78-4.23-7.77-15.2-15.21-30.57-22.8-45.87-2.74-5.53-6.99-7.28-11.6-4.87-3.96,2.07-4.69,5.87-2.1,11.21,5.94,12.23,12.05,24.38,17.76,36.71,2.39,5.15,4.92,9.11,10.73,7.03ZM477.76,513.49c.01,4.57-.92,8.36-3.77,11.48-.74.81-1.01,1.73.37,2.31,7.94,3.35,15.7,7.28,24.19,9.05,3.37.7,6.05-1.29,7.34-4.7,1.24-3.29.34-6.33-2.54-7.79-8.11-4.1-16.55-7.51-25.58-10.36ZM209.77,423c-5.14.06-8.57,4.66-6.98,10.23,2.64,9.24,5.71,18.37,8.68,27.51,1.27,3.91,4.37,5.45,8.17,5,3.45-.4,5.65-2.58,6.08-6.24.46-3.97-.79-6.21-5.01-7.67-10.05-3.48-13.49-14.58-7.75-23.17.75-1.12,2.67-2.08,1.67-3.69-1.01-1.62-2.95-2.02-4.86-1.97ZM440.9,530.37c4.98,6.58,8.82,12.33,13.37,17.47,3.63,4.1,10.24,2.16,11.94-3.03,1.51-4.6-5.01-14.27-9.84-14.41-4.61-.13-9.23-.03-15.47-.03ZM254.88,467.1c-4.79-2.59-9.44-5.37-11.29-10.64-1.52-4.32-4.88-3.35-7.78-3.07-4.03.39-.74,3.34-1.34,5.01-.49,1.37-.38,2.96-.87,4.33-.66,1.86-.2,3.09,1.28,4.31,5.35,4.4,13.73,4.57,20,.06ZM342.64,560.14c-5.71,7.54-11.92,14.13-18.82,21.57,6.17,0,11.09-.08,16,.04,2.17.05,2.89-.72,2.85-2.86-.1-6.25-.04-12.5-.04-18.74ZM249.49,375.05c1.04-5.63,2.23-10.14,2.6-14.72.29-3.56-1.66-6.33-5.31-7.51-3.49-1.13-6.16.1-8.17,2.96-.75,1.06-1.73,2.57-.15,3.47,5.77,3.31,6.9,9.85,11.03,15.8ZM450.78,556.7c-6.92-7.29-11.54-15.54-17.24-22.97-2.09-2.73-4.22-4.54-8.05-2.61,5.26,7.44,10.5,14.64,15.48,22.01,2.36,3.5,5.27,4.75,9.82,3.58ZM228.05,404.94c-.76,4.01-1.24,6.76-1.8,9.49-1.51,7.35-.48,8.34,6.97,7.17,2.28-.36,2.81-.98,1.68-3.1-2.22-4.16-4.26-8.41-6.85-13.56Z"/>
  <path class="cls-3" d="M172.1,293.14c9.43-9.72,19.79-14.03,32.07-14.01,30.98.04,61.97.09,92.95-.06,13.58-.07,27.34,1.51,40.52-3.61,3.31-1.29,2.77,2.08,3.37,3.57,3.6,8.87,11.77,14.23,21.14,13.64,9.9-.62,17.85-6.74,19.95-15.96.88-3.85,1.03-7.93,1.05-11.91.1-18.82.06-37.65.01-56.47,0-1.37.83-3.32-1-3.98-1.62-.58-3.26.39-4.61,1.4-2.98,2.23-3.4,5.59-3.66,8.93-2.59,33.25-26.56,56.1-59.98,56.41-34.48.32-68.97.46-103.44-.03-21.92-.31-38.77,7.63-51.52,25.7-12.68,17.97-35.64,23.45-55.1,14.33-4.43-2.07-8.61-4.68-11.69-8.37-3.17-3.8-4.93-2.67-7.89.25-16.21,15.96-41.67,17.1-59.1,2.9-20.74-16.89-22.19-47.3-3.27-65.61,2.43-2.35,4.08-2.73,7.17-.81,36.01,22.29,82.03,3.5,92.44-37.76,1.03-4.07,2.55-5.41,6.83-5.4,51.8.07,103.61-.1,155.41-.18,20.6-.03,26.1-2.52,39.19-17.96,1.15.1,1.56,1.1,2.11,1.85,10.15,13.78,23.78,18.08,40.09,14.35,32.39-7.4,64.83-14.65,97.07-22.67,15.86-3.95,34.33,3.96,41.18,19.37,7.03,15.8,2.14,33.13-13.43,43.14-20.28,13.03-41.59,24.35-62.52,36.29-10.83,6.17-21.6,12.45-32.44,18.6-2.14,1.21-3.42,2.41-3.58,5.27-.87,15.91-13.63,28.45-28.95,28.81-16.3.38-29.15-10.64-30.96-26.95-.37-3.37-2.12-3.06-4.32-3.06-14.66.02-29.32.01-43.98.01-34.98,0-69.96,0-104.94,0h-6.16Z"/>
  <path class="cls-3" d="M174.38,560.3c10.91,11.23,22.94,17.58,37.75,17.64,21.35.1,38.96-11.39,46.43-31.43,6.66-17.89,17.85-31.34,34.91-39.85,8.44-4.21,17.47-6.27,26.87-6.94,2.43-.17,3.58.5,4.34,2.87,2.74,8.54,7.94,15.31,15.44,20.21,1.88,1.23,2.36,2.7,2.61,4.88,1.22,10.49-1.93,19.47-8.03,27.94-6.27,8.7-13.35,16.57-20.96,24.06-1.68,1.65-3.47,1.62-5.46,1.65-12.49.18-25-.61-37.46.65-13.25,1.34-24.08,7.21-32.12,17.93-2.65,3.53-4.84,7.44-3.97,11.98.84,4.36-1.44,4.19-4.4,3.9-23.52-2.25-40.32-14.22-50.79-35.22-2.99-6-4.56-12.44-5.17-20.28Z"/>
  <path class="cls-1" d="M480.35,409.08c-10.32,0-20.65-.08-30.97.05-2.77.04-3.78-.71-3.76-3.62.1-20.65.09-41.29,0-61.94-.01-2.62.86-3.44,3.45-3.43,20.98.08,41.96.08,62.94,0,2.55,0,3.49.71,3.48,3.38-.09,20.65-.1,41.29,0,61.94.01,2.84-.86,3.71-3.69,3.67-10.49-.14-20.98-.06-31.47-.06ZM476.59,349.17c-.92-.29-.95.36-1.03.97-.75.94-3.52-1.3-2.9,1.83-3.06.53-2.79,7.76-8.01,3.99-2.25-2.07-.66-4.89-1.43-7.23.35.07.58.93,1,.21.16-.27,0-.74-.02-1.12,1.84-.15,3.67-.29,6.28-.5-2.89-1.56-4.51-.35-6.16.61-.35.29-.7.58-1.05.87-.57,2.57-2.33,5.39,1.48,7.04-.3,3.09,3.93,1.25,4.13,3.8,1.26-2.43,4.39-3.05,5.1-6.09,2.99,2.9,5.02,6.09,8.59,7.5-.14.82.13,1.21,1,.99-.32.95.37.96.98,1.03,2.3,1.62,4.25,1.16,5.91-1,.68.01.96-.38,1.01-1,.24-3.07,4.28-2.4,4.96-5.04,1.02.38,1.1-.21,1.01-.98,2.08-1.96,1.88-3.92.03-5.9,0-.67-.33-1.02-1.01-1-2.3-2.38-4.61-2.3-6.92,0-.66.01-.98.36-1.01,1-.94.41-1.52,3.49-2.93.35-.38-.85-.92-1.76-2.17-1.32-1.95-2.65-3.91-2.35-5.86-.01-.82-.15-1.22.12-1,1.01ZM470.14,362.36c.13-.26.27-.52.4-.79-.21-.06-.41-.12-.62-.18.11.3.21.6.32.91,1.7.98,3.32,2.45,6.52.44-3.07,1.18-4.57-1.3-6.61-.39ZM491.55,388.13c-3.98-6.34,1.6-9.52,4.85-13.53-2.33-.73-4.19-.52-5.94.58-.52-1.91,1.73-3.95-1.02-6.64-1.36,1.73-2.48,3.59-4.02,5.01-2.54,2.34-6.89,1.92-9.03-.6,1.54.74,3.2.56,4.83.71,3.41.3,3.02-1.92,3.16-4.13.17-2.62-.79-3.6-3.39-3.36-2.06.19-4.56-.6-4.24,2.99.11,1.29-.17,2.61-.27,3.92-2.87.35-3.21-3.64-6.26-3.68,1.18,4.6-1.37,5.42-5.17,4.84q7.15,10.4-.17,20.8c2.1,0,3.91,0,5.71,0-.26,1.59-.73,3.19.16,4.77,2.41-.36,2.84-3.84,5.63-3.49,1.31,2.4-1.69,7.2,4.56,6.73,6.84-.51,1.65-5.6,3.7-8.09,1.92,1.73,3.8,3.43,5.7,5.14,1.5-2.32-.18-4.17.12-6.09,1.84.92,3.68,1.62,5.73.4-1.05-2.63-4.55-3.28-4.75-6.38,1.31.06,2.64,0,3.94.19,2.9.41,3.59-.89,3.59-3.61,0-2.68-.62-3.86-3.54-3.68-2.32.14-4.35-.03-3.88,3.28.18,1.29.02,2.63.01,3.95ZM462.42,384.04c-.11,2.28-.53,4.41,3,4.22,2.87-.15,4.19-.92,4.23-4.02.04-2.66-.82-3.48-3.4-3.33-2.25.14-4.57-.25-3.84,3.12Z"/>
  <path class="cls-1" d="M391.53,317.44c0,21.17-.05,41.46.06,61.74.02,2.94-1.05,3.64-3.77,3.63-17.63-.05-35.26,0-52.89.12-2.42.02-3.63-.49-3.61-3.27.09-20.29.05-40.57.05-61.5,20.22,17.59,40.04,17.78,60.16-.72Z"/>
  <path class="cls-1" d="M467.69,301.19c-8.32,8.66-15.54,16.88-23.55,24.26-5.25,4.84-7.33,9.94-6.79,16.99.6,7.78-.03,15.64.21,23.45.1,3.37-1.06,4.21-4.27,4.16-9.98-.18-19.97-.13-29.96-.02-2.62.03-3.87-.47-3.85-3.52.12-20.64.06-41.28.07-61.91,0-1.66-.28-3.42,2.34-3.42,21.56.03,43.11.02,65.79.02Z"/>
  <path class="cls-3" d="M315.28,150c-7.27-5.46-15.24-5.07-20.81.84-4.95,5.25-5.11,12.97-.4,18.61,5.28,6.32,13.31,6.63,21.82.86-1.26,7.62-9.57,14.94-19.05,16.78-17.69,3.43-32.79-8.41-33.4-26.39-.35-10.3-.2-20.62-.48-30.93-.09-3.22.72-3.98,3.96-3.21,10.01,2.38,20.13,4.24,30.12,6.69,6.94,1.7,12.96,5.13,16.9,11.45.95,1.53,2.26,2.95,1.35,5.32Z"/>
  <path class="cls-3" d="M382.69,153.15c-7.85-8.7-15.94-10.06-22.75-4.41-6.06,5.02-7.04,12.83-2.39,19.13,5.22,7.08,13.12,7.97,21.72,2.32.73,2.53-1,4.12-2.14,5.73-6.61,9.34-19,13.49-30.12,10.21-10.77-3.17-18.93-13.17-19.54-23.96-.71-12.53,5.45-22.8,16.71-27.35,11.64-4.7,24.16-5.81,36.28-8.58,2.42-.55,2.23,1.09,2.23,2.62,0,7.82,0,15.63,0,24.29Z"/>
  <path class="cls-3" d="M146.11,187.52c6.16-11.72,21.22-18.78,35.03-15.83,19.47,4.15,38.79,9.08,58.13,13.81,1.98.48,4.38.09,5.94,2.02h-99.11Z"/>
  <path class="cls-3" d="M415.54,488.53c8.78,3.44,16.83,6.59,24.88,9.74-.06.27-.12.54-.18.82-4.43,0-8.87-.04-13.3.01-2.87.03-5.46.63-5.46,4.28,0,3.66,2.6,4.25,5.47,4.24,10.14-.04,20.27-.15,30.41-.21,1.66,0,3.34-.05,4.97.18,4.42.62,7.22,3.69,6.84,7.67-.41,4.24-2.93,6.68-7.19,6.79-6.64.18-13.29.1-19.94.13-6.31.03-12.63.19-18.94.07-5.48-.1-7.38-1.79-7.5-7.07-.2-8.62-.05-17.26-.05-26.65Z"/>
  <path class="cls-3" d="M244.99,429.47c5.32,0,10.64-.06,15.96.02,6.21.09,8.86,2.61,9.02,8.74.1,3.82,0,7.65-.28,11.46-.37,5.22-4.02,8.85-8.83,9.1-4.99.26-9.91-3.4-9.83-8.55.08-5.26-2.43-5.45-6.38-5.28-5.31.23-10.64.1-15.96,0-6.52-.12-9.84-2.56-10.12-7.24-.28-4.69,2.83-7.47,9.47-7.81,5.64-.29,11.3-.06,16.95-.06,0-.12,0-.25,0-.37Z"/>
  <path class="cls-3" d="M252.67,421.38c-5.82,2.09-8.35-1.88-10.73-7.03-5.71-12.33-11.83-24.48-17.76-36.71-2.59-5.34-1.86-9.14,2.1-11.21,4.61-2.41,8.86-.66,11.6,4.87,7.59,15.3,15.02,30.67,22.8,45.87,1.99,3.9.76,4.49-2.78,4.23-1.49-.11-2.99-.02-5.22-.02Z"/>
  <path class="cls-3" d="M477.76,513.49c9.04,2.85,17.47,6.26,25.58,10.36,2.88,1.46,3.78,4.5,2.54,7.79-1.29,3.41-3.97,5.4-7.34,4.7-8.48-1.77-16.24-5.7-24.19-9.05-1.38-.58-1.11-1.5-.37-2.31,2.85-3.12,3.79-6.91,3.77-11.48Z"/>
  <path class="cls-3" d="M209.77,423c1.91-.05,3.85.35,4.86,1.97,1,1.61-.92,2.56-1.67,3.69-5.74,8.59-2.3,19.7,7.75,23.17,4.21,1.46,5.47,3.7,5.01,7.67-.43,3.66-2.63,5.84-6.08,6.24-3.8.45-6.9-1.1-8.17-5-2.97-9.15-6.04-18.27-8.68-27.51-1.59-5.56,1.84-10.17,6.98-10.23Z"/>
  <path class="cls-3" d="M440.9,530.37c6.24,0,10.86-.1,15.47.03,4.83.14,11.36,9.81,9.84,14.41-1.7,5.18-8.31,7.13-11.94,3.03-4.55-5.13-8.4-10.89-13.37-17.47Z"/>
  <path class="cls-3" d="M254.88,467.1c-6.27,4.52-14.65,4.35-20-.06-1.48-1.21-1.94-2.45-1.28-4.31.49-1.37.38-2.96.87-4.33.6-1.67-2.69-4.62,1.34-5.01,2.9-.28,6.25-1.26,7.78,3.07,1.86,5.27,6.5,8.05,11.29,10.64Z"/>
  <path class="cls-3" d="M342.64,560.14c0,6.25-.07,12.5.04,18.74.03,2.14-.69,2.92-2.85,2.86-4.91-.12-9.82-.04-16-.04,6.9-7.44,13.11-14.03,18.82-21.57Z"/>
  <path class="cls-3" d="M249.49,375.05c-4.13-5.95-5.26-12.49-11.03-15.8-1.58-.91-.6-2.41.15-3.47,2.01-2.86,4.68-4.09,8.17-2.96,3.65,1.18,5.59,3.95,5.31,7.51-.37,4.58-1.56,9.09-2.6,14.72Z"/>
  <path class="cls-3" d="M450.78,556.7c-4.55,1.17-7.45-.08-9.82-3.58-4.98-7.37-10.22-14.57-15.48-22.01,3.83-1.93,5.96-.11,8.05,2.61,5.71,7.44,10.33,15.68,17.24,22.97Z"/>
  <path class="cls-3" d="M228.05,404.94c2.59,5.15,4.63,9.4,6.85,13.56,1.13,2.12.6,2.74-1.68,3.1-7.45,1.18-8.48.18-6.97-7.17.56-2.73,1.04-5.49,1.8-9.49Z"/>
  <path class="cls-3" d="M470.61,395.03h-5.71q7.31-10.39.17-20.8c3.8.58,6.35-.24,5.17-4.84,3.05.04,3.39,4.03,6.26,3.68l-.1-.12c2.15,2.52,6.5,2.95,9.04.6,1.54-1.42,2.66-3.29,4.02-5.01,2.75,2.69.51,4.73,1.02,6.64l.12-.13c-1.23-.5-1.59-.12-1.11,1.11l.11-.11c-1.23-.49-1.59-.12-1.11,1.11l.11-.11c-1.23-.49-1.59-.12-1.11,1.11l.11-.11h-13.65c1.1,4.61.24,8.89.54,13.11l.11-.11c-1.26-.52-1.63-.16-1.11,1.11l.11-.11c-1.26-.53-1.63-.16-1.11,1.11l.11-.11c-1.26-.53-1.63-.16-1.11,1.11l.11-.11c-1.27-.53-1.63-.16-1.11,1.11l.12-.13Z"/>
  <path class="cls-3" d="M490.46,394c-.29,1.91,1.38,3.77-.12,6.09-1.89-1.71-3.78-3.41-5.7-5.14-2.05,2.49,3.14,7.58-3.7,8.09-6.25.47-3.25-4.33-4.56-6.73-2.79-.35-3.22,3.13-5.63,3.49-.88-1.58-.42-3.18-.16-4.77,0,0-.12.13-.12.13.37-.37.74-.74,1.11-1.11,0,0-.11.11-.11.11.37-.37.74-.74,1.11-1.11,0,0-.11.11-.11.11.37-.37.74-.74,1.11-1.11,0,0-.11.11-.11.11.37-.37.74-.74,1.11-1.11,0,0-.11.11-.11.11,4.79-1.03,9.52-1.01,14.1.97l-.11-.11c-.44,1.18-.08,1.55,1.11,1.11l-.11-.11c-.45,1.18-.08,1.55,1.11,1.11l-.12-.13Z"/>
  <path class="cls-3" d="M496.45,356.01c-.68,2.64-4.72,1.97-4.96,5.04l.08.1c.98-4.02-3.77-4.36-4.6-8.44-1.16,3.86-5.74,4.33-4.49,8.42l.1-.1c-3.56-1.41-5.59-4.6-8.59-7.5-.72,3.04-3.85,3.67-5.1,6.09-.2-2.54-4.43-.7-4.13-3.8l-.1.11c5.21,3.78,4.94-3.45,8-3.98-.63-3.13,2.14-.89,2.9-1.83l-.08-.1c.04,3.52,4.2,3.64,5.24,6.56.5-3.15,7.77-3.76,2.83-8.54l-.1.11c1.25-.44,1.79.47,2.17,1.32,1.41,3.14,2,.06,2.93-.35l-.08-.09c.21,4.88,4.3,8.47,8.08,7.09l-.1-.12Z"/>
  <path class="cls-3" d="M490.47,375.18c1.75-1.1,3.61-1.32,5.94-.58-3.26,4.01-8.83,7.2-4.85,13.53l-.12-.12c.2,3.1,3.71,3.75,4.76,6.39-2.04,1.22-3.89.52-5.73-.4,0,0,.12.13.12.13-.07-.67-.44-1.04-1.11-1.11,0,0,.11.11.11.11-.07-.67-.44-1.04-1.11-1.11l.11.11c-3.24-4.48-2.34-9.26-1-14.07,0,0-.11.11-.11.11.37-.37.74-.74,1.11-1.11,0,0-.11.11-.11.11.37-.37.74-.74,1.11-1.11l-.11.11c.37-.37.74-.74,1.11-1.11,0,0-.12.13-.12.13Z"/>
  <path class="cls-3" d="M476.5,373.07c.1-1.31.38-2.63.27-3.92-.32-3.59,2.18-2.8,4.24-2.99,2.6-.24,3.55.74,3.39,3.36-.14,2.22.24,4.44-3.16,4.13-1.63-.15-3.29.04-4.83-.71,0,0,.1.12.1.12Z"/>
  <path class="cls-3" d="M491.55,388.13c0-1.32.17-2.66-.01-3.95-.47-3.3,1.55-3.14,3.88-3.28,2.93-.18,3.54,1,3.54,3.68,0,2.72-.69,4.02-3.59,3.61-1.3-.18-2.63-.13-3.94-.19,0,0,.12.12.12.12Z"/>
  <path class="cls-3" d="M462.42,384.04c-.73-3.37,1.58-2.99,3.84-3.12,2.58-.15,3.44.67,3.4,3.33-.05,3.09-1.37,3.87-4.23,4.02-3.54.19-3.12-1.95-3-4.22Z"/>
  <path class="cls-3" d="M489.56,348.13c2.31-2.3,4.61-2.38,6.91,0l.09-.08c-2.37-.67-4.73-.52-7.1,0l.09.08Z"/>
  <path class="cls-3" d="M464.32,347.91c1.67-.95,3.28-2.16,6.17-.6-2.61.21-4.45.35-6.28.5l.11.1Z"/>
  <path class="cls-3" d="M464.76,355.83c-3.82-1.65-2.06-4.47-1.48-7.03,0,.01-.07-.1-.07-.1.77,2.36-.81,5.18,1.44,7.24,0,0,.1-.12.1-.12Z"/>
  <path class="cls-3" d="M477.58,348.16c1.96-2.34,3.91-2.64,5.86.01,0,0,.1-.11.1-.11-2.02-.76-4.04-.61-6.07,0l.1.1Z"/>
  <path class="cls-3" d="M497.48,349.14c1.86,1.97,2.05,3.94-.03,5.9l.1.1c0-2.03,0-4.06,0-6.09l-.08.09Z"/>
  <path class="cls-3" d="M490.48,362.06c-1.66,2.16-3.61,2.62-5.91,1l-.1.08c2.15.4,4.06-.69,6.1-1l-.09-.08Z"/>
  <path class="cls-3" d="M470.12,362.37c2.06-.93,3.56,1.55,6.63.37-3.2,2.01-4.82.54-6.52-.44l-.11.07Z"/>
  <path class="cls-3" d="M484.56,363.06c-.61-.08-1.29-.09-.98-1.03l-.1.11c.52.15,1.28.06.98,1.01l.1-.08Z"/>
  <path class="cls-3" d="M464.21,347.81c.02.38.18.84.02,1.12-.42.72-.66-.14-1.01-.22,0,0,.07.1.06.09.34-.3.69-.59,1.04-.89,0,0-.11-.1-.11-.1Z"/>
  <path class="cls-3" d="M476.59,349.17c-.23-.89.17-1.16,1-1.01,0,0-.1-.1-.1-.1-.03.64-.4.94-1,1l.1.11Z"/>
  <path class="cls-3" d="M491.49,361.05c-.05.63-.33,1.02-1.01,1,0,0,.09.08.09.08-.03-.7.03-1.31,1-.99l-.08-.1Z"/>
  <path class="cls-3" d="M483.59,362.02c-.88.22-1.15-.18-1-.99,0,0-.1.1-.1.1.33.33.67.67,1,1l.1-.11Z"/>
  <path class="cls-3" d="M470.24,362.31c-.11-.3-.21-.6-.32-.91.21.06.41.12.62.18-.13.26-.27.52-.41.79,0,0,.1-.06.1-.06Z"/>
  <path class="cls-3" d="M488.55,349.13c.03-.65.35-.99,1.01-1,0,0-.09-.08-.09-.08.13.8-.08,1.25-1,.99l.08.09Z"/>
  <path class="cls-3" d="M497.46,355.03c.1.77.02,1.36-1.01.98,0,0,.1.11.1.12.34-.33.67-.66,1.01-1l-.1-.1Z"/>
  <path class="cls-3" d="M475.56,350.14c.07-.61.11-1.26,1.03-.97,0,0-.1-.11-.1-.11-.18.49,0,1.35-1.01.98l.08.1Z"/>
  <path class="cls-3" d="M496.48,348.13c.68-.01,1.01.33,1.01,1,0,0,.08-.09.08-.09-.84.18-1.12-.21-1-.99l-.09.08Z"/>
  <path class="cls-1" d="M487.59,378.05c-1.34,4.81-2.24,9.59,1,14.07-4.59-1.98-9.31-2-14.1-.97-.3-4.22.56-8.49-.54-13.11h13.65Z"/>
  <path class="cls-1" d="M474.6,391.05c-.37.37-.74.74-1.11,1.11-.53-1.26-.16-1.63,1.11-1.11Z"/>
  <path class="cls-1" d="M473.6,392.05c-.37.37-.74.74-1.11,1.11-.53-1.26-.16-1.63,1.11-1.11Z"/>
  <path class="cls-1" d="M472.6,393.05c-.37.37-.74.74-1.11,1.11-.53-1.26-.16-1.63,1.11-1.11Z"/>
  <path class="cls-1" d="M471.6,394.05c-.37.37-.74.74-1.11,1.11-.53-1.26-.16-1.63,1.11-1.11Z"/>
  <path class="cls-1" d="M490.59,375.05c-.37.37-.74.74-1.11,1.11-.49-1.22-.13-1.6,1.11-1.11Z"/>
  <path class="cls-1" d="M489.59,376.05c-.37.37-.74.74-1.11,1.11-.48-1.22-.12-1.6,1.11-1.11Z"/>
  <path class="cls-1" d="M488.59,377.05c-.37.37-.74.74-1.11,1.11-.49-1.22-.12-1.6,1.11-1.11Z"/>
  <path class="cls-1" d="M488.48,392.02c.67.07,1.04.44,1.11,1.11-1.18.45-1.55.08-1.11-1.11Z"/>
  <path class="cls-1" d="M489.48,393.01c.67.07,1.04.44,1.11,1.11-1.18.45-1.55.08-1.11-1.11Z"/>
  <path class="cls-1" d="M496.57,348.05c-.12.78.16,1.17,1,.99,0,2.03,0,4.06,0,6.09-.34.33-.67.66-1.01,1-3.78,1.38-7.87-2.2-8.08-7.09.92.26,1.13-.19,1-.99,2.37-.52,4.73-.66,7.1,0Z"/>
  <path class="cls-1" d="M483.48,362.13c-.33-.33-.67-.67-1-1-1.25-4.09,3.33-4.56,4.49-8.42.83,4.08,5.57,4.41,4.6,8.44-.97-.32-1.04.29-1,.99-2.04.32-3.95,1.4-6.1,1,.3-.95-.46-.86-.98-1.01Z"/>
  <path class="cls-1" d="M475.47,350.04c1.01.37.83-.49,1.01-.98.6-.06.97-.36,1-1,2.02-.61,4.04-.76,6.07,0,4.94,4.78-2.34,5.39-2.83,8.54-1.05-2.92-5.21-3.04-5.24-6.56Z"/>
</svg>