<?xml version="1.0" encoding="UTF-8"?>
<svg id="Layer_1" data-name="Layer 1" xmlns="http://www.w3.org/2000/svg" viewBox="0 0 711.03 797.25">
  <defs>
    <style>
      .cls-1 {
        fill: #242023;
      }

      .cls-1, .cls-2, .cls-3, .cls-4 {
        stroke-width: 0px;
      }

      .cls-2 {
        fill: #fff;
      }

      .cls-3 {
        fill: #faf9f9;
      }

      .cls-4 {
        fill: #e44d25;
      }
    </style>
  </defs>
  <path class="cls-2" d="M428.21,797.25c-1.16,0-2.16-.09-2.84-.16h-52.04c-22.87,0-45.73,0-68.6.03-9,0-15.84-3.4-20.81-6.36-.22-.13-.43-.26-.64-.4-2.57,1.87-5.38,3.3-8.42,4.3-3.13,1.63-6.68,2.5-10.43,2.5-.95,0-1.76-.06-2.31-.1-18.43.01-36.86.01-55.3.02-17.19,0-34.38,0-51.56.01-7.85,0-15.16-2.65-22.37-8.09-6.03-4.55-10.49-11.59-12.21-19.32-1.3-5.83-1.04-11.86.7-17.6-1.85-.49-3.73-1.04-5.63-1.67-.26-.03-.59-.07-.86-.11-1.12-.13-2.51-.3-4.1-.61-3.89-.76-7.73-1.58-11.44-2.37,0,0-2.29-.48-3.23-.68-3.18-.66-6.46-1.35-9.87-2.22-.91-.23-2.09-.46-3.34-.69-2.6-.5-5.81-1.11-9.27-2.26-.31-.06-.88-.14-1.31-.21-.98-.15-2.2-.33-3.55-.61-1.28-.26-2.56-.52-3.85-.77-4.18-.82-8.49-1.67-13.01-2.91-.26-.07-1.06-.21-1.64-.31-1.54-.26-3.65-.63-5.99-1.31-1.92-.56-4.26-1.02-6.73-1.5-1.25-.24-2.5-.49-3.74-.75-3-.63-14.22-2.98-14.22-2.98-5.56-1.16-10.36-4.64-13.21-9.55-.16-.28-.35-.6-.56-.94-.81-1.37-1.93-3.24-3.01-5.35-2.9-5.65-3.61-11.84-1.98-17.43.14-.47.33-1.57.49-2.54.35-2.04.79-4.57,1.64-7.38.34-1.1.62-2.61.95-4.36.15-.81.31-1.63.47-2.44.5-2.5,1.05-4.89,1.59-7.21.31-1.36.63-2.73.93-4.09.36-1.66.71-3.32,1.05-4.98.49-2.37.99-4.73,1.52-7.09.26-1.17.54-2.34.81-3.51.56-2.38,1.08-4.63,1.47-6.74.89-4.8,1.83-9.12,2.87-13.21.23-.89.45-2.05.68-3.28.5-2.63,1.13-5.89,2.31-9.4.06-.33.15-.94.21-1.4.14-.95.28-1.9.45-2.84.03-.22.05-.45.07-.67.19-1.79.5-4.65,1.63-7.88.24-2.32.91-5.49,2.72-8.83,1.52-2.82,3.71-5.23,6.36-7.03l6.31-4.29c3.41-2.31,7.33-3.45,11.23-3.45,2.49,0,4.98.46,7.32,1.39,3.39.52,6.4,1.3,9,1.97,1.11.29,2.21.57,3.32.83,1.28.29,2.57.56,3.87.83,1.47.31,2.93.61,4.4.94.21.04.94.13,1.48.19,2.31.28,5.47.65,9.05,1.88,2.11.72,4.58,1.3,7.35,1.72,2.99.45,5.72,1.08,8.12,1.64,1.6.37,3.1.72,4.4.95.51.09,1.02.17,1.53.26,3.45.58,7.69,1.29,12.26,2.96.23.04.47.07.7.1.93.13,2.09.3,3.39.56l1.17.24c5.42,1.09,11.02,2.22,16.84,3.93.32.07,1.09.18,1.67.26.99.14,2.22.32,3.56.57,2.26.44,4.34.93,6.35,1.4,1.9.45,3.7.87,5.29,1.16,4.03.72,7.8,1.61,11.45,2.46l.64.15c.32.08.97.18,1.61.29.74.12,1.59.27,2.54.46,3.69-1.61,7.3-2.98,10.81-4.31,4.33-1.65,8.45-3.21,12.12-5-1.22-7.59-1.41-15.61-.54-23.85.32-3.07.34-6.52.36-10.18,0-1.05.01-2.13.02-3.24-1.43.2-2.9.31-4.38.31h-.51c-2.79,0-5.57.04-8.53.09-2.98.05-6.06.1-9.16.1-5.3,0-9.69-.15-13.82-.46-1.46-.11-2.92-.25-4.38-.38-2.76-.26-5.36-.5-7.54-.5-.95,0-1.77.05-2.45.14-6.34.86-12.34.97-16.87.97-2.06,0-4.13-.03-6.19-.05-1.89-.02-3.78-.05-5.67-.05-2.2,0-4,.03-5.67.11l-.42.02c-.81.04-1.82.08-2.96.08-1.73,0-3.32-.11-4.87-.33-3.25-.47-5.75-1.5-7.25-2.11-.23-.1-.49-.21-.77-.31-3-1.1-5.7-2.9-7.86-5.25-6.47-7.04-6.44-15.44-6.43-19.03v-.37c.01-10.76.01-21.53.01-32.29,0-17.08,0-34.15.04-51.23,0-3.05.45-5.62.77-7.5.08-.45.16-.9.22-1.36,1.35-9.91,9.82-17.29,19.82-17.29h31.14c0-.06,0-.13,0-.19-.03-4.26-.06-8.66.08-13.18.1-3.25.63-6.06,1.06-8.32.13-.7.27-1.43.4-2.21.73-4.62,3.05-8.83,6.57-11.91l3.67-3.22c3.65-3.2,8.34-4.96,13.19-4.96h3.43c-1.69-1.04-3.4-2.14-5.12-3.32-.55-.38-1.95-1.05-3.18-1.65-1.56-.75-3.32-1.6-5.21-2.69-3.83-2.19-7.62-4.43-11.29-6.6-2.19-1.3-4.38-2.59-6.58-3.88l-1.01-.59c-2.18-1.28-4.23-2.48-6.17-3.48-6.87-3.55-13.44-7.37-19.8-11.07-2.03-1.18-4.07-2.37-6.1-3.54-7.34-4.22-13.46-8.48-18.72-13.03l-.85-.73c-3.21-2.77-6.85-5.91-10.27-9.74-5.03-5.61-10.81-12.51-15.62-21.06-2.08-3.7-3.98-7.37-5.82-10.92l-.61-1.18c-5.53-10.67-3.29-22.4,5.71-29.89,3.59-2.99,8.12-4.63,12.79-4.63h5.19c-.05-.06-.1-.12-.15-.18-4.71-5.59-6-13.32-3.34-20.13l1.16-2.98c2.99-7.69,10.39-12.76,18.64-12.76h21.91c-.43-4.34.57-8.77,2.95-12.58,3.66-5.84,10.06-9.39,16.95-9.39h4.29c-.69-1.4-1.34-2.85-1.94-4.36-.3-.77-.62-1.53-.93-2.3-1.74-4.24-3.82-9.32-4.75-15.43-1.64-4.43-1.69-8.41-1.65-10.58-.71-3.39-.71-6.33-.72-8.39,0-.37,0-.85,0-1.11-.65-4.64.12-8.44.8-10.9-.11-3.59.46-6.67,1.43-9.29.54-3.73,1.58-6.85,2.36-9.2l.29-.86c3.72-11.39,8.98-20.69,16.1-28.44,6.78-7.38,12.76-12.75,21.6-16.67.13-.06.26-.11.39-.17,1.39-3.51,3.08-7.26,5.47-11.11,3.59-5.79,8.6-13.27,15.49-19.8,8.18-7.75,15.63-13.45,23.46-17.94,1.42-.81,2.82-1.65,4.23-2.49,3.91-2.33,7.96-4.75,12.55-6.93,7.69-3.66,16.06-6.88,26.33-10.11,6.38-2.01,13.1-3.76,21.16-5.52l1.77-.39c2.96-.66,6.32-1.41,9.99-1.9,1.22-.17,2.56-.39,3.98-.63,3.08-.52,6.48-1.1,10.25-1.34,2.65-.79,5.48-1.18,8.52-1.18,1.12,0,2.07.05,2.84.09.21.01.42.02.63.03.85-.06,1.72-.09,2.71-.09.32,0,.65,0,.97,0,3.17-.82,5.89-.93,7.78-.93.52,0,1.04.01,1.57.02.18,0,.36,0,.53.01,1.55-.11,3.14-.16,4.73-.16s3.23.06,4.85.17c1.99.14,3.81.36,5.42.56,1.24.15,2.42.3,3.33.35.27,0,.83-.03,1.28-.06.97-.05,2.18-.12,3.53-.12,2.71,0,5.19.28,7.56.85.21,0,.42.01.62.02,2.07.06,5.2.15,8.84,1.15.5.14,1.97.3,3.04.42,3.21.36,7.49.84,12.21,2.56.24.02,1.75.16,1.75.16,4.4.42,8.2,1.44,11.26,2.25.85.23,1.7.46,2.55.66,5.38,1.29,10.37,3.11,14.76,4.71,1.42.52,2.84,1.04,4.26,1.53,11.2,3.9,19.36,7.61,29.13,13.26,5.15,2.98,10.2,6.19,14.25,8.77,2.39,1.52,5.18,3.35,7.93,5.81.8.71,1.6,1.41,2.4,2.12,3.89,3.43,7.92,6.98,11.85,11.14,10.35,10.97,17.14,23.48,22.93,35.36.39.8.72,1.62,1,2.45.06.06.89.9,1.24,1.26.67.69,1.3,1.34,1.78,1.78,9.85,9.03,16.81,20.64,21.28,35.51.99,3.3,1.49,6.36,1.89,8.83.21,1.27.4,2.48.6,3.29,1.45,5.9,1.38,11.06,1.33,15.2-.01.94-.03,1.89,0,2.83.12,6.52-1.17,12.25-2.2,16.86-.27,1.21-.54,2.42-.78,3.64-1.08,5.56-3.02,10.09-4.59,13.73-.15.35-.3.7-.44,1.04.21,0,.42,0,.63,0,1.21,0,3.05.02,5.1.16,6.88.48,13.02,4.47,16.26,10.56,1.87,3.52,2.62,7.45,2.25,11.3h9.39c1.46,0,2.89.16,4.28.46,3.6-3.29,7.31-5.74,10.37-7.76,1.14-.75,2.21-1.46,3.16-2.13,8.1-5.73,16.82-8.45,25.04-10.53,6.47-1.64,13.28-2.47,20.24-2.47,6.55,0,13.36.74,20.22,2.19,7.9,1.67,15.69,4.75,24.49,9.69,8.51,4.77,16.12,10.78,22.63,17.86,3.63,3.95,6.69,7.98,9.09,12,2.64,4.41,5.03,9.28,7.11,14.48,1.92,4.8,3.38,9.73,4.36,14.65.17.83.34,1.66.52,2.49,1.14,5.37,2.56,12.04,1.7,19.75-.74,6.62-1.69,12.17-3,17.46-2.61,10.58-7.44,19.09-12.27,26.86.92,1.33,1.76,2.63,2.56,3.86.74,1.14,1.44,2.21,2.1,3.17,4.35,6.26,6.37,13.08,7.3,17.69l.28,1.38c1.06,5.2,2.26,11.1,2.22,17.82v.49c0,1.92,0,5-.87,8.63.1,2.19-.01,5.22-1.09,8.53-.38,3.11-1.23,5.94-2.54,8.45-2.89,10.32-6.78,15.6-10.56,20.73-.67.92-1.4,1.9-2.17,3-5.27,7.46-11.77,12-16.99,15.64l-.36.25c-6.58,4.59-14,8.12-22.06,10.5-4.2,1.24-8.51,2.19-12.82,2.83-.4.06-.8.12-1.2.19-2.39.38-5.37.85-8.85.85-1.16,0-2.31-.05-3.43-.16-8.58-.82-16.53-2.64-24.31-5.57-4.53-1.71-8.2-3.93-11.21-5.82-6.23,3.67-12.52,6.09-18.08,8.11-4.03,1.46-7.63,1.85-10.26,2.13-.38.04-.75.08-1.12.13-.94.12-1.9.18-2.9.2-2.11.7-4.34,1.06-6.63,1.06-1.15,0-2.12-.09-2.71-.16-2.41-.18-4.37-.63-5.78-.96-.3,0-.61.02-.91.02-5.34,0-9.53-1.57-12.04-2.5-.29-.11-.58-.22-.88-.32-.32-.11-.94-.28-1.55-.45-1.94-.54-4.6-1.28-7.5-2.63-7.74-3.61-17.67-8.93-26.03-18.12-29.98.04-60.03.05-85.66.05h-61.41c-.04,10.25-.34,20.43-.62,30.39-.39,13.78-.8,28.01-.52,41.81.15.15.31.3.45.43.53.52,1.07,1.04,1.59,1.56,1.49,1.5,3.07,3.01,4.74,4.61,3.92,3.76,7.98,7.65,11.87,12.28,1.65,1.98,3.42,3.92,5.27,5.85,3.75-7.52,7.52-15.08,11.22-22.59-.14-1.1-.19-2.08-.21-2.87-.74-2.86-1.3-5.63-1.82-8.13-.2-.99-.41-1.98-.62-2.96-.37-1.72-.73-3.53-1.12-5.71-.12-.63-.2-1.23-.26-1.8-.84-2.36-1.27-4.89-1.26-7.5.01-2.45.42-4.84,1.19-7.07.14-1.48.45-3.15,1.04-4.92.46-1.35,1.05-2.65,1.78-3.87.26-.44.49-.87.72-1.3,1.41-2.62,3.55-6.57,7.64-10.26,4.16-3.75,10.89-8.87,21.32-9.97,1.63-.17,3.26-.26,4.84-.26,11.43,0,21.64,4.53,28.74,12.76,1.46,1.69,2.62,3.38,3.57,4.92,3.42,1.62,7.83,4.02,11.86,8.28,10.39,10.98,11.31,22.58,10.25,30.37-.57,4.22-2.04,7.58-2.91,9.59l-1.16,2.68c-1.2,2.8-2.43,5.65-3.77,8.56.08.47.15.92.21,1.34.07.46.16,1.02.24,1.46,11.56,2.32,21.43,9.61,26.29,19.85,5.14,10.85,2.8,24.14,2.28,26.7-1.02,4.99-2.36,9.53-3.65,13.92-.41,1.4-.82,2.79-1.22,4.19-2.05,7.24-4.21,14.33-8.15,21.51-2.37,4.32-5.33,7.19-7.1,8.91-.17.17-.35.33-.51.5-2.27,3.09-5.39,5.47-8.99,6.84-.31.12-.6.24-.87.36-1.32.55-3.32,1.38-5.8,1.97-2.19.52-5.17,1.12-8.75,1.12-2.37,0-4.57-.26-6.68-.66-6.2,4.05-12.75,6.11-19.47,6.11h-.17c-.6,0-1.2-.01-1.8-.02-.5,0-.99-.02-1.49-.02-.44,0-.69,0-.82.02-.91.06-1.82.09-2.72.09-8.16,0-16.18-2.37-23.83-7.06-4.51-2.76-8.19-5.58-11.25-8.62-9.82-9.75-19.7-19.61-29.5-29.41v21.24c1.48.31,3.01.68,4.58,1.13,3.87,1.11,7.5,2.31,11.49,3.66,8.82,2.97,20.6,9.89,26.14,13.86,6.08,4.35,10.74,9.3,14.85,13.67.64.68,1.28,1.36,1.93,2.04,4.18,4.38,7.05,9.17,9.36,13.02l.55.91c2.5,4.15,5.62,9.32,7.96,15.21.59,1.49,1.38,3.17,2.22,4.94.68,1.44,1.38,2.93,2.09,4.55,1.06,2.41,2.71,4.52,4.91,6.25,1.32,1.04,3.26,2.5,4.97,3.23,2.57,1.1,4.73,1.92,6.7,2.54,1.42.04,3.44.12,5.81.58,2.02-.44,3.88-.72,5.49-.96,1.15-.17,2.71-.4,3.32-.58,7.23-3.64,11.59-7.88,14.11-13.73.5-1.15,1.23-2.85,1.42-3.57.11-3.65.82-6.7,1.34-8.95.12-.53.25-1.06.35-1.6,1.19-6.27,5.3-11.58,11.07-14.32,2.72-1.29,5.65-1.93,8.58-1.93,3.28,0,6.55.8,9.51,2.41,11.05,5.97,13.46,16.87,14.36,20.97l.09.4c.09.43.32,1.2.54,1.94.82,2.75,1.93,6.52,2.13,11.11,1.98,7.5,1.25,14.34.73,19.15l-.1.96c-1.02,9.76-3.45,19.47-7.21,28.86-1.26,3.15-3.01,7.31-5.36,11.52-1.93,3.46-4.57,8.19-8.57,12.49-.7.75-1.57,1.86-2.49,3.03-2.9,3.69-6.71,8.54-12.7,12.4-6.94,6.54-14.77,10.32-21.18,13.41l-1.81.88c-7.4,3.61-14.98,5.72-22.53,6.27-.19.02-.92.16-1.46.26-.92.17-2.08.39-3.36.56-.92.13-1.84.2-2.79.24-2,.67-4.34,1.12-7.01,1.12Z"/>
  <path class="cls-1" d="M328.18,539.39v86.31c1.72,1.25,3.96,1.12,6.14,1.51,4.31.77,8.66,1.25,12.93,2.47,3.58,1.03,7.09,2.2,10.61,3.39,6.07,2.05,15.89,7.6,20.89,11.17,5.29,3.79,9.53,8.62,13.94,13.24,2.89,3.04,5.06,6.82,7.25,10.45,2.39,3.97,4.81,8.01,6.51,12.29,1.38,3.45,3.09,6.72,4.57,10.11,2.42,5.53,6.17,10.25,10.84,13.93,2.87,2.27,5.98,4.42,9.5,5.92,3.42,1.46,6.89,2.79,10.42,3.79,2.39.68,5.07-.06,7.59,1.03,1.27.54,3.07.46,4.44.03,5.08-1.58,10.55-1.2,15.48-3.66,10.62-5.3,18.95-12.72,23.73-23.79,1.5-3.46,2.95-6.86,3.04-10.77.06-2.49.87-4.96,1.36-7.54,3.16,1.71,3.77,5.14,4.44,8.14.86,3.83,2.66,7.55,2.12,11.64,2.08,4.91,1.32,10.16.81,15.07-.84,8.03-2.85,15.94-5.88,23.5-1.26,3.14-2.62,6.27-4.27,9.22-1.68,3.01-3.41,6.1-5.74,8.59-4.17,4.48-7.16,10.17-12.89,13.11-5.4,5.78-12.54,8.91-19.43,12.26-4.72,2.3-9.84,3.91-15.22,4.3-2.04.15-4.05.68-6.09.96-2.04.28-4.18-.55-6.14.94-.64.48-1.94.08-2.94.08-40.5,0-81-.02-121.5.03-3.98,0-7.35-1.64-10.53-3.54-1.6-.95-2.45-3.15-3.45-4.92-1.78-1.81-4.45-1.04-6.53-1.99-2.29-1.05-4.53-.17-6.7-.66-2.29,5.06-5.19,9.28-11.12,10.18-.93,1.42-2.38.87-3.63.87-35.83.02-71.66.01-107.5.03-4,0-7.29-1.78-10.31-4.05-2.53-1.9-4.12-4.94-4.74-7.72-.81-3.64-.22-7.44,1.94-11.09,3.16-5.35,7-9.99,11.42-14.26.3-.29.37-.84.73-1.71-4.72.18-8.87-1.47-13.14-2.38-6.53-1.39-13.18-2.4-19.55-4.61-2.21-.76-4.68-.76-7-1.21-3.85-.75-7.68-1.57-11.51-2.39-3.98-.85-7.98-1.63-11.91-2.63-3.78-.96-7.68-1.34-11.41-2.61-2.21-.76-4.63-.89-6.94-1.37-5.22-1.08-10.48-1.97-15.61-3.38-2.43-.67-4.92-.83-7.34-1.53-3.9-1.13-7.94-1.77-11.93-2.61-4.47-.94-8.94-1.87-14.25-2.98-.76-1.32-2.01-3.31-3.08-5.4-.41-.81-.8-1.92-.57-2.72.93-3.18,1.11-6.54,2.06-9.65.88-2.88,1.31-5.79,1.9-8.7.74-3.68,1.65-7.32,2.45-10.98.87-3.98,1.65-7.98,2.54-11.95.82-3.66,1.75-7.3,2.44-10.99.74-4,1.58-7.99,2.58-11.93.96-3.78,1.33-7.68,2.63-11.4.77-2.2.91-4.63,1.34-6.95.4-2.17.29-4.64,1.34-6.42,1.02-1.71.06-3.26.98-4.95,1.89-1.28,4.09-2.77,6.31-4.28.22.19.57.79.95.81,4.93.22,9.54,1.82,14.29,2.89,2.74.62,5.52,1.15,8.29,1.77,2.78.62,5.75.56,8.4,1.47,3.56,1.22,7.27,2.04,10.86,2.59,4.08.62,8.02,1.81,12.06,2.51,3.61.63,7.35,1.12,10.91,2.5,1.93.75,4.3.84,6.47,1.28,5.51,1.11,11.03,2.18,16.43,3.78,2.26.66,4.66.81,6.99,1.25,3.99.77,7.91,1.89,11.9,2.61,3.71.66,7.37,1.54,11.03,2.4,2.73.64,5.56.77,8.23,1.86,2.23.91,4.45-.42,6.35-1.3,9.1-4.2,18.81-6.93,27.71-11.58,3.56-.21,6.21-2.09,8.04-4.03,2.23-5.38,2.08-10.49,1.24-15.16-1.18-6.59-1.24-13.19-.57-19.6.85-8.07.09-16.12.92-24.09.55-5.36,1.91-10.7,4-15.8,3.49-8.51,8.66-15.85,15.28-22.14,2.05-1.94,3.07-4.41,4.57-6.92v-8.8c-.44-.4-.92-.85-1.45-1.33h-39.15c-.47.47-.83.83-1.36,1.36v40.1c-2.05,1.7-4.23,2.43-6.7,2.43-10.17-.02-20.38.55-30.48-.21-6.21-.47-12.51-1.44-18.58-.62-10.89,1.48-21.75.33-32.61.81-1.5.07-3.02.17-4.49-.04-1.2-.17-2.33-.8-4.02-1.42-1.24-1.35-1.16-3.58-1.15-5.85.02-27.83,0-55.66.05-83.5,0-2.01.51-4.02.81-6.19h34.34c3.67,0,7.34.09,11-.04,1.86-.07,3.71-.53,5.51-.8,1.65-4.33,1.97-8.35.53-12.49-.31-.89-.21-1.94-.21-2.91-.02-5.5-.13-11,.05-16.5.08-2.53.74-5.04,1.22-8.04.85-.75,2.1-1.84,3.67-3.22,23.12,0,46.77.01,70.42-.03,1.55,0,3.46.82,4.44-1.66-1.41-1.02-2.92-2.33-4.62-3.29-6.08-3.41-12.33-6.52-18.31-10.08-6.94-4.13-14.16-7.8-20.98-12.07-7-4.39-14.47-7.98-21.29-12.67-3.03-2.09-6.59-3.39-9.81-5.23-5.94-3.39-11.8-6.93-17.7-10.38-2.68-1.57-5.35-3.16-8.1-4.58-8.55-4.41-16.78-9.39-25.1-14.17-5.43-3.12-10.75-6.62-15.61-10.81-3.22-2.79-6.49-5.53-9.3-8.68-4.87-5.44-9.46-11.07-13.09-17.53-2.13-3.79-4.1-7.64-6.1-11.49-1.02-1.97-1.32-3.6.75-5.32h55.9c-3.1-3.57-6.84-5.35-9.92-7.87-2.7-2.21-5.77-3.98-8.29-6.46-3.32-3.27-6.69-6.51-9.88-9.92-2.54-2.72-4.83-5.67-7.48-8.82.28-.73.67-1.74,1.16-2.99h69.45c-11.15-6.98-23.98-14.44-27.63-21.96h4.03c12.17,0,24.34-.24,36.5.11,5.6.16,10.93-1.5,16.56-1.1v-1.66c-4.5-.49-10.3-1.9-14.31-4.24-1.47-.86-3.23-1.39-4.43-2.52-6.89-6.55-13.78-13.11-17.39-22.27-2.05-5.21-4.54-10.27-4.78-16.02-2.03-2.5-.62-5.6-1.42-8.39-.79-2.75-.21-5.87-.65-8.77-.34-2.25.87-4.04,1.11-6.09.22-1.87-.97-4.01.96-5.59-.21-3.41.97-6.52,2-9.67,2.55-7.81,6.2-15,11.81-21.11,5.86-6.38,9.59-9.53,14.98-11.92,2.53-1.12,5.2-1.94,7.73-2.87,2.2-5.45,3.83-11.03,7.01-16.15,3.57-5.75,7.42-11.25,12.26-15.83,5.99-5.68,12.36-10.93,19.66-15.12,5.11-2.94,10.1-6.18,15.42-8.71,7.66-3.65,15.63-6.54,23.73-9.09,6.39-2.01,12.87-3.63,19.42-5.06,3.39-.74,6.71-1.55,10.18-2.02,5.22-.71,10.36-2,15.68-1.9,2.87-1.79,6.05-.74,9.09-.99,2.28-.18,4.75.25,6.81-.48,2.33-.82,4.53-.33,6.77-.5,2.32-.17,4.67-.16,6.99,0,3.04.21,6.05.76,9.09.93,2.99.17,6.16-.57,8.95.2,2.92.81,5.88.2,8.6.95,4.72,1.29,9.71.81,14.35,2.74,1.74.72,4.04.83,6.03,1.02,3.82.36,7.42,1.58,11.05,2.45,5.83,1.4,11.44,3.71,17.12,5.69,9.9,3.44,16.87,6.58,25.69,11.68,4.6,2.66,9.06,5.49,13.52,8.33,1.86,1.19,3.74,2.42,5.38,3.88,4.41,3.92,8.95,7.75,12.99,12.04,8.38,8.88,14.19,19.5,19.5,30.4.04,3.65,2.7,5.67,4.95,7.95,1.17,1.18,2.31,2.4,3.54,3.53,7.91,7.25,12.6,16.42,15.64,26.52,1.09,3.62,1.34,7.49,2.22,11.12,1.13,4.6.67,9.1.75,13.63.1,5.58-1.56,10.91-2.62,16.34-.94,4.87-3.22,9.06-4.93,13.51-1.56,4.05-4.2,7.73-7,11.07-4.07,4.85-8.88,8.96-14.5,11.98-1.21.65-2.57,1.02-4.87,1.91,3.72.18,6.49.09,9.25.11,2.67.02,5.33,0,8,0h16.5c2.83,0,5.67-.02,8.5,0,2.59.02,5.19-.11,8,.09-3.75,6.5-17.36,17.44-26.11,21.25.01.12-.01.26.05.35.09.13.24.3.36.3,18.33.01,36.65.01,55,.01-3.79,7.29-15.61,18.75-32.73,28.77.59,1.82,2.24,2.79,3.5,4.01,3.13,3.04,5.92,6.28,7.68,10.34.94,2.16,2.91,2.81,5.06,2.87,2.49.07,4.98.02,7.19.02,1.32-.79,2.4-1.43,3.34-1.99.17-.47.38-.76.37-1.05-.05-7.38,2.28-14.21,4.59-21.1,2.03-6.05,5.76-11.01,9.21-16.2,2.39-3.6,5.55-6.43,8.54-9.44,3.72-3.75,8.34-6.28,12.61-9.3,5.61-3.97,12.08-5.87,18.4-7.47,10.3-2.61,20.98-2.31,31.4-.1,6.65,1.41,12.85,4.2,18.86,7.57,6.68,3.75,12.55,8.37,17.68,13.95,2.47,2.69,4.78,5.61,6.65,8.74,2.21,3.69,4.1,7.63,5.69,11.63,1.43,3.58,2.56,7.33,3.31,11.11,1.05,5.32,2.57,10.71,1.96,16.15-.55,4.98-1.32,9.94-2.54,14.89-2.02,8.2-6.15,15.21-10.5,22.16-1.79,2.85-4.4,5.19-6.75,7.89v4.47c5.67,3.88,8.81,10.05,12.64,15.57,2.06,2.96,3.41,6.67,4.12,10.23,1,4.98,2.14,10,2.11,15.15-.01,2.06.08,4.05-.83,6.15-.73,1.68.56,4.36-.32,5.83-1.15,1.9.12,4.34-1.82,5.78-2.44,10.77-5.41,13.32-10.58,20.64-3.34,4.73-7.97,7.9-12.45,11.03-4.87,3.4-10.45,6-16.25,7.71-3.31.97-6.67,1.72-10.13,2.24-2.88.43-5.75,1.02-8.61.75-6.56-.63-12.89-2.02-19.16-4.38-5.52-2.08-9.84-5.94-15.05-8.34-.43-.2-.72-.69-.96-.93-4.11-1.52-6.86,1.24-9.59,3.13-5.44,3.75-11.46,6.12-17.57,8.34-2.19.79-4.64.92-7,1.21-2.21.27-4.56-.54-6.61.99-.32.24-.98.06-1.47.03-2.55-.13-4.9-1.39-7.59-1.07-2.52.3-4.88-.89-7.26-1.7-2.34-.8-4.83-1.24-7.05-2.28-7.36-3.44-14.33-7.49-19.86-13.64-1-1.11-2.17-2.08-3.16-3.2-2.07-2.34-4.56-3.17-7.72-3.17-47.83.07-95.66.05-143.49.05h-25.93c-.52.52-.99.99-1.65,1.65,1.06,30.69-1.6,61.52-.86,92.39.04,1.5,0,2.99,0,3.57,1.48,5.08,4.85,7.72,7.8,10.69,5.17,5.2,10.77,10.04,15.46,15.64,7.25,8.66,15.72,16.07,23.43,24.25.66.7,1.35,1.36,2.34,2.34,1.1-1.88,2.09-3.37,2.89-4.97,7.33-14.63,14.66-29.25,21.89-43.93,1.01-2.06,1.48-4.38,2.18-6.59.1-.3.16-.81,0-.97-1.74-1.7-.74-4-1.29-5.97-1.11-3.91-1.82-7.92-2.68-11.9-.36-1.69-.69-3.39-1-5.09-.28-1.54.65-3.29-.94-4.65-.33-.28-.34-1.61-.02-1.88,1.78-1.49.5-3.46.95-4.8,1.53-2.56,2.49-5.08,4.6-6.97,2.92-2.63,5.88-4.48,10.02-4.92,7.51-.79,12.87,1.66,16.34,5.68,1.8,2.09,2.95,4.74,4.39,7.12,3.84,2.29,8.4,3.32,11.66,6.77,3.74,3.95,5.69,8.49,4.95,13.93-.22,1.65-.98,3.25-1.65,4.8-2.07,4.81-4.09,9.65-6.45,14.32-.56,1.1-1.15,2.18-.78,3.14,1.47,3.83,1.21,8.02,2.8,11.84.7,1.68.64,3.75.89,5.56.31,2.21,1.43,4.26,1.3,6.69,1.39.28,2.6.18,4.1-.26,6.44-1.9,16.79.94,20.44,8.64,1.69,3.57,1.62,9.9.75,14.13-1.16,5.66-2.96,11.15-4.52,16.67-1.66,5.88-3.42,11.84-6.43,17.32-1.65,3.01-4.52,4.69-6.19,7.18-1.57.6-2.83,1.24-4.17,1.56-3.97.94-5.74.76-11.34-.76-.46-.12-.94-.19-1.41-.2-.98-.03-1.96,0-2.71,0-2.19,1.44-4.15,2.73-6.11,4.04-2.66,1.77-5.51,2.98-8.77,2.96-1.83,0-3.67-.1-5.5.02-5.42.35-10.31-1.31-14.81-4.07-2.7-1.65-5.36-3.53-7.6-5.75-20.01-19.87-39.93-39.84-59.86-59.8-1.14-1.14-2.17-2.38-3.73-4.1ZM260.09,662.98c-.07.07-.13.13-.2.2.23.27.46.54.7.82l.32-.32c-.27-.23-.54-.46-.91-.59-1.08-3.13-4.12-3.16-6.55-3.93-2.09-.66-4.74-.14-6.45-1.22-2.09-1.32-4.3-.45-6.41-1.5-2.29-1.15-5.24-.97-7.91-1.31-.2-.03-.45.38-.63.55v2.4c2.76-.44,5.13,1.15,7.93,1.19,1.34.02,3.33.8,4.08,2.74.39,1,1.23,1.83,2.18,3.19-.4,2.53-.87,5.52-1.41,8.99-2.13,1.29-4.53,2.73-6.25,3.77-3.49-.76-6.23-1.35-9.57-2.07-.99-1.54-2.26-3.5-3.67-5.69h-4.88c-1.42.96-2.73,1.85-4.61,3.12-1.99-.55-4.52-1.31-7.09-1.93-2.45-.59-4.81-1.49-7.46-1.34-3.98.22-7.98.06-11.97.06h-7.86c4.57,4.26,1.17,8.57,1.44,12.79-2.17,1.05-4.32,2.75-6.63,3.04-2.57.32-5.3-.65-8.31-1.11-1.59-2.05-3.36-4.31-4.81-6.18.78-3.32,1.45-6.18,2.22-9.44-1.35-.44-2.36-.77-3.46-1,.07-.07.13-.13.2-.2-.23-.27-.46-.54-.7-.82-.11.11-.21.21-.32.32.27.23.54.46.91.59.5,3.44-.7,6.64-1.44,10.05-2.04,1.2-4.15,2.45-5.84,3.45-3.35-.66-6.42-1.26-9.83-1.93-.82-1.52-1.78-3.3-2.89-5.37,0-1.31-.18-2.99.05-4.62.21-1.51.86-2.96,1.33-4.49,1.39-.98,2.82-1.98,4.66-3.26,3.01.34,6.45.73,11.01,1.25-3.71-2.36-3.34-5.57-4.53-8.07-1.43.98-2.87,1.96-4.72,3.22-3.23-.43-6.88-.92-10.31-1.38-1.18-1.86-2.26-3.57-3.69-5.82.4-2.62.88-5.75,1.3-8.48,2.04-1.3,3.75-2.39,5.88-3.75,2.92.42,6.25.89,9.34,1.34,1.09,1.35,2.11,2.62,2.93,3.64,1.37-1.65,2.53-3.04,3.65-4.39-.51-.51-.86-.86-.78-.78-36.36-7.82-72.21-15.53-108.18-23.26-.34.64-.79,1.16-.9,1.75-.63,3.4-1.53,6.75-2.21,10.13-1.14,5.63-2.28,11.32-3.86,16.86-1.21,4.21-1.36,8.63-2.88,12.79-.75,2.04-.5,4.43-1.14,6.54-.61,2.02-.44,4.25-1.12,6.04-.77,2.06-1.08,4.21-1.73,6.27-.71,2.24-.61,4.72-1.12,7.05-.76,3.49-2.04,6.9-2.52,10.42-.4,2.9-2,5.69-1.41,8.31,1.63.63,2.77,1.43,3.93,1.45,3.22.08,6.22,1.03,9.28,1.8,3.17.8,6.41,1.46,9.59,2.1,2.77.55,5.52,1.28,8.3,1.74,2.97.49,6.12.77,8.86,1.63,5.4,1.7,11.07,1.96,16.41,3.78,2.52.86,5.21,1.05,7.81,1.63,2.6.58,5.39.91,7.88,1.59,5.27,1.43,10.63,2.64,15.93,3.59,5.74,1.03,11.44,2.42,17.16,3.49,5.78,1.08,11.64,2.26,17.38,3.77,3.34.88,6.85,1.14,10.07,2.23,3.24,1.1,6.25.56,9.41.49-.06-.7-.08-1.02-.11-1.33-13.06-2.57-26.02-5.57-39.01-8.42-12.98-2.84-26-5.52-38.71-8.2-1.21-1.78-2.19-3.21-3.46-5.06.35-2.92.75-6.24,1.09-9.07,2.22-1.41,3.93-2.49,5.94-3.78,2.53.34,5.38.69,8.22,1.11.43.06.78.58,1.21.67,5.2,1.13,10.41,2.23,15.63,3.3,2.31.48,4.73.61,6.94,1.37,3.73,1.27,7.6,1.83,11.41,2.56,3.86.74,7.64,1.82,11.53,2.47,3.64.61,7.28,1.77,10.91,2.45,4.02.76,7.94,1.96,12.04,2.49,4.14.53,8.18,1.99,12.34,2.7,2.18.37,4.54.55,6.5,1.21,5.38,1.81,11.04,2.14,16.43,3.75,1.49.45,3.06.66,4.58,1.03,1.5.36,2.98.79,4.26,1.13,1.41,2.75,2.68,5.22,4.03,7.84h3.31c2.48-1.86,4.76-3.56,6.64-4.96,5.45,1.22,10.32,2.3,15.73,3.51.19.32.61,1.03.81,1.37h7.61c1.44-1.07,2.37-1.76,3.09-2.3,0-9.85,0-19.35,0-28.85,0-.14-.09-.3-.17-.42-.09-.12-.23-.2-.63-.54-.22,4-4.28,3.93-5.81,6.29-5.55-1.21-10.76-2.35-16.49-3.6-1.01-1.34-2.35-3.13-4.02-5.36.43-2.68.93-5.79,1.43-8.97,1.42-.99,2.85-1.99,4.52-3.14,1.67,0,3.77-.38,5.63.11,1.87.49,3.72.69,5.6.97,1.95.29,3.93,1.01,5.64,1.99,1.56.89,2.79,2.36,4.21,3.62v-5.7c-3.53-.77-7.04-1.54-10.35-2.26-.69-.92-1.41-1.75-1.97-2.68-.99-1.63-2.47-3.63-1.44-5.25,1.19-1.88.4-3.81,1.13-5.75,1.71-1.27,3.52-2.61,5.46-4.06,1.62,0,3.45,0,5.37-.1ZM496.92,404.09c-1.61-1.45-3.07-2.66-4.4-3.99-4.31-4.34-9.66-6.87-15.27-9.02-5.73-2.2-11.82-2.84-17.76-2.87-41.49-.22-82.98-.09-124.47-.16-4.2,0-8.37.3-12.63-.78-3.46-.88-6.94-1.78-10.42-2.68-1.19-.31-2.43-.42-3.31-.57-1.18,2.97-1.98,5.67-3.28,8.1-1.92,3.6-4.91,6.29-8.36,8.46-1.98,1.24-9.89,3.71-12.04,3.47-1.38-.15-2.71-.81-4.09-.94-8.65-.82-16.31-6.93-18.86-15.38-1.09-3.62-2.04-7.31-2.04-11.16.02-23.5,0-47,.02-70.5,0-.28.22-.57.3-.76.77-.35,1.47-.67,2.25-1.03.76.43,1.63,1.17,2.63,1.45,3.35.91,3.89,4.05,4.64,6.51.72,2.35.86,5.08.98,7.54.31,6.59,3.05,12.51,4.21,18.82,5.44,10.95,11.9,21.06,22.18,28.26,3.09,2.16,6.27,4.07,9.69,5.6,3.51,1.57,6.94,3.69,10.63,4.43,3.69.74,7.36,2.3,11.13,2.08,4.14-.23,8.02,1.13,12.09,1.13,39.83-.05,79.66,0,119.49-.06,4.69,0,9.14.88,13.7,1.9,7.43,1.66,14.02,4.79,20.4,8.8,1.99,1.25,3.24,3.32,5.23,4.24,2.69,1.24,4.65,3.33,6.14,5.49,3,4.35,6.61,8.18,9.72,12.42,3.1,4.23,7.51,7.17,11.89,9.86,5.3,3.25,11.28,5.59,17.38,6.11,6.28.53,12.71.87,19.09-.72,8.4-2.09,15.74-5.93,22.22-11.57,1.79-1.56,3.59-3.1,5.52-4.78,1.81,1.55,3.39,2.9,4.97,4.25,2.34,2,4.38,4.64,7.07,5.88,5.3,2.44,10.26,5.75,16.29,6.58,3.11.43,6.21,1.16,9.34,1.5,3.03.32,6.08.08,9.1-.87,2.39-.75,5.08-.56,7.44-1.37,7.33-2.51,13.78-6.61,19.7-11.59,3.39-2.85,5.78-6.53,8.04-10.19,2.92-4.72,5.04-9.91,6.49-15.29.61-2.29.85-4.7,1.01-7.08.17-2.49.22-5.01-.01-7.49-.24-2.66-.59-5.38-1.39-7.91-1.44-4.55-2.95-9.09-5.53-13.21-3.28-5.24-6.4-10.55-12.59-12.68-1.31.56-2.69.93-3.84,1.68-8.35,5.44-17.62,8.88-27.36,9.83-7.07.69-14.34.8-21.6-.59-5.75-1.1-11.08-3.04-16.38-5.22-6.63-2.73-12.36-6.98-17.57-11.84-2.73-2.54-5.25-5.3-7.6-8.27-2.87-3.63-5.01-7.58-7.36-11.49-2.76-4.6-4.03-9.71-5.63-14.67-1.1-3.39-2.79-5.56-6.2-6.24-1.57-.32-3.21-.43-4.82-.43-53.83-.02-107.66.04-161.49-.08-8.19-.02-16.37.61-24.61-.79-7.42-1.26-14-3.53-19.32-8.97-3.46-3.54-6.98-7-10.59-10.61-2.28,2.96-3.89,6.07-6.4,8.05-4.27,3.39-8.39,6.93-13.66,9.17-5,2.13-10.26,1.58-15.17,3.21-2.57-1.32-5.55-.33-8.04-1.13-5.22-1.68-10.65-2.54-15.94-3.62-5.38-1.09-10.64-2.8-16.18-3.49-3.89-.48-7.8-2.01-11.78-2.81-4.12-.83-8.14-2.22-12.28-2.9-5.12-.83-9.91-3.23-15.21-3.14-6.1-2.49-12.69-3.06-18.98-4.87-4.65-1.34-9.5-1.96-14.14-3.32-5.21-1.54-10.34-3.11-15.86-2.75-1.83.12-3.7.26-5.49-.03-3.01-.49-5.93.42-8.5,1.3-10.06,3.43-18.11,9.6-23.49,19.03-3.2,5.61-4.11,11.76-4.91,17.96-.26,2.04.37,4.05.82,6.11,1.26,5.77,2.35,9.42,5.12,13.91,2.52,4.08,5.63,7.87,9.46,10.49,8.49,5.79,17.35,11.07,26.26,16.21,7.24,4.18,14.47,8.4,21.85,12.36,2.99,1.6,6.21,2.95,8.98,4.87,6.16,4.29,12.94,7.44,19.42,11.15,5.24,3,10.42,6.13,15.71,9.07,5.69,3.16,11.26,6.62,17.02,9.67,3.72,1.97,5.26,4.92,5.26,8.77,0,3.76,1.42,7.03,2.77,10.37,3.31,8.18,13.46,17.71,23.44,18.92,6.21.75,12.46,1.31,17.58-.39,5.33-1.78,9.92-4.7,13.88-8.78,5.89-6.06,9.06-13.19,9.59-21.67,1.78-2.09,4.24-2.32,6.93-2.32,55.5.04,110.99.03,166.49.03h5.29ZM280.4,179.29c.84-.4,1.64-1.05,2.5-1.16,3.52-.44,7.05-.72,10.58-1.03.66-.06,1.61.28,1.95-.06,2.03-1.95,4.45-.54,6.63-.94,2.18-.4,4.38-.93,6.58-.97,6.66-.13,13.34-.19,20,0,6.53.18,13.14-.93,19.59.96,4.45-.76,8.67,1.29,13.09,1.01.46-.03,1.12-.03,1.37.25,1.41,1.51,3.16.42,4.71.74,1.53.32,3.06.93,4.59.94,3.25.03,5.27-2.3,6.94-4.63,1.61-2.25,2.75-4.84,4.06-7.3,3.19-6.01,6.38-12.02,9.52-18.06.92-1.77,1.41-3.82,2.54-5.43,3.93-5.65,6.87-11.75,9.19-18.21.78-2.16,1.78-4.38,3.19-6.15,4.71-5.91,7.64-12.87,11.5-19.27,3.51-5.82,6.48-11.97,9.64-18,.71-1.36,1.19-2.83,1.85-4.42-4.03-2.47-7.68-4.93-11.52-7.01-4.47-2.42-8.99-4.86-13.73-6.67-4.89-1.87-9.82-3.68-14.85-5.24-7.8-2.42-15.79-3.7-23.69-5.5-4.97-1.13-10.14-.89-15.18-1.94-3.03-.63-6.31-.24-9.47-.08-3.27.16-6.27-1.46-9.59-1.09-4.67.52-9.35-.07-14.12.86-5.37,1.05-11.07-.39-16.57,1.13-2.11.58-4.36-.07-6.63.92-2.08.9-4.85-.53-7.02,1.15-4.21-.27-8.17,1.11-12.15,2.07-3.45.84-6.91,1.81-10.35,2.7-5.42,1.42-10.72,3.26-15.78,5.42-5.35,2.28-10.81,4.68-15.63,8.15-3.42,2.47-6.87,4.88-10.43,7.41,1.52,2.47,3.02,4.66,4.27,6.99,3.07,5.72,6.02,11.5,9.03,17.25.29.55.66,1.08,1.06,1.56,3.97,4.71,7.46,9.72,9.91,15.4,1.59,3.67,2.89,7.48,4.61,11.09,4.04,8.54,8.82,16.69,13.33,24.99,3.33,6.12,6.56,12.29,9.96,18.36.37.67.6,1.42.83,1.98,1.33.65,2.43,1.2,3.68,1.81ZM494.98,704.28c-1.48,1.14-2.3,1.62-2.93,2.29-6.01,6.28-13.02,10.99-21.13,14.17-4.58,1.79-9.3,2.89-14.11,3.28-7.12.57-14.26.16-21.15-1.96-4.27-1.31-8.58-2.63-12.35-5.17-5.12-3.44-10.29-6.74-14.04-11.9-1.86-2.56-3.88-5-5.24-7.85-2.73-5.7-5.31-11.46-8.03-17.17-3.78-7.94-8.5-15.22-14.92-21.32-5.21-4.95-10.83-9.25-17.22-12.7-3.72-2.01-7.48-3.63-11.42-5.05-3.87-1.4-7.66-2.8-11.83-2.81-1.77-1.93-4.14-.4-6.06-1.06-2.02-.69-3.97-1.14-6.08-.89-1.61,1.58-2.82,3.25-3.57,5.54-1.46,4.46-3.68,8.67-7.07,12.05-3.82,3.8-7.78,7.45-11.68,11.16-.37,1.91-.97,3.92-1.09,5.95-.16,2.72.55,5.43.77,8.1.55,6.65,3.14,12.62,6.63,17.75,4.22,6.21,8.69,12.43,14.27,17.64,1.46,1.36,3.2,2.61,4.18,4.28,2.36,4.05,5.82,6.85,9.61,9.48h14.92c4.83,0,9.68.26,14.49-.07,4.95-.34,9.7,1.25,14.59,1.06,4.21-.17,8.24.8,12.15,2.07,7.24,2.35,14.04,5.56,19.29,11.38,1.67,1.85,3.58,3.49,5.27,5.33,3.67,3.97,5.76,8.62,5.77,14.1,0,1.63,0,3.27,0,5.06,6.37.41,12.23-1,18.08-2.49,2.7-.69,5.51-1.1,7.98-2.45,5.91-3.21,12.49-5.34,17.09-10.64,5.43-2.54,8.18-7.84,11.65-12.16,3.52-4.38,6.37-9.53,8.44-14.93,1.16-3.05,2.73-5.94,2.8-9.36.03-1.53.65-3.05.94-4.59.31-1.66.55-3.34,1-6.13ZM190,532.59v-73.01c-.82-.81-1.65-1.63-2.38-2.35h-74.48c-.75,1.29-1.45,2.5-2.14,3.67,0,22.37,0,44.69,0,67.01,0,2.22-.29,4.51,1.64,6.12h75.92c.41-.41.76-.76,1.45-1.45ZM219,154.31c.62-6.19-1.14-12.97-2.96-19.78-1.89-7.08-5.11-13.52-10.04-18.77-5.67-6.03-12.6-10.02-21.4-9.71-6.25.21-11.66,2.47-16.33,6.36-5.34,4.45-9.04,10.13-11.75,16.57-2.65,6.31-4.2,12.79-4.52,19.6-.05,1.12.08,2.39-.4,3.32-1.16,2.23-.97,4.72-.32,6.66.48,1.44.74,2.79.69,4.17-.19,4.85.9,9.62,2.42,14.01,2.62,7.53,6.02,14.8,12.14,20.45,5.49,5.07,11.69,8,19.22,7.9,1.91-.03,3.72-.43,5.61-.86,6.17-1.39,10.97-4.93,15.11-9.27,2.86-3.01,4.76-6.89,6.56-10.71,3.67-7.76,5.54-15.95,5.97-24.49.08-1.49.01-3,.01-5.45ZM318,432.83c-3.79,2.62-7.06,5.04-10.49,7.21-6.42,4.07-13.39,6.67-21.04,7.02-3.05.14-6.04-.19-9.1-.8-3.42-.68-6.64-1.68-9.74-3.09-5.46-2.5-10.54-5.64-14.91-9.83-.61-.59-1.45-.94-2.47-1.58-.12.95-.24,1.41-.24,1.87,0,21.8.02,43.6-.04,65.41,0,2.43.76,4.35,2.42,5.94h64.07c1.65-.9,1.55-2.23,1.55-3.57-.02-22.63-.01-45.25-.01-68.58ZM164.54,413.2c9.69,10.01,18.9,19.52,28.1,29.03.23.24.47.47.71.71,3.79,3.76,5.68,8.3,5.66,13.65-.03,10.66,0,21.33,0,32.01.82.81,1.65,1.62,2.51,2.47h38.04c.73-.78,1.52-1.63,2.41-2.59v-72.49c-.93-1.12-1.76-2.12-2.32-2.79h-75.1ZM335.62,266.83c.52,1.6.77,2.6,1.17,3.54,2.14,5.09,6.08,8.66,10.58,11.47,4.27,2.67,9.24,3.79,14.22,4.19,7.51.6,14.36-1.59,20.5-5.95,4.15-2.94,7.67-6.68,9.53-11.3,1.97-4.91,3.46-10.13,3.4-15.59-.06-5.66-.01-11.33-.01-16.99v-19.49c-2.6,1.13-4.85.19-7.41,1-3.21,1.02-6.67,1.91-10.04,2.25-4.13.42-7.89,2.62-12.12,2.21-3.01,1.81-6.56,1.81-9.81,2.83-4.54,1.42-9,2.8-12.36,6.36-2.55,2.7-4.99,5.51-7.36,8.15.11,1.44.2,2.53.32,4.11,1.12-.71,1.71-1.24,2.41-1.5,4.13-1.55,8.04-4.62,12.83-2.02,3.75-.15,6.27,2.47,8.4,4.73,2.25,2.39,3.83,5.71,4.11,9.21.5,6.26-3.92,13.52-10.1,15.47-2.53.8-5.47,3.25-8.44.59-3.49.66-5.74-2.28-9.8-3.26ZM260.15,246.71c3.24-2.22,6.36-4.6,9.72-6.55,1.83-1.06,4.04-1.59,6.14-1.98.93-.17,2.05.88,3.07.86,2.65-.06,4.68,1.05,6.28,2.97,1.55,1.85,3.74,3.02,4.72,5.53,1.37,3.49,2.48,5.84,1.85,8.18-.89,3.28-1.76,6.69-4.28,9.2-5.21,5.17-11.26,6.88-18.69,3.62-1.6-.7-3.15-1.54-5.24-2.57.38,1.43.49,2.38.88,3.19,1.59,3.38,3.76,6.44,6.73,8.67,3.72,2.79,7.61,5.22,12.34,6.43,3.44.88,6.76.52,10.12.85,4.13.41,7.67-1.42,11.4-2.66,3.92-1.3,6.27-4.45,9.05-7.11,6.23-5.96,8.58-13.49,8.71-21.86.02-1.52-.7-3.04-.94-4.58-1.02-6.59-4.15-12.13-8.66-16.89-1.92-2.03-9.78-5.86-13.1-6.93-1.91-.61-3.75-1.43-5.68-1.96-2.11-.58-4.55-.46-6.36-1.51-1.94-1.12-4.39.59-5.89-1.52-6.22-.14-12.04-2.74-18.25-3.03-.56-.03-1.1-.54-1.7-.86-.71.71-1.53,1.54-2.23,2.24v28.28ZM208.3,104.98c5.2,4.5,9.24,10.21,12.75,16.4,3.18,5.61,4.68,11.74,6.55,17.78.75,2.43.53,4.97,1.22,7.47.76,2.79.17,5.95.17,8.95,0,3.16.81,6.63-.23,9.41-1.03,2.77.29,5.87-1.77,8.25-1.23,6.65-4.72,15.42-8.28,20.55-3.65,5.26-7.16,10.71-12.95,14.08-1.72,1-3.17,2.47-5.37,4.21,3.5,0,6.29.13,9.07-.04,2.37-.15,4.94-.15,7.03-1.09,6.94-3.12,13.08-7.51,17.44-13.86,2.35-3.43,4.27-7.2,6.02-10.98,4.02-8.69,5.01-18.12,5.94-27.49.31-3.13.38-6.35-.73-9.63-.88-2.61-.57-5.67-1.02-8.55-.85-5.48-2.63-10.57-4.87-15.51-4.19-9.27-7.9-14.24-15.54-19.36-4.14-2.78-8.88-5.54-14.49-4.26-.27,1.06-.54,2.1-.95,3.67ZM415.02,285.92h110.95c-.07-.63.01-1.15-.19-1.51-2.54-4.54-6.84-7.48-10.23-11.26-8.27-4.45-17.02-7.41-26.46-5.91-4.59.73-9.26,1.58-13.76,2.9-3.32.97-6.76,1.4-10.06,2.29-4.81,1.3-9.66,2.39-14.47,3.65-3.48.91-7.03,1.59-10.54,2.36-6.7,1.46-13.22,3.66-20.02,4.78-1.69.28-4.12.28-5.23,2.7ZM214.52,645.09h-45.62c-1.44,1.5-3.18,3.29-4.89,5.11-2.41,2.57.06,5.05.15,6.88,1.48,1.57,2.61,2.76,3.73,3.95,3.85,1.58,7.95,1.05,12,1.06,9.32.02,18.65.04,27.97,0,4.21-.02,8.48.61,13.25-1.49.65-.89,1.77-2.43,2.74-3.75v-32.88c-1.07.24-2.01.34-2.85.66-2.87,1.11-5.69,2.34-8.55,3.46-5.16,2.02-10.34,3.98-15.48,6.05-.48.19-.73.96-1.44,1.96,5.16,0,9.63.09,14.09-.04,2.31-.06,4.45.19,6.41,1.55.4,1.62.81,3.29,1.16,4.72-1.08,1.12-1.89,1.95-2.67,2.76ZM409.08,578.61c1.22-1.9,1.85-2.87,2.26-3.52,5.35,0,10.18.09,15-.03,4.7-.11,9.47.77,14.78-1.48.98-1.19,2.5-3.04,3.87-4.7,0-1.98,0-3.64,0-5.3-1.58-2.48-1.67-2.34-3.43-3.53-1.47-.99-2.82-1.92-4.69-1.98-8.35-.25-16.68.18-25.06-.78-6.72-.76-13.72-1.01-19.82.88-1.61,1.41-2.84,2.49-3.96,3.47-1.78,7.88-1.41,15.55.12,22.93,1.92,1.98,3.65,3.76,5.02,5.17,1.98.46,3.5.81,4.96,1.16,2.88-.95,6.39-1.17,8.25-3.86,1.87-2.7,2.96-5.91,2.69-8.44ZM412.58,549.06c2.14-2.37,4.12-4.33,5.51-7.03,6.26-12.19,11.9-24.68,17.88-37,1.68-3.45,3.95-6.64,4.44-10.68.11-.91-.2-1.19-.35-1.8-.23-.94-.06-1.98-.06-3.4-1.96-1.2-4.01-2.69-6.28-3.72-1-.46-2.49-.2-3.65.13-3.92,1.1-5.95,4.22-7.64,7.6-6.83,13.63-13.65,27.27-20.42,40.93-2.05,4.13-3.94,8.35-5.94,12.59.74.72,1.58,1.52,2.48,2.38h14.03ZM245.79,647.1c-1.33-3.55-3.09-6.72-3.65-10.1-.66-3.94-1.25-7.94-1.22-12.04.17-26.96.1-53.91.06-80.87,0-1.26.49-2.7-.56-4.18-4.5,7.05-7.28,14.38-7.34,22.33-.2,26.12-.07,52.25-.07,78.37v4.32c4.56.29,8.53,2.18,12.79,2.17ZM464.6,120.45c1.21,3.59,2.16,6.87,3.44,10.02,1.23,3.03,2.39,6.17,2.8,9.29.56,4.26,2.84,8.21,2.16,12.65,1.79,1.79.69,4.05,1,6.09.31,2.03.92,4.05.95,6.09.12,7,.05,14,.05,21,0,1,.4,2.29-.07,2.95-1.98,2.79-.43,5.65-.95,8.39,3.12-2.66,3.93-6.34,5.38-9.7,2.42-5.63,4.26-11.59,4.46-17.58.27-8.5,1.1-17.09-.74-25.6-.53-2.45-1.13-4.85-1.82-7.26-.85-2.99-2.17-5.79-3.13-8.7-1.26-3.83-3.91-6.65-5.49-10.41-2.74.95-5.08,1.75-8.03,2.77ZM482.47,115.09c-.08.28-.28.59-.2.74,1.5,2.55,3.61,4.9,4.45,7.64,1.41,4.59,3.87,8.76,4.77,13.54.93,4.97,2.66,9.78,2.53,14.94-.11,4.5.07,9-.06,13.49-.08,2.54.8,5.25-.96,7.58-.32,5.38-1.84,10.45-4.01,15.33-1.5,3.38-2.15,7.08-4.7,10.09-1.79,2.12-2.78,4.92-4.15,7.46.4.1.59.22.69.16,5.08-2.74,9.37-6.62,12.01-11.56,3.25-6.08,6.61-12.28,7.58-19.34.47-3.45,1.43-6.89,1.49-10.34.09-4.86.85-9.82-.91-14.58.74-2.83-.54-5.47-1.16-8.05-.63-2.62-.73-5.64-2.84-7.79-1.82-8.34-7.76-13.79-13.58-19.32-.17-.16-.63-.02-.95-.02ZM447.32,598.07c4.21-1.08,4.98-3.33,5.8-6.15,2.32-7.99,5.33-15.78,7.83-23.72,1.29-4.08,3.01-8.16,1.85-12.61-1.85-4.79-5.63-6.08-10.19-5.42-1.57,1.18-4.19,1.26-3.44,4.55,3.51,2.82,4.97,7.03,4.85,11.91-.17,6.78-2.91,11.72-9.39,14.54-2.86,1.24-5.86,2.64-7.57,5.68v6.23c2.06,6.27,6.92,4.83,10.28,4.99ZM280.67,726.04c-.67.4-1.61.96-2.56,1.52v27.21c4.11,1.68,8.87,2.37,11.98,1.72-.38-1.64-1.3-2.26-3.04-2.47-4.5-.54-7.01-3.54-7.06-8-.02-1.49,0-2.98,0-4.33,1.47-1.74,1.79-4.44,4.57-4.68,1.04-2.39,3.95-1.39,6.43-3.19-4.19-.81-4.73-4.31-7.12-6.34.45-2.56.91-5.22,1.44-8.21,1.37-1.37,3.02-3.02,4.69-4.69,0-1.63.13-3.3-.03-4.95-.19-1.87-.89-3.72-.89-5.58s.82-3.71.88-5.58c.14-4.44.05-8.88.05-14.03-2.46,1.46-4.3,2.55-6.13,3.64-1.83-1.58-3.86-.97-5.87-.83v1.6c1.86.52,3.79,1.07,5.98,1.68.83,1.2,1.81,2.64,3.24,4.72-.38,2.77-.86,6.23-1.24,8.93-2.81,1.95-4.76,4.32-7.9,3.95-.33,2.58.8,4.17,2.2,5.81,2.02,2.36,2.21,5.15,1.28,8.09-.38,1.19-.56,2.45-.9,4ZM404.01,599.63c8.48,7,21.16,4.66,24.97-3.06-.23-.23-.63-.44-.68-.71-.28-1.55,0-3.48-.82-4.6-1.4-1.91.47-2.97.44-4.39-.02-.99-.73-1.96-1.06-2.77h-7.71c-.89,1.31-2.21,2.62-2.79,4.2-2.16,5.86-7.08,8.55-12.35,11.33ZM305.15,725.54c1.01,1.63,1.7,2.75,2.2,3.57,6.56-.06,12.61.06,19.23-.09-1.52-2.26-2.52-4.04-3.8-5.58-1.37-1.65-3.11-2.99-4.51-4.62-1.45-1.7-3.35-2.89-4.41-5.11-.87-1.83-2.71-3.38-4.45-4.57-1.61-1.1-1.13-4.35-4.26-3.99v20.39ZM408.28,474.22c-.69,2.8-2.12,5.49-1.14,8.1.53,1.41.7,2.71.89,4.13.2,1.54.9,3.05.9,4.58,0,1.91.56,3.47,1.84,5.18,1.82-3.69,3.15-7.42,5.35-10.52,1.57-2.2,2.57-5.21,5.78-6.11.93-.26,1.58-1.5,2.28-2.21-3.45-6.19-3.89-6.41-11.47-6.16-1.56,1.06-2.86,1.94-4.44,3.02ZM425.44,547.2c3.43,3.21,7.01,1.28,10.02,1.93.57-.57.92-.92,1.35-1.35,1.16-6.09-1.81-11.72-2.67-17.84-2.84,5.63-5.68,11.26-8.7,17.26Z"/>
  <path class="cls-3" d="M496.92,404.09h-5.29c-55.5,0-110.99.01-166.49-.03-2.69,0-5.14.23-6.93,2.32-.53,8.48-3.71,15.6-9.59,21.67-3.96,4.08-8.55,7-13.88,8.78-5.12,1.71-11.37,1.15-17.58.39-9.98-1.21-20.14-10.74-23.44-18.92-1.35-3.34-2.77-6.62-2.77-10.37,0-3.85-1.54-6.8-5.26-8.77-5.76-3.05-11.33-6.51-17.02-9.67-5.29-2.94-10.47-6.06-15.71-9.07-6.47-3.71-13.25-6.86-19.42-11.15-2.76-1.92-5.98-3.27-8.98-4.87-7.38-3.96-14.61-8.18-21.85-12.36-8.91-5.14-17.77-10.42-26.26-16.21-3.83-2.61-6.94-6.4-9.46-10.49-2.77-4.48-3.87-8.13-5.12-13.91-.45-2.06-1.08-4.07-.82-6.11.8-6.2,1.71-12.35,4.91-17.96,5.39-9.43,13.43-15.6,23.49-19.03,2.57-.88,5.49-1.79,8.5-1.3,1.79.29,3.66.15,5.49.03,5.52-.36,10.66,1.21,15.86,2.75,4.64,1.37,9.49,1.99,14.14,3.32,6.28,1.81,12.87,2.38,18.98,4.87,5.3-.08,10.09,2.31,15.21,3.14,4.14.67,8.16,2.07,12.28,2.9,3.98.8,7.88,2.33,11.78,2.81,5.53.69,10.8,2.39,16.18,3.49,5.29,1.07,10.71,1.94,15.94,3.62,2.49.8,5.47-.19,8.04,1.13,4.92-1.62,10.17-1.08,15.17-3.21,5.27-2.24,9.39-5.78,13.66-9.17,2.5-1.99,4.11-5.1,6.4-8.05,3.61,3.61,7.14,7.07,10.59,10.61,5.32,5.44,11.9,7.71,19.32,8.97,8.24,1.4,16.42.77,24.61.79,53.83.12,107.66.06,161.49.08,1.61,0,3.25.11,4.82.43,3.42.69,5.11,2.85,6.2,6.24,1.61,4.96,2.87,10.07,5.63,14.67,2.34,3.91,4.49,7.86,7.36,11.49,2.35,2.98,4.87,5.73,7.6,8.27,5.21,4.86,10.94,9.1,17.57,11.84,5.3,2.18,10.63,4.13,16.38,5.22,7.25,1.38,14.53,1.28,21.6.59,9.74-.95,19.01-4.39,27.36-9.83,1.14-.75,2.53-1.12,3.84-1.68,6.19,2.12,9.31,7.43,12.59,12.68,2.58,4.12,4.09,8.66,5.53,13.21.8,2.54,1.15,5.25,1.39,7.91.23,2.48.18,5,.01,7.49-.16,2.37-.4,4.79-1.01,7.08-1.44,5.38-3.56,10.57-6.49,15.29-2.27,3.66-4.65,7.34-8.04,10.19-5.92,4.98-12.37,9.08-19.7,11.59-2.36.81-5.05.62-7.44,1.37-3.02.95-6.07,1.19-9.1.87-3.12-.33-6.23-1.07-9.34-1.5-6.03-.83-10.99-4.14-16.29-6.58-2.69-1.24-4.73-3.87-7.07-5.88-1.58-1.35-3.15-2.7-4.97-4.25-1.93,1.67-3.73,3.22-5.52,4.78-6.48,5.64-13.82,9.49-22.22,11.57-6.37,1.58-12.81,1.25-19.09.72-6.1-.52-12.08-2.85-17.38-6.11-4.39-2.69-8.8-5.63-11.89-9.86-3.11-4.24-6.72-8.07-9.72-12.42-1.49-2.16-3.44-4.25-6.14-5.49-1.98-.91-3.23-2.99-5.23-4.24-6.38-4.01-12.97-7.14-20.4-8.8-4.56-1.02-9.01-1.91-13.7-1.9-39.83.05-79.66,0-119.49.06-4.07,0-7.95-1.36-12.09-1.13-3.77.21-7.43-1.34-11.13-2.08-3.69-.74-7.11-2.86-10.63-4.43-3.42-1.53-6.6-3.44-9.69-5.6-10.28-7.19-16.74-17.3-22.18-28.26-1.16-6.32-3.9-12.24-4.21-18.82-.11-2.46-.26-5.2-.98-7.54-.75-2.46-1.29-5.6-4.64-6.51-1-.27-1.86-1.01-2.63-1.45-.78.36-1.48.68-2.25,1.03-.08.19-.3.47-.3.76-.02,23.5,0,47-.02,70.5,0,3.85.95,7.54,2.04,11.16,2.55,8.45,10.21,14.56,18.86,15.38,1.38.13,2.71.79,4.09.94,2.16.23,10.07-2.23,12.04-3.47,3.46-2.17,6.44-4.87,8.36-8.46,1.3-2.43,2.1-5.13,3.28-8.1.87.15,2.12.26,3.31.57,3.47.9,6.95,1.79,10.42,2.68,4.26,1.09,8.43.78,12.63.78,41.49.07,82.98-.06,124.47.16,5.95.03,12.03.67,17.76,2.87,5.61,2.15,10.96,4.68,15.27,9.02,1.33,1.34,2.79,2.54,4.4,3.99Z"/>
  <path class="cls-3" d="M280.4,179.29c-1.25-.62-2.36-1.16-3.68-1.81-.24-.57-.46-1.32-.83-1.98-3.4-6.08-6.64-12.25-9.96-18.36-4.51-8.3-9.28-16.45-13.33-24.99-1.71-3.61-3.02-7.41-4.61-11.09-2.45-5.67-5.95-10.69-9.91-15.4-.4-.48-.77-1-1.06-1.56-3.01-5.75-5.96-11.53-9.03-17.25-1.25-2.32-2.75-4.51-4.27-6.99,3.57-2.53,7.02-4.95,10.43-7.41,4.81-3.48,10.27-5.88,15.63-8.15,5.06-2.15,10.36-4,15.78-5.42,3.43-.9,6.89-1.87,10.35-2.7,3.98-.96,7.94-2.35,12.15-2.07,2.17-1.68,4.94-.25,7.02-1.15,2.28-.98,4.52-.33,6.63-.92,5.5-1.52,11.19-.08,16.57-1.13,4.76-.93,9.44-.34,14.12-.86,3.33-.37,6.32,1.25,9.59,1.09,3.16-.16,6.44-.55,9.47.08,5.04,1.05,10.22.81,15.18,1.94,7.9,1.8,15.89,3.08,23.69,5.5,5.03,1.56,9.96,3.37,14.85,5.24,4.74,1.81,9.26,4.24,13.73,6.67,3.84,2.08,7.49,4.54,11.52,7.01-.65,1.59-1.14,3.07-1.85,4.42-3.16,6.03-6.13,12.17-9.64,18-3.86,6.4-6.79,13.35-11.5,19.27-1.42,1.78-2.41,3.99-3.19,6.15-2.32,6.46-5.26,12.56-9.19,18.21-1.12,1.62-1.61,3.66-2.54,5.43-3.14,6.04-6.33,12.05-9.52,18.06-1.31,2.46-2.44,5.05-4.06,7.3-1.67,2.33-3.68,4.65-6.94,4.63-1.53-.01-3.06-.62-4.59-.94-1.55-.33-3.3.77-4.71-.74-.26-.27-.91-.28-1.37-.25-4.41.28-8.64-1.78-13.09-1.01-6.45-1.89-13.05-.78-19.59-.96-6.66-.18-13.33-.12-20,0-2.2.04-4.4.57-6.58.97-2.19.4-4.61-1.01-6.63.94-.35.33-1.29,0-1.95.06-3.53.32-7.07.6-10.58,1.03-.87.11-1.67.75-2.5,1.16Z"/>
  <path class="cls-3" d="M494.98,704.28c-.45,2.79-.69,4.46-1,6.13-.29,1.54-.91,3.05-.94,4.59-.07,3.41-1.64,6.31-2.8,9.36-2.06,5.4-4.91,10.55-8.44,14.93-3.47,4.32-6.22,9.62-11.65,12.16-4.6,5.31-11.18,7.43-17.09,10.64-2.48,1.35-5.28,1.75-7.98,2.45-5.85,1.5-11.71,2.9-18.08,2.49,0-1.79,0-3.43,0-5.06,0-5.49-2.1-10.13-5.77-14.1-1.69-1.84-3.6-3.47-5.27-5.33-5.25-5.82-12.05-9.02-19.29-11.38-3.91-1.27-7.94-2.24-12.15-2.07-4.89.19-9.64-1.4-14.59-1.06-4.81.33-9.66.07-14.49.07h-14.92c-3.79-2.63-7.25-5.43-9.61-9.48-.97-1.67-2.72-2.91-4.18-4.28-5.58-5.21-10.06-11.44-14.27-17.64-3.49-5.14-6.08-11.11-6.63-17.75-.22-2.66-.93-5.38-.77-8.1.12-2.03.72-4.04,1.09-5.95,3.9-3.71,7.87-7.36,11.68-11.16,3.39-3.38,5.61-7.59,7.07-12.05.75-2.29,1.96-3.96,3.57-5.54,2.1-.26,4.06.19,6.08.89,1.92.66,4.3-.87,6.06,1.06,4.17.02,7.96,1.41,11.83,2.81,3.95,1.43,7.7,3.05,11.42,5.05,6.39,3.45,12.01,7.75,17.22,12.7,6.42,6.09,11.15,13.38,14.92,21.32,2.71,5.7,5.3,11.47,8.03,17.17,1.37,2.86,3.39,5.29,5.24,7.85,3.75,5.16,8.92,8.46,14.04,11.9,3.77,2.54,8.08,3.85,12.35,5.17,6.89,2.12,14.03,2.53,21.15,1.96,4.81-.39,9.54-1.48,14.11-3.28,8.12-3.18,15.13-7.9,21.13-14.17.64-.66,1.46-1.15,2.93-2.29Z"/>
  <path class="cls-3" d="M162,668.09c1.01.33,2.02.66,3.37,1.1-.76,3.25-1.44,6.12-2.22,9.44,1.46,1.87,3.22,4.14,4.81,6.18,3.01.46,5.74,1.43,8.31,1.11,2.32-.29,4.46-1.99,6.63-3.04-.27-4.22,3.14-8.53-1.44-12.79h7.86c3.99,0,7.99.17,11.97-.06,2.65-.15,5.01.74,7.46,1.34,2.57.62,5.1,1.39,7.09,1.93,1.88-1.27,3.19-2.16,4.61-3.12h4.88c1.41,2.18,2.67,4.15,3.67,5.69,3.34.72,6.07,1.31,9.57,2.07,1.72-1.04,4.12-2.48,6.25-3.77.54-3.46,1.01-6.45,1.41-8.99-.95-1.36-1.79-2.19-2.18-3.19-.75-1.94-2.74-2.71-4.08-2.74-2.8-.05-5.17-1.64-7.93-1.19v-2.4c.19-.17.44-.57.63-.55,2.67.35,5.63.17,7.91,1.31,2.11,1.06,4.32.18,6.41,1.5,1.71,1.09,4.37.56,6.45,1.22,2.43.77,5.48.8,6.55,3.93h-5.28c-1.94,1.44-3.74,2.78-5.46,4.06-.73,1.94.07,3.86-1.13,5.75-1.03,1.63.45,3.63,1.44,5.25.57.93,1.29,1.76,1.97,2.68,3.31.72,6.81,1.49,10.35,2.26v5.7c-1.42-1.26-2.65-2.74-4.21-3.62-1.72-.97-3.7-1.69-5.64-1.99-1.88-.28-3.73-.48-5.6-.97-1.87-.49-3.97-.11-5.63-.11-1.67,1.16-3.1,2.16-4.52,3.14-.51,3.18-1.01,6.29-1.43,8.97,1.67,2.23,3.02,4.02,4.02,5.36,5.73,1.25,10.94,2.39,16.49,3.6,1.53-2.36,5.59-2.29,5.81-6.29.4.34.54.42.63.54.09.12.17.28.17.42,0,9.5,0,18.99,0,28.85-.72.54-1.65,1.22-3.09,2.3h-7.61c-.2-.34-.63-1.05-.81-1.37-5.41-1.21-10.28-2.29-15.73-3.51-1.87,1.4-4.16,3.11-6.64,4.96h-3.31c-1.35-2.63-2.62-5.09-4.03-7.84-1.28-.34-2.76-.77-4.26-1.13-1.52-.37-3.08-.58-4.58-1.03-5.38-1.62-11.05-1.94-16.43-3.75-1.97-.66-4.32-.84-6.5-1.21-4.17-.71-8.2-2.17-12.34-2.7-4.1-.53-8.02-1.73-12.04-2.49-3.63-.68-7.27-1.84-10.91-2.45-3.89-.65-7.67-1.73-11.53-2.47-3.82-.73-7.69-1.28-11.41-2.56-2.21-.76-4.63-.89-6.94-1.37-5.22-1.07-10.43-2.17-15.63-3.3-.43-.09-.78-.6-1.21-.67-2.84-.42-5.69-.78-8.22-1.11-2.02,1.28-3.73,2.37-5.94,3.78-.34,2.83-.74,6.16-1.09,9.07,1.27,1.85,2.24,3.28,3.46,5.06,12.71,2.69,25.73,5.36,38.71,8.2,12.99,2.84,25.95,5.85,39.01,8.42.02.31.05.63.11,1.33-3.16.06-6.16.61-9.41-.49-3.22-1.1-6.73-1.35-10.07-2.23-5.73-1.51-11.59-2.69-17.38-3.77-5.72-1.07-11.42-2.46-17.16-3.49-5.3-.95-10.66-2.17-15.93-3.59-2.5-.68-5.28-1-7.88-1.59-2.6-.58-5.29-.77-7.81-1.63-5.34-1.82-11-2.08-16.41-3.78-2.74-.86-5.89-1.13-8.86-1.63-2.78-.46-5.53-1.18-8.3-1.74-3.19-.64-6.42-1.29-9.59-2.1-3.06-.77-6.06-1.73-9.28-1.8-1.16-.03-2.3-.82-3.93-1.45-.59-2.62,1.01-5.42,1.41-8.31.48-3.52,1.76-6.92,2.52-10.42.5-2.32.41-4.81,1.12-7.05.66-2.06.96-4.2,1.73-6.27.67-1.79.5-4.01,1.12-6.04.63-2.1.39-4.49,1.14-6.54,1.52-4.16,1.67-8.58,2.88-12.79,1.59-5.54,2.72-11.23,3.86-16.86.68-3.38,1.58-6.73,2.21-10.13.11-.58.56-1.11.9-1.75,35.96,7.73,71.82,15.44,108.18,23.26-.08-.08.27.27.78.78-1.13,1.35-2.28,2.74-3.65,4.39-.82-1.02-1.84-2.29-2.93-3.64-3.09-.44-6.42-.92-9.34-1.34-2.13,1.36-3.84,2.45-5.88,3.75-.42,2.73-.9,5.85-1.3,8.48,1.43,2.25,2.51,3.96,3.69,5.82,3.43.46,7.08.95,10.31,1.38,1.86-1.27,3.29-2.25,4.72-3.22,1.19,2.49.82,5.7,4.53,8.06-4.56-.52-8-.91-11.01-1.25-1.83,1.28-3.26,2.29-4.66,3.26-.47,1.53-1.12,2.98-1.33,4.49-.23,1.63-.05,3.31-.05,4.62,1.12,2.07,2.08,3.86,2.89,5.37,3.41.67,6.48,1.27,9.83,1.93,1.69-1,3.8-2.25,5.84-3.45.74-3.4,1.94-6.6,1.44-10.05ZM38.8,674.39c.93.93,1.87,1.43,2.05,2.12.68,2.61,2.75,2.98,4.8,3.99,1.81.89,3.5.08,5.17.84,3.59,1.63,7.59,1.75,11.37,2.71,3.94,1.01,7.93,1.8,11.91,2.63,2.78.58,5.58,1.06,8.11,1.53,2.15-1.67,4.04-3.13,5.63-4.36.51-3.09.94-5.73,1.3-7.89-1.43-2.26-2.51-3.97-3.53-5.59-2.53-.76-5.02-1.71-7.59-2.24-2.81-.57-5.81-.38-8.53-1.2-2.56-.77-5-1.64-7.71-1.93-2.76-.3-5.44-1.33-8.18-1.9-2.65-.55-5.35-.9-7.72-1.29-1.07.96-1.78,2.14-2.54,2.17-2.33.1-2.45,2.14-2.96,3.38-.88,2.15-1.07,4.58-1.57,7.03ZM45.17,644.59c-.5,2.38-1.2,4.78-1.29,7.4-.14,3.95,3.42,8.17,7.62,8.08,2.42-.05,4.79.72,6.99,1.26,4.24,1.05,8.5,1.91,12.77,2.8,3.51.73,7.08,1.39,10.48,2.4,3,.89,5.19.35,7.51-1.2.91-.61,1.83-1.19,2.45-1.59.67-2.93,1.28-5.63,1.95-8.59-1.05-1.64-2.31-3.62-3.75-5.87-1.95-.38-4.15-.6-6.21-1.25-2.13-.67-4.46-.51-6.43-1.32-3.53-1.44-7.28-1.81-10.9-2.47-4.02-.73-7.86-2.45-12.03-2.33-2.69-2.06-4.7-.17-6.81,1.16-.65.41-1.28.83-2.34,1.52ZM82.92,625.43c-9.07-1.9-18.25-3.81-26.69-5.58-2.55,1.38-4.32,2.34-6.39,3.46-.37,3.46-.73,6.92-1.02,9.61,1.47,2.16,2.45,3.6,3.32,4.88,4.57,1.13,8.92,2.35,13.33,3.25,4.64.95,9.35,1.58,14,2.35,2.06-1.73,3.89-3.26,5.36-4.49.45-2.72,1.35-4.98,1.03-7.06-.34-2.18-1.85-4.18-2.93-6.42ZM69.17,702.52c.36-3.21.73-6.55,1.08-9.69-.49-.48-.84-.67-.95-.95-1.3-3.43-3.87-4.78-7.42-4.84-1.2-.02-2.37-.68-3.58-.93-1.22-.26-2.41-.25-3.7-.69-3.22-1.09-6.71-1.37-10.04-2.27-2.07-.56-4.07.22-5.78,1.62-.84.69-1.8,1.23-2.71,1.84-.53,1.59.78,3.62-1.08,4.99-.54,3.61,1.35,6.37,3.18,9.41,2.09.35,4.28.63,6.42,1.1,2.27.5,4.47,1.3,6.74,1.78,3.36.71,6.77,1.15,10.08,2.15,1.04.32,2.12.06,3.13-.88,1.1-1.02,2.64-1.55,4.63-2.64ZM229.01,716.32c1.25,1.76,2.35,3.31,3.13,4.4,6.74,1.48,13,2.85,19.3,4.23.78-.57,1.64-1.28,2.59-1.85,2.51-1.5,3.91-3.57,4-6.57.04-1.21.55-2.4.9-3.85-1.3-2.02-2.73-4.25-4.12-6.41-6.98-.35-13.31-3.82-20.07-3.16-1.56,1.09-2.99,2.09-4.36,3.05-1.66,3.38-1.45,6.93-1.38,10.15ZM184.83,691.57c-5.74-2.03-11.19-4.22-16.14,1.99-.43,1.87-1.06,4.59-1.76,7.61,1.08,1.78,2.27,3.75,3.5,5.78,3.74.5,7.28,2.78,10.96,2.07,2.12-1.58,3.91-2.92,5.39-4.02.65-2.05-.37-3.82,1.09-5.54.65-.77.42-2.7-.81-4.01-1.02-1.08-1.54-2.64-2.22-3.87ZM103.23,651.89c-1.72,1.15-2.45,1.85-3.31,2.16-1.95.7-2.61,2.63-2.76,4.05-.22,2.07-.64,4.04-1.33,6.01,1.57,2.1,3.08,4.12,4.31,5.77,3.37.76,6.25,1.41,9.36,2.12,1.99-1.29,4.21-2.73,6.25-4.05.51-3.34.97-6.44,1.36-8.98-2.08-2.53-3.09-5.3-6.01-5.86-2.8-.55-5.65-.88-7.87-1.22ZM203.4,714.21c1.44-2.24,4.77-2.29,5.58-5.08.69-2.36,1.22-4.77,1.92-7.56-1.61-2.02-3.48-4.36-4.94-6.19-3.23-.51-5.8-1.46-8.2-1.13-2.31.32-4.44,1.97-6.69,3.06-.46,3.53-.91,6.96-1.25,9.58,1.4,2.08,2.28,3.39,3.33,4.94,3.1.72,6.41,1.49,10.25,2.38ZM113.01,695.48c2.74-2.24,4.97-4.06,6.52-5.33.58-2.89.98-4.9,1.45-7.3-.53-.87-1.72-2-1.89-3.27-.24-1.82-1.86-2.23-2.53-3.45-3.38-.45-6.72-.89-10.04-1.33-2.03,1.7-3.87,3.23-5.38,4.48-.52,3.14-.95,5.78-1.23,7.48,1.01,1.84,1.47,2.84,2.09,3.74.73,1.07,1.59,2.05,1.83,2.35,3.23.53,5.43.83,7.6,1.29.52.11.93.77,1.57,1.34ZM132.64,676.96c1.68-1.4,4-2.62,5.22-4.53,1.27-1.99,1.49-4.65,2.26-7.33-1.37-2.2-2.84-4.57-4.19-6.73-1.89-.78-3.59-.26-5.38-.95-2.81-1.08-6-.53-8.36,1.97-.68.72-1.4,1.41-2.04,2.04-.4,2.41-1.36,4.83-1,7.04.38,2.32,2.03,4.42,2.97,6.32,3.52.73,6.72,1.39,10.51,2.18ZM187.23,675.17c-.67,2.01-.07,3.66-1.04,5.48-1.38,2.61,2.41,8.71,5.33,9.4,1.1.26,2.59-.4,3.42.12,3.01,1.91,5.17.1,7.8-.94,2.25-.89,2.56-2.7,3.17-4.28.71-1.86.73-4,1.08-6.21-2.08-2.06-2.8-5.63-6.38-6.34-2.16-.4-4.31-.79-6.96-1.28-1.85,1.17-4.07,2.57-6.42,4.05ZM112.96,645.91c1.44,2.42,2.47,4.15,3.52,5.92,3.18.67,6.52,1.38,10.08,2.13,2.04-1.61,4.3-3.4,6.7-5.3-1.56-2.65,1.68-4.91.34-7.42-1.17-2.19-2.64-4.21-3.75-5.96-3.77-.53-7.07-.99-10.39-1.45-2,1.67-3.82,3.2-5.07,4.24-.59,3.23-1.04,5.71-1.43,7.83ZM215.56,676.23c-.82.58-1.7,1.27-2.64,1.84-2.46,1.51-3.89,3.57-3.97,6.57-.03,1.2-.55,2.39-.9,3.81,1.1,1.74,2.32,3.69,3.54,5.62,3.6,1.18,7.16,2.46,11.43,1.85,1.57-1.33,3.38-2.86,4.83-4.09.43-2.89,1.36-5.34.98-7.55-.37-2.15-2.08-4.06-3.12-5.92-3.32-.7-6.51-1.37-10.16-2.14ZM148.2,701.96c3.87,1.15,7.41,2.59,11.22,2.08,1.93-1.49,3.82-2.94,5.4-4.14.52-3.07.97-5.71,1.35-7.94-1.46-2.26-2.63-4.07-3.64-5.63-3.41-.7-6.61-1.36-10.18-2.09-.39.39-.97,1.43-1.79,1.7-2.02.65-3.21,1.88-3.79,3.87-.55,1.92-1.49,3.78-1.68,5.73-.19,1.97,1.29,3.46,2.64,4.83.28.29.27.87.47,1.6ZM139.93,681.49c-2.18-.55-3.83-1.17-5.52-1.35-1.97-.21-3.98-.05-5.57-.05-1.74,1.2-3.18,2.19-4.71,3.25-.47,3.09-.94,6.21-1.33,8.79,1.46,2.31,2.54,4.02,3.72,5.88,3.59.43,7.37.88,9.75,1.16,7.5-3.01,6.83-8.39,6.7-13.33-1.09-1.55-2.09-2.98-3.04-4.34ZM111.25,636.05c-1.88-2.42-3.33-4.29-4.53-5.83-2.05-.41-3.53-.08-5.19-.86-2.12-1-4.68-.38-6.68,1.36-.82.71-1.77,1.27-3.05,2.17-.33,2.9-.71,6.23-1.07,9.36.58.61,1.02.91,1.23,1.33,1.74,3.6,4.85,4.5,8.51,4.56.86.01,1.71.62,2.84,1.06,2.21-1.4,4.57-2.89,6.51-4.13.55-3.46,1-6.29,1.43-9.02Z"/>
  <path class="cls-4" d="M190,532.59c-.68.68-1.04,1.04-1.45,1.45h-75.92c-1.93-1.61-1.64-3.9-1.64-6.12,0-22.32,0-44.64,0-67.01.68-1.17,1.39-2.39,2.14-3.67h74.48c.73.72,1.56,1.54,2.38,2.35v73.01ZM168,507.09v2.54c.64.54,1.32,1.12,2.04,1.74.99-.72,1.72-1.25,2.35-1.71-.68-1.25-1.03-1.91-1.38-2.57h1.26c3.19-2.82,1.16-5.8.53-8.63-2.14-2.17-4.23-4.28-6.3-6.37h-2.6c.41-.71.8-1.37,1.21-2.07-.89-1.68-2.05-2.47-4.12-1.55.06,1.18.12,2.41.18,3.62h2.84c.23.73.27,1.63.73,2.17,1.3,1.5,2.83,2.79,4.17,4.27,1.29,1.42,2.26,3.02,2.11,5.09-.08,1.15-.01,2.32-.01,3.48h-3c0-.5.2-1.14-.03-1.47-1.37-1.96-12.52-12.4-14.5-13.64-.18.18-.4.4-.58.58,1.24,1.98,11.68,13.13,13.64,14.5.34.23.97.03,1.47.03ZM149,492.09c-.61.11-1.43,0-1.8.36-4.33,4.23-8.61,8.51-12.84,12.84-.36.37-.25,1.19-.36,1.8h-3.92c-.24,1.98-.03,3.4,1.97,4.04.62-.33,1.28-.68,1.95-.73v1.24c1.43.48,2.88.97,3.39,1.14,6.12-.82,9.51-4.17,12.17-8.72,1.65.28,3.13-.1,3.41-2.2.08-.58-.13-1.2-.19-1.6h-3.65c-.1.95-.18,1.73-.25,2.39-3.23,1.38-4.88,4.39-7.47,6.44-2.39.42-4.87.86-7.42,1v-3c.61-.11,1.43,0,1.8-.36,4.33-4.23,8.61-8.51,12.84-12.84.36-.37.25-1.19.36-1.8,3.85-.13,3.87-.15,4-4,.61-.11,1.43,0,1.8-.36,4.33-4.23,8.61-8.51,12.84-12.84.36-.37.25-1.19.71-1.79,1.47.05,3.33.16,3.74-2.76-.87-.39-1.86-.76-2.77-1.25-1.09-.59-2.12-1.29-3.35-2.04-1.63.54-3.47-.43-5.45.87-3.31,2.17-5.93,4.79-8.05,8.14q-2.09.35-3.46,2.3c1.92,1.82,3.05,2.2,3.96,1.3v-1.41c1.91-1.76,3.64-3.16,5.13-4.77,2.34-2.51,4.98-3.98,8.84-3.18.38.76.86,1.72,1.06,2.82-.61.11-1.43,0-1.8.36-4.33,4.23-8.61,8.51-12.84,12.84-.36.37-.25,1.19-.36,1.8h-2.17c-2.47-3.67-5.52-6.17-8.27-8.88-2.76-2.71-5.08-5.93-8.53-7.72-.04-.8-.07-1.44-.1-2.21h-3.4c-.67,2.07-.94,4.03-1.91,5.54-.84,1.31-.89,2.7-.52,3.72.68,1.86,1.81,3.66,3.1,5.18,2.4,2.84,5.06,5.46,7.61,8.16h2.05v-3.61c-.92-.11-1.7-.2-2.32-.27-.57-.88-.98-1.75-1.6-2.42-1.35-1.47-2.86-2.79-4.2-4.27-2.02-2.23-1.9-5-1.69-7.74,0-.13.22-.24.34-.35h2.42c.11.56.04,1.17.31,1.45,4.44,4.5,8.92,8.97,13.38,13.44h2.5c-.95,1.18-1.12,2.55-1,4ZM155.16,524.26c-.09-2.05-.18-3.96-.27-6.01-1.34-.77-2.69-1.54-3.95-2.26-1.37.82-2.58,1.54-4.06,2.42v5.82h-6.78v2.69h21.81v-2.66h-6.75ZM162.16,511.55c-.06,2.27-.68,4.29-.01,5.71.74,1.59.31,3.29.97,4.55.93,1.78-.49,3.14-.07,4.87.6.5,1.3,1.08,2.14,1.77.83-.9,1.45-1.57,1.79-1.93-.81-4.67-1.54-8.83-2.33-13.35-.45-.29-1.22-.79-2.48-1.61ZM138.02,523.61c2-1.4.26-3.71,1.17-5.16.79-.86,1.43-1.54,2.02-2.18-1.01-1.94-2.18-2.7-3.82-1.98-.81,4.1-1.59,8.07-2.42,12.29.54.52,1.2,1.14,1.84,1.74q2.58-2.23,1.22-4.71ZM163.93,511.01c.32-2.24-.25-3.53-2.14-3.95-1.65.91-2.4,2.09-1.44,3.95h3.58Z"/>
  <path class="cls-4" d="M219,154.31c0,2.45.07,3.96-.01,5.45-.44,8.54-2.31,16.72-5.97,24.49-1.8,3.82-3.7,7.7-6.56,10.71-4.13,4.34-8.93,7.87-15.11,9.27-1.88.43-3.7.83-5.61.86-7.53.11-13.73-2.82-19.22-7.9-6.12-5.65-9.52-12.92-12.14-20.45-1.52-4.39-2.61-9.15-2.42-14.01.05-1.38-.21-2.73-.69-4.17-.64-1.93-.83-4.43.32-6.66.48-.93.35-2.2.4-3.32.33-6.81,1.87-13.29,4.52-19.6,2.71-6.45,6.41-12.13,11.75-16.57,4.67-3.89,10.09-6.15,16.33-6.36,8.8-.3,15.73,3.68,21.4,9.71,4.94,5.25,8.16,11.68,10.04,18.77,1.82,6.82,3.58,13.59,2.96,19.78Z"/>
  <path class="cls-4" d="M318,432.83c0,23.33,0,45.96.01,68.58,0,1.35.1,2.67-1.55,3.57h-64.07c-1.67-1.59-2.43-3.52-2.42-5.94.06-21.8.03-43.6.04-65.41,0-.46.11-.92.24-1.87,1.02.64,1.86.99,2.47,1.58,4.37,4.19,9.45,7.33,14.91,9.83,3.1,1.42,6.32,2.42,9.74,3.09,3.07.61,6.06.94,9.1.8,7.65-.35,14.62-2.96,21.04-7.02,3.43-2.17,6.7-4.59,10.49-7.21Z"/>
  <path class="cls-4" d="M164.54,413.2h75.1c.56.67,1.38,1.66,2.32,2.79v72.49c-.89.96-1.69,1.81-2.41,2.59h-38.04c-.86-.85-1.69-1.67-2.51-2.47,0-10.68-.02-21.35,0-32.01.01-5.36-1.87-9.89-5.66-13.65-.24-.23-.47-.47-.71-.71-9.2-9.51-18.41-19.02-28.1-29.03Z"/>
  <path class="cls-3" d="M335.62,266.83c4.07.97,6.32,3.91,9.8,3.26,2.97,2.66,5.91.21,8.44-.59,6.18-1.95,10.6-9.21,10.1-15.47-.28-3.5-1.86-6.81-4.11-9.21-2.12-2.26-4.64-4.88-8.4-4.73-4.79-2.6-8.7.47-12.83,2.02-.7.26-1.3.8-2.41,1.5-.12-1.59-.21-2.68-.32-4.11,2.37-2.63,4.81-5.44,7.36-8.15,3.36-3.56,7.82-4.94,12.36-6.36,3.25-1.02,6.8-1.03,9.81-2.83,4.23.42,7.99-1.79,12.12-2.21,3.37-.34,6.83-1.24,10.04-2.25,2.56-.81,4.8.13,7.41-1v19.49c0,5.66-.05,11.33.01,16.99.06,5.47-1.42,10.68-3.4,15.59-1.86,4.63-5.38,8.36-9.53,11.3-6.14,4.36-12.98,6.55-20.5,5.95-4.98-.4-9.96-1.52-14.22-4.19-4.49-2.81-8.43-6.38-10.58-11.47-.4-.94-.65-1.94-1.17-3.54Z"/>
  <path class="cls-3" d="M260.15,246.71v-28.28c.7-.7,1.52-1.52,2.23-2.24.6.31,1.14.83,1.7.86,6.21.29,12.02,2.9,18.25,3.03,1.49,2.11,3.95.4,5.89,1.52,1.8,1.04,4.25.93,6.36,1.51,1.93.53,3.77,1.35,5.68,1.96,3.32,1.07,11.18,4.91,13.1,6.93,4.51,4.76,7.64,10.3,8.66,16.89.24,1.54.96,3.06.94,4.58-.13,8.36-2.48,15.9-8.71,21.86-2.78,2.66-5.13,5.81-9.05,7.11-3.73,1.24-7.27,3.06-11.4,2.66-3.36-.33-6.68.02-10.12-.85-4.73-1.21-8.61-3.64-12.34-6.43-2.97-2.22-5.14-5.28-6.73-8.67-.39-.82-.5-1.77-.88-3.19,2.09,1.03,3.63,1.87,5.24,2.57,7.43,3.26,13.48,1.55,18.69-3.62,2.53-2.51,3.4-5.92,4.28-9.2.63-2.34-.48-4.69-1.85-8.18-.98-2.51-3.18-3.68-4.72-5.53-1.59-1.91-3.62-3.03-6.28-2.97-1.02.02-2.13-1.03-3.07-.86-2.11.39-4.32.92-6.14,1.98-3.36,1.96-6.48,4.33-9.72,6.55Z"/>
  <path class="cls-4" d="M208.3,104.98c.41-1.56.68-2.61.95-3.67,5.61-1.28,10.34,1.48,14.49,4.26,7.64,5.12,11.35,10.09,15.54,19.36,2.24,4.94,4.02,10.04,4.87,15.51.45,2.88.14,5.94,1.02,8.55,1.11,3.28,1.04,6.49.73,9.63-.93,9.37-1.93,18.8-5.94,27.49-1.75,3.78-3.67,7.55-6.02,10.98-4.35,6.35-10.5,10.74-17.44,13.86-2.09.94-4.66.94-7.03,1.09-2.78.18-5.57.04-9.07.04,2.2-1.75,3.65-3.21,5.37-4.21,5.79-3.37,9.29-8.82,12.95-14.08,3.56-5.13,7.05-13.89,8.28-20.55,2.07-2.38.74-5.49,1.77-8.25,1.03-2.78.23-6.25.23-9.41,0-3,.59-6.16-.17-8.95-.68-2.5-.46-5.03-1.22-7.47-1.87-6.04-3.38-12.18-6.55-17.78-3.51-6.2-7.55-11.9-12.75-16.4Z"/>
  <path class="cls-3" d="M415.02,285.92c1.11-2.42,3.53-2.42,5.23-2.7,6.81-1.12,13.33-3.33,20.02-4.78,3.52-.76,7.06-1.44,10.54-2.36,4.81-1.26,9.66-2.35,14.47-3.65,3.3-.89,6.73-1.32,10.06-2.29,4.5-1.32,9.17-2.17,13.76-2.9,9.44-1.5,18.19,1.46,26.46,5.91,3.39,3.78,7.69,6.72,10.23,11.26.2.36.12.88.19,1.51h-110.95Z"/>
  <path class="cls-3" d="M214.52,645.09c.79-.81,1.59-1.65,2.67-2.76-.35-1.43-.76-3.1-1.16-4.72-1.97-1.36-4.11-1.62-6.41-1.55-4.46.12-8.92.04-14.09.04.71-1,.96-1.77,1.44-1.96,5.14-2.07,10.32-4.02,15.48-6.05,2.86-1.12,5.69-2.35,8.55-3.46.84-.33,1.78-.42,2.85-.66v32.88c-.97,1.33-2.09,2.86-2.74,3.75-4.77,2.09-9.04,1.46-13.25,1.49-9.32.05-18.65.03-27.97,0-4.05,0-8.15.52-12-1.06-1.12-1.19-2.25-2.38-3.73-3.95-.09-1.82-2.56-4.3-.15-6.88,1.71-1.83,3.46-3.61,4.89-5.11h45.62Z"/>
  <path class="cls-3" d="M409.08,578.61c.27,2.53-.82,5.74-2.69,8.44-1.86,2.68-5.38,2.91-8.25,3.86-1.47-.34-2.99-.7-4.96-1.16-1.37-1.41-3.1-3.2-5.02-5.17-1.53-7.38-1.91-15.05-.12-22.93,1.11-.98,2.35-2.06,3.96-3.47,6.1-1.89,13.1-1.65,19.82-.88,8.38.95,16.71.53,25.06.78,1.87.06,3.22.99,4.69,1.98,1.76,1.19,1.85,1.05,3.43,3.53,0,1.66,0,3.32,0,5.3-1.36,1.66-2.89,3.51-3.87,4.7-5.31,2.24-10.09,1.37-14.78,1.48-4.82.11-9.65.03-15,.03-.42.65-1.04,1.62-2.26,3.52Z"/>
  <path class="cls-3" d="M412.58,549.06h-14.03c-.9-.86-1.73-1.66-2.48-2.38,2-4.25,3.89-8.46,5.94-12.59,6.77-13.66,13.59-27.29,20.42-40.93,1.69-3.37,3.73-6.5,7.64-7.6,1.16-.32,2.65-.58,3.65-.13,2.26,1.03,4.32,2.52,6.28,3.72,0,1.42-.17,2.46.06,3.4.15.61.46.9.35,1.8-.49,4.04-2.76,7.23-4.44,10.68-5.98,12.32-11.63,24.81-17.88,37-1.38,2.7-3.36,4.66-5.51,7.03Z"/>
  <path class="cls-4" d="M464.6,120.45c2.95-1.02,5.29-1.83,8.03-2.77,1.58,3.76,4.23,6.58,5.49,10.41.96,2.91,2.28,5.71,3.13,8.7.69,2.41,1.29,4.81,1.82,7.26,1.84,8.5,1.01,17.1.74,25.6-.19,5.99-2.04,11.96-4.46,17.58-1.45,3.36-2.26,7.04-5.38,9.7.52-2.74-1.03-5.6.95-8.39.47-.66.07-1.95.07-2.95,0-7,.07-14-.05-21-.03-2.03-.64-4.06-.95-6.09-.31-2.03.78-4.3-1-6.09.68-4.44-1.6-8.39-2.16-12.65-.41-3.12-1.57-6.27-2.8-9.29-1.28-3.15-2.22-6.43-3.44-10.02Z"/>
  <path class="cls-4" d="M482.47,115.09c.32,0,.78-.14.95.02,5.82,5.53,11.76,10.98,13.58,19.32,2.12,2.15,2.22,5.17,2.84,7.79.62,2.58,1.9,5.22,1.16,8.05,1.76,4.76,1,9.72.91,14.58-.06,3.45-1.02,6.89-1.49,10.34-.97,7.06-4.33,13.26-7.58,19.34-2.64,4.94-6.93,8.82-12.01,11.56-.1.05-.3-.06-.69-.16,1.37-2.54,2.36-5.34,4.15-7.46,2.55-3.01,3.19-6.71,4.7-10.09,2.17-4.89,3.69-9.96,4.01-15.33,1.77-2.34.89-5.04.96-7.58.13-4.49-.05-9,.06-13.49.13-5.17-1.6-9.97-2.53-14.94-.9-4.78-3.37-8.96-4.77-13.54-.84-2.74-2.94-5.1-4.45-7.64-.09-.14.12-.46.2-.74Z"/>
  <path class="cls-3" d="M447.32,598.07c-3.36-.16-8.21,1.28-10.28-4.99v-6.23c1.71-3.04,4.72-4.44,7.57-5.68,6.48-2.82,9.22-7.76,9.39-14.54.13-4.88-1.33-9.09-4.85-11.91-.74-3.29,1.87-3.37,3.44-4.55,4.57-.66,8.35.63,10.19,5.42,1.17,4.45-.56,8.53-1.85,12.61-2.5,7.94-5.51,15.73-7.83,23.72-.82,2.82-1.59,5.07-5.8,6.15Z"/>
  <path class="cls-3" d="M280.67,726.04c.34-1.56.52-2.81.9-4,.93-2.93.74-5.73-1.28-8.09-1.4-1.64-2.53-3.23-2.2-5.81,3.13.38,5.08-2,7.9-3.95.37-2.7.85-6.16,1.24-8.93-1.43-2.08-2.42-3.52-3.24-4.72-2.18-.61-4.12-1.16-5.98-1.68v-1.6c2.01-.14,4.04-.75,5.87.83,1.83-1.08,3.67-2.18,6.13-3.64,0,5.15.1,9.59-.05,14.03-.06,1.87-.88,3.72-.88,5.58s.71,3.71.89,5.58c.16,1.64.03,3.32.03,4.95-1.68,1.68-3.32,3.32-4.69,4.69-.52,2.99-.99,5.64-1.44,8.21,2.4,2.03,2.93,5.53,7.12,6.34-2.48,1.8-5.39.8-6.43,3.19-2.78.24-3.1,2.94-4.57,4.68,0,1.34-.01,2.83,0,4.33.05,4.47,2.56,7.46,7.06,8,1.74.21,2.66.83,3.04,2.47-3.11.65-7.87-.03-11.98-1.72v-27.21c.95-.56,1.88-1.12,2.56-1.52Z"/>
  <path class="cls-3" d="M404.01,599.63c5.27-2.78,10.19-5.47,12.35-11.33.58-1.58,1.9-2.89,2.79-4.2h7.71c.33.81,1.04,1.78,1.06,2.77.03,1.42-1.84,2.48-.44,4.39.83,1.12.54,3.05.82,4.6.05.27.44.47.68.71-3.81,7.72-16.49,10.06-24.97,3.06Z"/>
  <path class="cls-3" d="M408.28,474.22c1.58-1.07,2.89-1.96,4.44-3.02,7.58-.24,8.02-.02,11.47,6.16-.7.71-1.35,1.95-2.28,2.21-3.21.9-4.22,3.91-5.78,6.11-2.2,3.1-3.53,6.82-5.35,10.52-1.28-1.71-1.84-3.26-1.84-5.18,0-1.53-.7-3.04-.9-4.58-.18-1.41-.36-2.71-.89-4.13-.98-2.61.45-5.3,1.14-8.1Z"/>
  <path class="cls-3" d="M425.44,547.2c3.03-6,5.86-11.63,8.7-17.26.86,6.11,3.83,11.75,2.67,17.84-.43.43-.78.78-1.35,1.35-3.01-.64-6.59,1.28-10.02-1.93Z"/>
  <path class="cls-3" d="M260.09,662.98l.82.7-.32.32c-.23-.27-.46-.54-.7-.82.07-.07.13-.13.2-.2Z"/>
  <path class="cls-3" d="M161.91,668.19c-.27-.23-.54-.46-.82-.7.11-.11.21-.21.32-.32.23.27.46.54.7.82-.07.07-.13.13-.2.2Z"/>
  <path class="cls-1" d="M38.8,674.39c.51-2.45.69-4.88,1.57-7.03.51-1.24.63-3.28,2.96-3.38.76-.03,1.47-1.22,2.54-2.17,2.37.39,5.07.75,7.72,1.29,2.74.56,5.42,1.6,8.18,1.9,2.71.29,5.16,1.16,7.71,1.93,2.71.82,5.72.63,8.53,1.2,2.57.52,5.06,1.47,7.59,2.24,1.03,1.62,2.11,3.34,3.53,5.59-.35,2.16-.79,4.8-1.3,7.89-1.59,1.23-3.48,2.69-5.63,4.36-2.52-.47-5.33-.95-8.11-1.53-3.98-.83-7.98-1.62-11.91-2.63-3.78-.97-7.78-1.08-11.37-2.71-1.66-.76-3.36.05-5.17-.84-2.05-1.01-4.13-1.38-4.8-3.99-.18-.7-1.12-1.19-2.05-2.12Z"/>
  <path class="cls-1" d="M45.17,644.59c1.06-.69,1.7-1.11,2.34-1.52,2.11-1.33,4.12-3.22,6.81-1.16,4.17-.12,8.01,1.6,12.03,2.33,3.62.66,7.37,1.02,10.9,2.47,1.97.8,4.3.65,6.43,1.32,2.07.65,4.27.88,6.21,1.25,1.44,2.26,2.7,4.24,3.75,5.87-.67,2.95-1.29,5.66-1.95,8.59-.62.4-1.54.99-2.45,1.59-2.32,1.55-4.5,2.09-7.51,1.2-3.39-1.01-6.97-1.67-10.48-2.4-4.27-.89-8.53-1.75-12.77-2.8-2.2-.55-4.57-1.31-6.99-1.26-4.2.08-7.76-4.14-7.62-8.08.09-2.62.8-5.01,1.29-7.4Z"/>
  <path class="cls-1" d="M82.92,625.43c1.07,2.24,2.59,4.23,2.93,6.42.32,2.08-.58,4.34-1.03,7.06-1.47,1.23-3.29,2.76-5.36,4.49-4.64-.77-9.35-1.4-14-2.35-4.41-.9-8.76-2.12-13.33-3.25-.87-1.28-1.85-2.72-3.32-4.88.28-2.69.65-6.16,1.02-9.61,2.07-1.12,3.84-2.08,6.39-3.46,8.44,1.76,17.62,3.68,26.69,5.58Z"/>
  <path class="cls-1" d="M69.17,702.52c-1.99,1.09-3.54,1.62-4.63,2.64-1.01.93-2.08,1.19-3.13.88-3.31-1-6.72-1.44-10.08-2.15-2.27-.48-4.47-1.28-6.74-1.78-2.14-.48-4.32-.75-6.42-1.1-1.83-3.04-3.72-5.81-3.18-9.41,1.87-1.37.56-3.4,1.08-4.99.91-.61,1.87-1.15,2.71-1.84,1.71-1.4,3.71-2.18,5.78-1.62,3.33.9,6.82,1.18,10.04,2.27,1.29.44,2.48.43,3.7.69,1.21.25,2.38.91,3.58.93,3.55.06,6.12,1.41,7.42,4.84.11.28.46.47.95.95-.35,3.14-.72,6.48-1.08,9.69Z"/>
  <path class="cls-1" d="M229.01,716.32c-.08-3.23-.29-6.77,1.38-10.15,1.37-.96,2.8-1.96,4.36-3.05,6.77-.66,13.1,2.81,20.07,3.16,1.39,2.16,2.82,4.39,4.12,6.41-.36,1.44-.87,2.64-.9,3.85-.09,3.01-1.49,5.08-4,6.57-.95.57-1.81,1.29-2.59,1.85-6.3-1.38-12.56-2.76-19.3-4.23-.78-1.1-1.88-2.64-3.13-4.4Z"/>
  <path class="cls-1" d="M184.83,691.57c.68,1.23,1.2,2.79,2.22,3.87,1.23,1.3,1.46,3.24.81,4.01-1.46,1.72-.44,3.5-1.09,5.54-1.48,1.1-3.26,2.44-5.39,4.02-3.68.71-7.22-1.57-10.96-2.07-1.22-2.02-2.42-4-3.5-5.78.7-3.03,1.33-5.74,1.76-7.61,4.95-6.21,10.4-4.02,16.14-1.99Z"/>
  <path class="cls-1" d="M103.23,651.89c2.22.34,5.07.67,7.87,1.22,2.91.57,3.93,3.33,6.01,5.86-.38,2.54-.85,5.63-1.36,8.98-2.04,1.32-4.26,2.76-6.25,4.05-3.11-.71-5.99-1.36-9.36-2.12-1.23-1.65-2.74-3.66-4.31-5.77.7-1.97,1.11-3.94,1.33-6.01.15-1.42.8-3.35,2.76-4.05.86-.31,1.59-1.01,3.31-2.16Z"/>
  <path class="cls-1" d="M203.4,714.21c-3.84-.89-7.15-1.66-10.25-2.38-1.05-1.55-1.93-2.86-3.33-4.94.34-2.62.79-6.06,1.25-9.58,2.25-1.09,4.38-2.74,6.69-3.06,2.4-.33,4.98.62,8.2,1.13,1.46,1.83,3.32,4.17,4.94,6.19-.7,2.79-1.24,5.19-1.92,7.56-.81,2.8-4.14,2.84-5.58,5.08Z"/>
  <path class="cls-1" d="M113.01,695.48c-.64-.57-1.05-1.23-1.57-1.34-2.17-.47-4.37-.76-7.6-1.29-.24-.3-1.1-1.28-1.83-2.35-.61-.9-1.07-1.9-2.09-3.74.28-1.7.71-4.34,1.23-7.48,1.51-1.26,3.34-2.79,5.38-4.48,3.32.44,6.65.88,10.04,1.33.67,1.22,2.29,1.63,2.53,3.45.17,1.27,1.35,2.4,1.89,3.27-.48,2.4-.88,4.42-1.45,7.3-1.56,1.27-3.78,3.09-6.52,5.33Z"/>
  <path class="cls-1" d="M132.64,676.96c-3.79-.79-6.99-1.45-10.51-2.18-.95-1.9-2.6-4.01-2.97-6.32-.36-2.21.61-4.63,1-7.04.63-.63,1.35-1.32,2.04-2.04,2.36-2.5,5.55-3.05,8.36-1.97,1.79.69,3.5.18,5.38.95,1.35,2.16,2.82,4.53,4.19,6.73-.77,2.68-.99,5.35-2.26,7.33-1.23,1.92-3.54,3.13-5.22,4.53Z"/>
  <path class="cls-1" d="M187.23,675.17c2.35-1.48,4.57-2.88,6.42-4.05,2.64.49,4.8.88,6.96,1.28,3.58.71,4.3,4.28,6.38,6.34-.35,2.21-.37,4.34-1.08,6.21-.6,1.58-.91,3.39-3.17,4.28-2.63,1.04-4.79,2.85-7.8.94-.83-.52-2.32.14-3.42-.12-2.92-.68-6.71-6.79-5.33-9.4.96-1.83.37-3.48,1.04-5.48Z"/>
  <path class="cls-1" d="M112.96,645.91c.39-2.11.84-4.6,1.43-7.83,1.25-1.05,3.07-2.57,5.07-4.24,3.32.46,6.62.92,10.39,1.45,1.12,1.75,2.59,3.78,3.75,5.96,1.34,2.5-1.9,4.76-.34,7.42-2.4,1.9-4.66,3.68-6.7,5.3-3.56-.75-6.9-1.46-10.08-2.13-1.05-1.77-2.08-3.5-3.52-5.92Z"/>
  <path class="cls-1" d="M215.56,676.23c3.65.77,6.84,1.44,10.16,2.14,1.03,1.85,2.75,3.77,3.12,5.92.38,2.21-.54,4.66-.98,7.55-1.45,1.23-3.26,2.76-4.83,4.09-4.27.61-7.83-.67-11.43-1.85-1.22-1.94-2.45-3.88-3.54-5.62.35-1.42.87-2.61.9-3.81.07-3,1.5-5.06,3.97-6.57.94-.58,1.82-1.26,2.64-1.84Z"/>
  <path class="cls-1" d="M148.2,701.96c-.2-.73-.18-1.31-.47-1.6-1.36-1.38-2.84-2.86-2.64-4.83.19-1.95,1.13-3.81,1.68-5.73.57-1.99,1.76-3.21,3.79-3.87.82-.27,1.4-1.3,1.79-1.7,3.57.73,6.77,1.39,10.18,2.09,1.01,1.56,2.18,3.37,3.64,5.63-.38,2.23-.83,4.87-1.35,7.94-1.57,1.21-3.46,2.66-5.4,4.14-3.81.51-7.35-.93-11.22-2.08Z"/>
  <path class="cls-1" d="M139.93,681.49c.95,1.36,1.95,2.78,3.04,4.34.13,4.95.79,10.32-6.7,13.33-2.38-.28-6.16-.74-9.75-1.16-1.18-1.86-2.26-3.57-3.72-5.88.39-2.58.86-5.7,1.33-8.79,1.53-1.06,2.97-2.05,4.71-3.25,1.59,0,3.6-.16,5.57.05,1.69.18,3.34.8,5.52,1.35Z"/>
  <path class="cls-1" d="M111.25,636.05c-.43,2.73-.88,5.56-1.43,9.02-1.94,1.23-4.3,2.72-6.51,4.13-1.12-.44-1.98-1.05-2.84-1.06-3.66-.06-6.77-.96-8.51-4.56-.2-.42-.65-.72-1.23-1.33.36-3.13.74-6.46,1.07-9.36,1.28-.9,2.23-1.46,3.05-2.17,2-1.74,4.56-2.36,6.68-1.36,1.67.78,3.14.45,5.19.86,1.2,1.54,2.65,3.41,4.53,5.83Z"/>
  <path class="cls-3" d="M150.83,488.09h-3.34c-4.47-4.47-8.95-8.93-13.38-13.44-.27-.27-.2-.89-.31-1.45h-2.42c-.11.11-.33.22-.34.35-.21,2.75-.33,5.51,1.69,7.74,1.34,1.48,2.85,2.8,4.2,4.27.62.68,1.03,1.54,1.6,2.42.62.07,1.4.17,2.32.27v3.61h-2.05c-2.55-2.7-5.2-5.32-7.61-8.16-1.29-1.52-2.42-3.32-3.1-5.18-.37-1.02-.32-2.4.52-3.72.97-1.51,1.24-3.47,1.91-5.54h3.4c.04.77.07,1.42.1,2.21,3.45,1.78,5.77,5,8.53,7.72,2.76,2.71,5.81,5.22,8.27,8.88Z"/>
  <path class="cls-3" d="M155.16,524.26h6.75v2.66h-21.81v-2.69h6.78v-5.82c1.48-.88,2.69-1.6,4.06-2.42,1.26.72,2.6,1.49,3.95,2.26.09,2.05.18,3.96.27,6.01ZM152.83,524.01v-3.86c-.84-.42-1.61-.8-2.66-1.33v5.19h2.66Z"/>
  <path class="cls-3" d="M168.35,473.09c-.55-1.1-1.03-2.06-1.41-2.83-3.87-.8-6.51.67-8.84,3.18-1.5,1.61-3.22,3.01-5.13,4.77v1.41c-.91.91-2.04.52-3.96-1.3q1.37-1.95,3.46-2.3c2.12-3.35,4.75-5.97,8.05-8.14,1.98-1.3,3.82-.32,5.45-.87,1.23.75,2.26,1.45,3.35,2.04.92.5,1.9.87,2.77,1.25-.41,2.92-2.27,2.81-3.74,2.76Z"/>
  <path class="cls-3" d="M134,510.4c2.54-.45,5.03-.89,7.42-1.31,2.59-2.05,4.24-5.06,7.47-6.44.07-.66.15-1.44.25-2.39h3.65c.05.4.26,1.02.19,1.6-.28,2.1-1.76,2.47-3.41,2.2-2.66,4.55-6.06,7.9-12.17,8.72-.51-.17-1.96-.66-3.39-1.14v-1.24Z"/>
  <path class="cls-3" d="M171,507.09c0-1.16-.07-2.33.01-3.48.15-2.07-.83-3.67-2.11-5.09-1.33-1.47-2.87-2.77-4.17-4.27-.46-.53-.5-1.43-.73-2.17h2.49c2.07,2.09,4.15,4.2,6.3,6.37.62,2.83,2.66,5.81-.53,8.63h-1.26Z"/>
  <path class="cls-3" d="M162.16,511.55c1.26.82,2.03,1.32,2.48,1.61.79,4.52,1.52,8.68,2.33,13.35-.34.37-.96,1.04-1.79,1.93-.84-.69-1.54-1.28-2.14-1.77-.42-1.72,1-3.08.07-4.87-.66-1.26-.22-2.96-.97-4.55-.67-1.42-.05-3.44.01-5.71Z"/>
  <path class="cls-3" d="M138.02,523.61q1.37,2.48-1.22,4.71c-.63-.6-1.29-1.23-1.84-1.74.83-4.22,1.61-8.18,2.42-12.29,1.65-.72,2.82.04,3.82,1.98-.6.64-1.23,1.33-2.02,2.18-.91,1.45.83,3.77-1.17,5.16Z"/>
  <path class="cls-3" d="M168,473.09c-.11.61,0,1.43-.36,1.8-4.23,4.33-8.51,8.61-12.84,12.84-.37.36-1.19.25-1.8.36.11-.61,0-1.43.36-1.8,4.23-4.33,8.51-8.61,12.84-12.84.37-.36,1.19-.25,1.8-.36Z"/>
  <path class="cls-3" d="M134,507.09c.11-.61,0-1.43.36-1.8,4.23-4.33,8.51-8.61,12.84-12.84.37-.36,1.19-.25,1.8-.36-.11.61,0,1.43-.36,1.8-4.23,4.33-8.51,8.61-12.84,12.84-.37.36-1.19.25-1.8.36Z"/>
  <path class="cls-3" d="M168,507.09c-.5,0-1.14.2-1.47-.03-1.96-1.37-12.4-12.52-13.64-14.5.18-.18.4-.4.58-.58,1.98,1.24,13.13,11.67,14.5,13.64.23.34.03.97.03,1.47Z"/>
  <path class="cls-3" d="M150,488.09h3c-.13,3.85-.15,3.87-4,4-.12-1.45.05-2.82,1-4Z"/>
  <path class="cls-3" d="M163.89,492.09h-2.73c-.06-1.21-.12-2.45-.18-3.62,2.07-.92,3.23-.13,4.12,1.55-.41.7-.8,1.37-1.21,2.07Z"/>
  <path class="cls-3" d="M163.93,511.01h-3.58c-.96-1.86-.21-3.04,1.44-3.95,1.89.43,2.46,1.71,2.14,3.95Z"/>
  <path class="cls-3" d="M134,507.09v3c-.67.35-1.33.71-1.95,1.04-2-.64-2.21-2.06-1.97-4.04h3.92Z"/>
  <path class="cls-3" d="M168,507.09h3c.35.66.71,1.32,1.38,2.57-.63.46-1.36.99-2.35,1.71-.72-.62-1.4-1.2-2.04-1.74v-2.54Z"/>
  <path class="cls-4" d="M152.83,524.01h-2.66v-5.19c1.06.53,1.82.91,2.66,1.33v3.86Z"/>
</svg>