<svg xml:space="preserve" style="enable-background:new 0 0 121.6 67.3;" viewBox="0 0 121.6 67.3" y="0px" x="0px" xmlns:xlink="http://www.w3.org/1999/xlink" xmlns="http://www.w3.org/2000/svg" id="Layer_1" version="1.1">
<style type="text/css">
	.st0{fill:#010101;}
	.st1{fill:#231F20;}
	.st2{font-family:'ArialMT';}
	.st3{font-size:5.6834px;}
	.st4{fill:#250D0E;}
	.st5{fill:#F3C417;}
	.st6{fill:#1385C8;}
	.st7{fill:#CF3537;}
	.st8{fill:#0B9F49;}
</style>

	

<g>
	<g transform="matrix(0.98713826,0,0,0.98713826,0.68295861,0.14019301)" id="g12">
		<path d="M66,28v1.9H51.5V8.3h14.2v1.9H53.6V18h10.6v1.8H53.6V28H66z" class="st0" id="path4"></path>
		<path d="M85.2,26.8c-2,2.2-4.3,3.3-6.9,3.3c-1.5,0-2.8-0.3-4-0.9c-1.2-0.6-2.3-1.5-3.2-2.5
			c-0.9-1-1.6-2.2-2.1-3.5c-0.5-1.3-0.8-2.7-0.8-4c0-1.4,0.2-2.8,0.7-4.1s1.2-2.5,2.1-3.5c0.9-1,1.9-1.8,3.2-2.4
			c1.2-0.6,2.5-0.9,4-0.9c1.1,0,2,0.1,2.9,0.3s1.6,0.6,2.3,1c0.7,0.4,1.3,0.9,1.8,1.5c0.5,0.6,0.9,1.2,1.3,1.9l-1.6,1.1
			c-0.7-1.3-1.6-2.3-2.8-3c-1.1-0.6-2.4-0.9-3.9-0.9c-1.2,0-2.3,0.3-3.2,0.8c-1,0.5-1.8,1.2-2.5,2s-1.2,1.8-1.6,2.9
			c-0.4,1.1-0.5,2.2-0.5,3.4c0,1.2,0.2,2.4,0.6,3.5c0.4,1.1,1,2.1,1.7,2.9s1.6,1.5,2.6,2s2.1,0.7,3.2,0.7c1.2,0,2.4-0.3,3.5-0.9
			s2.2-1.5,3.2-2.8v-3.6h-4.8v-1.6H87v10.6h-1.8V26.8L85.2,26.8z" class="st0" id="path6"></path>
		<path d="M100.1,30.1c-1.5,0-2.9-0.3-4.1-0.9c-1.2-0.6-2.3-1.4-3.2-2.5c-0.9-1-1.6-2.2-2.1-3.5
			c-0.5-1.3-0.7-2.7-0.7-4c0-1.4,0.3-2.8,0.8-4.1s1.2-2.5,2.1-3.5s2-1.8,3.2-2.4c1.2-0.6,2.6-0.9,4-0.9c1.5,0,2.9,0.3,4.1,1
			s2.3,1.5,3.2,2.5s1.6,2.2,2.1,3.5s0.7,2.6,0.7,4s-0.3,2.8-0.8,4.1c-0.5,1.3-1.2,2.5-2.1,3.5s-2,1.8-3.2,2.4
			C102.8,29.8,101.5,30.1,100.1,30.1z M92.1,19.1c0,1.2,0.2,2.3,0.6,3.4c0.4,1.1,0.9,2,1.6,2.9s1.6,1.5,2.5,2s2.1,0.7,3.3,0.7
			s2.3-0.3,3.3-0.8s1.8-1.2,2.5-2.1s1.2-1.8,1.6-2.9c0.4-1.1,0.6-2.2,0.6-3.3c0-1.2-0.2-2.3-0.6-3.4s-0.9-2-1.7-2.9
			c-0.7-0.8-1.6-1.5-2.5-2c-0.9-0.5-2-0.7-3.2-0.7s-2.3,0.3-3.3,0.8c-1,0.5-1.8,1.2-2.5,2.1s-1.2,1.8-1.6,2.9S92.1,18,92.1,19.1z" class="st0" id="path8"></path>
		<path d="M114.2,29.9V8.3h2.1v21.6C116.3,29.9,114.2,29.9,114.2,29.9z" class="st0" id="path10"></path>
		<text class="st1 st2 st3" transform="matrix(1.013 0 0 1.013 51.3187 40.4461)">European Girls'</text>
		<text class="st1 st2 st3" transform="matrix(1.013 0 0 1.013 51.3187 47.7193)">Olympiad in Informatics</text>
		<text class="st1 st2 st3" transform="matrix(1.013 0 0 1.013 51.3187 54.9931)">21 – 27 July 2024</text>
		<text class="st1 st2 st3" transform="matrix(1.013 0 0 1.013 51.3187 62.2668)">The Netherlands</text>
	</g>
	<path d="M33.5,47.7c0.6,0,1.1-0.1,1.6-0.5l1.7,10c-0.2,0-0.5-0.1-0.6-0.1c-0.6,0-1.1,0.1-1.5,0.5l-1.7-10
		C33,47.7,33.2,47.7,33.5,47.7z" class="st4" id="path158"></path>
	<path d="M32.1,43.9c0.4-0.4,0.7-0.6,1.4-0.6c0.4,0,0.6,0.1,0.9,0.2c0.5,0.2,0.9,0.9,0.9,1.5
		c0,0.4-0.1,0.7-0.4,1.1c-0.4,0.4-0.7,0.6-1.4,0.6c-0.2,0-0.6-0.1-0.9-0.2c-0.5-0.2-0.9-0.9-0.9-1.5C31.7,44.5,31.9,44.1,32.1,43.9z" class="st5" id="path160"></path>
	<path d="M11.3,54.2c-0.6,0-1.1-0.1-1.6-0.5l-0.6,3.6c0.2,0,0.5-0.1,0.6-0.1c0.6,0,1.1,0.1,1.5,0.5
		l0.6-3.5C11.8,54.1,11.6,54.2,11.3,54.2z" class="st6" id="path162"></path>
	<path d="M12.7,50.2c-0.4-0.4-0.7-0.6-1.4-0.6c-0.4,0-0.6,0.1-0.9,0.2c-0.5,0.2-0.9,0.9-0.9,1.5
		c0,0.4,0.1,0.7,0.4,1.1c0.4,0.4,0.7,0.6,1.4,0.6c0.2,0,0.6-0.1,0.9-0.2c0.5-0.2,0.9-0.9,0.9-1.5C13.1,50.8,12.9,50.5,12.7,50.2z" class="st7" id="path164"></path>
	<path d="M34.7,58.8L34.7,58.8L34.7,58.8c0.4-0.4,0.9-0.6,1.4-0.6c0.4,0,0.6,0.1,0.9,0.2
		c0.5,0.2,0.9,0.9,0.9,1.5c0,1-0.7,1.7-1.7,1.7c-0.5,0-1-0.2-1.4-0.6c-0.2-0.2-0.4-0.7-0.4-1.1C34.4,59.6,34.5,59.2,34.7,58.8z" class="st5" id="path166"></path>
	<path d="M9.8,58.2c0.5,0,1,0.2,1.4,0.6c0.2,0.2,0.4,0.6,0.4,1.1s-0.1,0.9-0.4,1.1
		c-0.4,0.4-0.7,0.6-1.4,0.6c-1,0-1.7-0.7-1.7-1.7C8.1,58.9,8.8,58.2,9.8,58.2z" class="st5" id="path168"></path>
	<path d="M33.5,61c-0.1-0.4-0.2-0.7-0.2-1.1c0-0.4,0.1-0.7,0.2-1.1h-6.7v-3.2c0-2-1.6-3.7-3.7-3.7
		s-3.7,1.6-3.7,3.7v3.2h-6.7c0.1,0.4,0.2,0.7,0.2,1.1c0,0.4-0.1,0.7-0.2,1.1H33.5z M24.5,58.8h-3v-3.2c0-0.7,0.6-1.5,1.5-1.5
		s1.5,0.6,1.5,1.5V58.8z" class="st4" id="path170"></path>
	<g id="g212">
		<path d="M5.2,7.1c1,0,1.7,0.7,1.7,1.7C7,9,7,9,7,9.1c-0.1,0.9-0.9,1.5-1.7,1.5S3.7,10,3.5,9.3
			c0-0.1,0-0.2,0-0.4C3.5,7.9,4.2,7.1,5.2,7.1z" class="st5" id="path172"></path>
		<path d="M10.2,26.4c0.1-0.9,0.9-1.5,1.7-1.5l0,0c1,0,1.7,0.7,1.7,1.7s-0.7,1.7-1.7,1.7s-1.7-0.7-1.7-1.7
			C10.1,26.6,10.2,26.6,10.2,26.4z" class="st6" id="path174"></path>
		<path d="M39,44.4c0.1-0.9,0.9-1.5,1.7-1.5s1.5,0.6,1.7,1.4c0,0.1,0,0.2,0,0.4c0,1-0.7,1.7-1.7,1.7
			S39,45.7,39,44.7C39,44.5,39,44.4,39,44.4z" class="st6" id="path176"></path>
		<path d="M34,25.1c1,0,1.7,0.7,1.7,1.7c0,0.1,0,0.2,0,0.2c-0.1,0.9-0.9,1.5-1.7,1.5l0,0
			c-1,0-1.7-0.7-1.7-1.7C32.2,25.8,33.1,25.1,34,25.1z" class="st8" id="path178"></path>
		<path d="M22.9,25.1c1,0,1.7,0.7,1.7,1.7c0,0.1,0,0.2,0,0.2c-0.1,0.9-0.9,1.5-1.7,1.5l0,0
			c-1,0-1.7-0.7-1.7-1.7C21.2,25.8,22,25.1,22.9,25.1z" class="st5" id="path180"></path>
		<path d="M5.1,42.7c0.1,0,0.1,0,0.2,0c0.9,0.1,1.5,0.9,1.5,1.7S6.2,46,5.5,46.2c-0.1,0-0.2,0-0.4,0
			c-1,0-1.7-0.7-1.7-1.7C3.4,43.5,4.1,42.7,5.1,42.7z" class="st8" id="path182"></path>
		<path d="M22.9,36c1,0,1.7,0.7,1.7,1.7s-0.7,1.7-1.7,1.7c-0.1,0-0.2,0-0.2,0c-0.9-0.1-1.5-0.9-1.5-1.7
			l0,0C21.2,36.9,21.9,36,22.9,36z" class="st5" id="path184"></path>
		<path d="M40.3,7.3c0.1,0,0.2,0,0.4,0c1,0,1.7,0.7,1.7,1.7s-0.7,1.7-1.7,1.7c-0.1,0-0.1,0-0.2,0
			C39.6,10.6,39,9.9,39,9C39.1,8.1,39.6,7.5,40.3,7.3z" class="st6" id="path186"></path>
		<path d="M23,13.9h0.1c0.9,0.1,1.5,0.7,1.6,1.6v0.1c0,1-0.7,1.7-1.7,1.7s-1.7-0.7-1.7-1.7
			S22,13.9,23,13.9z" class="st7" id="path188"></path>
		<g id="g198">
			<path d="M38,8.5c-2.5-1.1-5.5-0.7-7.5,1.2l-4.9,4.9c-0.2-0.7-0.9-1.2-1.6-1.6l4.9-4.9
				c2.9-2.7,7.1-3.2,10.3-1.5C38.6,7,38.2,7.8,38,8.5z" class="st5" id="path190"></path>
			<path d="M2.9,10.4C3.2,11,4,11.5,4.7,11.6c-0.4,0.9-0.6,1.9-0.6,2.7c0,1.7,0.6,3.4,1.9,4.6l5,5
				c-0.7,0.2-1.4,0.7-1.6,1.5l-4.9-4.9c-1.6-1.6-2.6-3.9-2.6-6.2C1.9,13,2.2,11.6,2.9,10.4z" class="st8" id="path192"></path>
			<path d="M35,29.4c0.7-0.2,1.4-0.7,1.6-1.5l4.9,4.9c2.7,2.7,3.4,7,1.6,10.3c-0.4-0.6-1.1-1.1-1.9-1.2
				c1.1-2.5,0.7-5.5-1.2-7.5L35,29.4z" class="st7" id="path194"></path>
			<path d="M7.8,45c0.9,0.4,1.9,0.6,2.7,0.6c1.7,0,3.4-0.6,4.6-1.9l5-5c0.2,0.7,0.7,1.4,1.5,1.6l-4.7,4.9
				c-1.6,1.6-3.9,2.6-6.2,2.6c-1.4,0-2.9-0.4-4-1C7.3,46.5,7.7,45.7,7.8,45z" class="st4" id="path196"></path>
		</g>
		<g id="g210">
			<g id="g208">
				<path d="M20.4,25.7L6.2,11.5C7,11.3,7.6,10.6,7.8,10L22,24.2C21.3,24.4,20.7,25.1,20.4,25.7z" class="st7" id="path200"></path>
				<path d="M23.9,24.2L38.1,10c0.2,0.7,0.9,1.4,1.5,1.6L25.5,25.7C25.3,25.1,24.7,24.4,23.9,24.2z" class="st8" id="path202"></path>
				<path d="M21.9,29.3L7.7,43.5c-0.2-0.7-0.7-1.2-1.5-1.6l14.2-14.1C20.7,28.4,21.2,29.1,21.9,29.3z" class="st6" id="path204"></path>
				<path d="M25.5,27.8L39.7,42c-0.7,0.2-1.4,0.9-1.6,1.5L24,29.3C24.7,29.1,25.3,28.4,25.5,27.8z" class="st4" id="path206"></path>
			</g>
		</g>
	</g>
</g>
</svg>
