<?xml version="1.0" encoding="UTF-8"?>
<svg id="Layer_1" data-name="Layer 1" xmlns="http://www.w3.org/2000/svg" viewBox="0 0 381.08 610.72">
  <defs>
    <style>
      .cls-1 {
        fill: #6e6b6a;
        stroke-width: 0px;
      }
    </style>
  </defs>
  <path class="cls-1" d="M87.46,123.77c-1.08-3.17-2.15-5.9-.57-9.26,8.85-18.84,26.64-29.69,39.82-44.65,1.89-2.14,3.18-4.26,2.09-7-1.05-2.64-3.36-3.15-6.09-3.51-9.09-1.2-16.2,1.5-22.63,8.29-2.91,3.08-9.11,6.27-12.3,5.14-5.57-1.98-1.58-8.15-1.32-12.44.73-12.42,2.45-24.8,2.69-37.21.1-5.18-.51-11.44-6.83-14.18-2.76-1.2-5.9-.08-6.58,2.02-3.06,9.47-10.33,17.34-10.49,27.87-.01.94-.49,1.87-.76,2.81-.49-.74-1.07-1.44-1.45-2.23-4.29-8.88-4.34-18.68-6.04-28.12-.43-2.38-.68-4.79-1.13-7.16-.93-4.86-5.34-4.89-7.33-2.84-4.56,4.72-7.95,10.37-6.52,17.82,1.45,7.56,2.16,15.26,3.07,22.92.09.74-.64,1.57-.99,2.37-.4-.66-1-1.27-1.16-1.99-2.1-9.43-3.82-18.97-6.36-28.28-1.06-3.89-5.84-8.41-8.5-6.94-6.32,3.49-6.79,11.54-8.27,17.95-.97,4.19,3.8,17.17,4.65,21.78-6.91-.96-9.45-13.16-10.95-17.58-1.27-3.74-2.14-4.77-2.19-4.85-2.2-4-3.53-3.77-4.68-4.12-7.86-.27-7.41,2.83-5.33,8,7.35,18.22,14.98,36.34,21.99,54.69,10.55,27.59,20.04,55.61,31.2,82.94,7.79,19.08,16.8,54.81,23.76,57.13,7.8,2.6,9.66.71,16.44-1.88,1.31-.5,4.25-1.72,5.4-2.72,11.53-9.99,23.22-19.8,34.57-29.99,2.76-2.48,3.51-9.48,7.4-7.85,3.39,1.42,6.33,7.36,6.86,11.63,4.21,34.1,24.08,64.44,23.74,99.57,0,.51,0,1.02,0,1.53-.3.32-.77.6-.86.98-7.36,29.67-24.14,55.76-32.33,85.05-2.02,7.21-14.66,18.08,4.4,21.51.14.05.29.1.43.16,9.04,4.49,11.79,10.93,7.97,20.8-2.37,6.12-2.8,12.98-4.11,19.51-.05.35-.1.69-.15,1.04-.46.53-1.1.98-1.36,1.6-12.22,28.59-10.55,57.61-1.96,86.58,3.44,11.6.46,28.85-4.83,30.28-10.91,2.94-25.21,1.45-36.3-5.68-7.55-4.85-9.46,2.3-12.57,5.28-2.78,2.66-4.96,6.63-.76,11.45,17.7,20.29,40.99,28.85,66.64,30.85,6.22.49,20.3,12.55,20.35-7.33,0-2.83-.27-5.78-1.08-8.48-6.06-20.09,1.31-39.87,1.15-59.8-.09-11.53-2.25-23.15-1.33-34.55,1.72-21.32,13.81-40.11,16.43-61.5.51-4.15-1.67-13.49,9.15-12.34,12.94,1.37,12.76,11.32,14.73,20.19,4.76,21.39,17.45,41.49,6.13,65.06-12.33,25.68-7.25,55.23-15.68,82.07-4.45,14.15.25,22.63,17.01,22.09,9.57-.31,18.99-1.19,28.96.49,26.24,4.42,37.97,3.38,48.7-21.8,1.27-2.98,2.2-7.6-1.85-8.34-8.93-1.63-18.16-1.57-27.17-2.86-9.09-1.3-21.91,1.89-25.4-8.49-3.29-9.79,1.95-21.04,5.37-31.22,4.45-13.26,14.92-25.57,12.69-39.75-3.76-23.93-10.44-47.42-12.78-71.65-.43-4.45-3.62-9.89,6.64-10.2,7.45-.23,24.9,7.96,19.68-14.83-5.87-25.66-8.52-52.08-11.84-78.26-.58-4.58-4.78-12.51,6.22-13.34,33.84-2.55,67.38-7.41,100.23-16.13,5.5-1.46,10.55-4.39,6.31-11.89-3.99-7.05-8.96-13.93-11.12-21.56-7.18-25.33-19.49-48.17-31.84-71.12-5.73-10.65-15.93-18.19-21.2-28.31-8.48-16.3-19.54-28.01-35.93-36.08-7.74-3.81-17.64-3.23-20.16-18.71-1.76-10.85-8.38-21.98,4.2-29.97,4.76-3.02-1.01.86,6.44-4.2,7.23-4.91,6.1-13.15,6.17-19.95.05-5-1.29-8.83-4.71-15.68-4.89-9.8-5.7-11.7-13.19-16.98-9.9-6.98-21.76-6.07-31.05-5.44-11.61.79-23.32,9.9-23.54,22.65-.23,13.34.35,28.77,12.71,38.25,7.51,5.76,3.83,11.59,2.45,17.39-.92,3.87-1.29,8.16-4.93,11.13-.22.15-.43.31-.66.5-.23.16-.46.32-.72.47-10.68,6.34-24.31,2.83-34.5,12.49-7.82,7.41-19.54,10.53-28.27,17.2-9.52,7.28-15.46,11.33-24.37,19.45-3.01,2.75-9.76,8.49-14.37,12.08-5.05,3.93-8.38,3.18-9.46,3.63M291.84,216.28c1.29-1.68,2.72-3.31,3.77-5.17.76-1.34,1.53-5.72,2.51-6.48,2.61-2.02,5.77.94,8.1,2.89,3.48,2.92,4.66,6.16,6.08,10.39,1.98,5.88,4.66,11.38,7.32,16.97,2.24,4.72,5.96,10.08,3.98,15.43-1.45,3.9-5.05,6.6-9.28,5.66-7.94,2.23-16.64,5.93-24.81,6.85-4.16.47-8.37-.78-12.56-.49-3.13.21-3.51,1.72-4.81-1.33-3.46-8.11,8.77-17.71,14.18-28.2"/>
</svg>